<svg width="100" height="100" fill="none" xmlns="http://www.w3.org/2000/svg"><g clip-path="url(#clip0)"><path d="M62.397 49.23c0-7.013-5.51-12.624-12.397-12.624-6.887 0-12.397 5.61-12.397 12.623 0 7.013 5.51 12.623 12.397 12.623 6.887 0 12.397-5.75 12.397-12.623zm-19.284 0c0-3.928 3.03-7.013 6.887-7.013 3.857 0 6.887 3.085 6.887 7.012 0 3.927-3.03 7.013-6.887 7.013-3.857 0-6.887-3.226-6.887-7.013z" fill="url(#paint0_linear)"/><path d="M84.573 14.166C74.656 4.488 61.708-.561 48.072 0 22.314 1.262 1.24 22.721 0 48.948c-.689 22.3 12.534 42.497 33.058 50.07 1.653.561 3.306.982 4.959.982 2.892 0 5.647-.841 8.126-2.665 4.133-2.945 6.612-7.713 6.612-12.763v-7.994C65.84 75.175 76.17 64.376 76.997 50.912h2.893c1.515 0 2.755-1.262 2.755-2.805 0-1.543-1.24-2.805-2.755-2.805h-3.03c-1.653-12.483-11.709-22.44-24.105-23.703v-3.927c0-1.543-1.24-2.805-2.755-2.805s-2.755 1.262-2.755 2.805v3.927C34.85 22.861 24.931 32.82 23.141 45.302h-3.03c-1.516 0-2.756 1.262-2.756 2.805 0 1.543 1.24 2.805 2.755 2.805h2.893c.826 13.464 11.157 24.264 24.242 25.666v7.994c0 3.226-1.515 6.312-4.27 8.135-2.48 1.683-5.372 2.104-8.127 1.122C16.668 86.957 4.822 69.004 5.51 49.23 6.612 25.807 25.344 6.732 48.347 5.61c12.121-.56 23.692 3.927 32.37 12.623C89.393 26.788 94.49 38.71 94.49 50.912c0 18.934-11.294 35.624-28.787 42.496-1.378.561-2.067 2.244-1.516 3.647.551 1.402 2.204 2.104 3.582 1.543C87.328 90.884 100 72.09 100 50.912c0-13.745-5.647-27.21-15.427-36.746zM47.245 70.968C37.19 69.706 29.34 61.29 28.512 51.052h2.617c1.516 0 2.755-1.262 2.755-2.805 0-1.543-1.24-2.805-2.755-2.805h-2.341c1.653-9.397 9.09-16.83 18.457-17.952v1.543c0 1.542 1.24 2.804 2.755 2.804s2.755-1.262 2.755-2.805V27.49c9.366 1.262 16.942 8.555 18.457 17.952h-2.341c-1.516 0-2.755 1.262-2.755 2.805 0 1.543 1.24 2.805 2.755 2.805h2.617c-.827 10.379-8.678 18.654-18.733 19.916v-3.506c0-1.543-1.24-2.805-2.755-2.805s-2.755 1.262-2.755 2.805v3.506z" fill="url(#paint1_linear)"/></g><defs><linearGradient id="paint0_linear" x1="8.993" y1="110.705" x2="69.819" y2="22.671" gradientUnits="userSpaceOnUse"><stop stop-color="#BF0487"/><stop offset="1" stop-color="#04ADBF"/></linearGradient><linearGradient id="paint1_linear" x1="9.91" y1="111.338" x2="70.736" y2="23.304" gradientUnits="userSpaceOnUse"><stop stop-color="#BF0487"/><stop offset="1" stop-color="#04ADBF"/></linearGradient><clipPath id="clip0"><path fill="#fff" d="M0 0h100v100H0z"/></clipPath></defs></svg>