<svg width="100" height="100" fill="none" xmlns="http://www.w3.org/2000/svg"><g clip-path="url(#clip0)"><path d="M84.573 14.166C74.656 4.488 61.708-.561 48.072 0 22.314 1.262 1.24 22.721 0 48.948c-.689 22.3 12.534 42.497 33.058 50.07 1.653.561 3.306.982 4.959.982 2.892 0 5.647-.841 8.126-2.665 4.133-2.945 6.612-7.713 6.612-12.763V77c11.432-.842 21.074-8.275 25.344-18.513.138-.14.138-.421.138-.561 1.377-3.367 2.066-7.153 2.066-10.94 0-16.69-13.36-30.295-29.752-30.295-11.02 0-20.661 6.171-25.895 15.428.137 0 0 .14 0 .14v.14c-2.342 4.348-3.582 9.257-3.582 14.446 0 15.428 11.57 28.331 26.309 30.015v7.713c0 3.226-1.515 6.312-4.27 8.135-2.48 1.683-5.372 2.104-7.989 1.122C16.667 86.957 4.821 69.004 5.51 49.23 6.612 25.807 25.344 6.732 48.347 5.61c12.121-.56 23.692 3.927 32.37 12.623C89.393 26.788 94.49 38.71 94.49 50.912c0 18.934-11.294 35.624-28.787 42.496-1.378.561-2.067 2.244-1.516 3.647.551 1.402 2.204 2.104 3.582 1.543C87.328 90.884 100 72.09 100 50.912c0-13.745-5.647-27.21-15.427-36.746zM50.689 22.16c13.36 0 24.242 11.08 24.242 24.684a25.09 25.09 0 01-.826 6.452l-7.852-3.787c.138-.841.276-1.683.276-2.665 0-8.835-7.025-15.988-15.703-15.988-4.82 0-9.228 2.244-12.12 5.89l-7.577-4.067C35.4 26.368 42.563 22.16 50.69 22.16zm0 14.306c5.647 0 10.193 4.628 10.193 10.378s-4.546 10.38-10.193 10.38c-5.648 0-10.193-4.63-10.193-10.38 0-5.75 4.545-10.378 10.193-10.378zM26.446 46.844c0-3.366.689-6.451 1.79-9.396l7.577 4.067c-.551 1.683-.965 3.506-.965 5.33 0 8.835 7.025 15.988 15.703 15.988 5.785 0 10.881-3.225 13.636-8.134l7.576 3.646C67.631 66.06 59.642 71.25 50.413 71.25c-13.085.28-23.967-10.8-23.967-24.404z" fill="url(#paint0_linear)"/></g><defs><linearGradient id="paint0_linear" x1="49.997" y1="127.16" x2="49.997" y2="29.358" gradientUnits="userSpaceOnUse"><stop stop-color="#BF0487"/><stop offset="1" stop-color="#04ADBF"/></linearGradient><clipPath id="clip0"><path fill="#fff" d="M0 0h100v100H0z"/></clipPath></defs></svg>