<svg width="100" height="100" fill="none" xmlns="http://www.w3.org/2000/svg"><g clip-path="url(#clip0)"><path d="M84.573 14.166C74.656 4.488 61.708-.561 48.072 0 22.314 1.262 1.24 22.721 0 48.948c-.689 22.3 12.534 42.497 33.058 50.07 1.653.561 3.306.982 4.959.982 2.892 0 5.647-.841 8.126-2.665 4.133-2.945 6.612-7.713 6.612-12.763v-9.256l30.027-22.3.138-.14c.138 0 .138-.14.276-.14l.137-.141c0-.14.138-.14.138-.28s.138-.14.138-.281c0-.14.138-.14.138-.28s0-.14.137-.281c0-.14 0-.14.138-.28v-1.122c0-.14 0-.14-.138-.281 0-.14 0-.14-.138-.28 0-.14-.137-.14-.137-.281 0-.14-.138-.14-.138-.28l-11.983-16.27c-.138-.14-.138-.28-.276-.28l-.138-.14c-.137-.141-.275-.281-.413-.281-.138-.14-.413-.14-.55-.14H30.165c-.137 0-.413.14-.55.14-.138.14-.276.14-.414.28l-.138.14c-.137.14-.275.14-.275.281l-12.26 16.55c0 .14-.137.14-.137.28s-.138.14-.138.28c0 .141 0 .141-.137.281 0 .14 0 .14-.138.28v1.122c0 .141 0 .141.138.281 0 .14 0 .14.137.28 0 .141.138.141.138.281 0 .14.138.14.138.28 0 .141.138.141.138.281l.137.14c0 .14.138.14.276.14l.138.141 30.165 22.3v9.257c0 3.226-1.515 6.311-4.27 8.135-2.48 1.683-5.372 2.103-7.99 1.122A46.326 46.326 0 015.51 49.229C6.612 25.807 25.344 6.732 48.347 5.61c12.121-.56 23.691 3.927 32.37 12.623C89.393 26.788 94.49 38.71 94.49 50.912c0 18.934-11.294 35.624-28.787 42.496-1.378.561-2.067 2.244-1.516 3.647.551 1.402 2.204 2.104 3.582 1.543C87.328 90.884 100 72.09 100 50.912c0-13.745-5.647-27.21-15.427-36.746zM30.165 39.832l3.995 8.135h-9.918l5.923-8.135zm45.593 8.275H65.84l3.995-8.135 5.923 8.135zM50 67.602l-6.887-14.025h13.774L50 67.602zm13.085-13.885h9.78l-15.29 11.36 5.51-11.36zm-3.443-5.61H40.358l-5.234-10.66h29.752l-5.234 10.66zm-22.727 5.61l5.51 11.36-15.29-11.36h9.78z" fill="url(#paint0_linear)"/></g><defs><linearGradient id="paint0_linear" x1="49.996" y1="130.968" x2="49.996" y2="-7.57" gradientUnits="userSpaceOnUse"><stop stop-color="#BF0487"/><stop offset="1" stop-color="#04ADBF"/></linearGradient><clipPath id="clip0"><path fill="#fff" d="M0 0h100v100H0z"/></clipPath></defs></svg>