<svg width="70" height="70" fill="none" xmlns="http://www.w3.org/2000/svg"><g clip-path="url(#clip0)"><path d="M59.2 9.914C52.258 3.14 43.195-.394 33.65-.002 15.62.882.866 15.903 0 34.262c-.483 15.61 8.773 29.748 23.14 35.05 1.157.392 2.314.686 3.47.686a9.416 9.416 0 005.69-1.865c2.892-2.062 4.628-5.4 4.628-8.934v-.884c3.278-.883 5.688-3.927 5.688-7.56v-5.792c0-.687-.289-1.178-.771-1.57.482-1.08.771-2.16.771-3.437v-2.258c0-.687.29-1.276.675-1.669 2.796-2.454 4.436-6.087 4.436-9.916a13.1 13.1 0 00-3.954-9.425c-2.507-2.454-5.881-3.829-9.449-3.632-6.749.294-12.148 5.792-12.341 12.665-.097 3.927 1.543 7.756 4.435 10.308.482.393.771 1.08.771 1.67v2.06c0 1.277.29 2.455.868 3.535-.482.393-.868.982-.868 1.571v5.792c0 3.633 2.41 6.677 5.69 7.56v.884c0 2.258-1.061 4.418-2.99 5.694-1.735 1.178-3.76 1.473-5.592.785C11.666 60.868 3.374 48.301 3.856 34.458 4.627 18.063 17.74 4.711 33.842 3.925c8.485-.392 16.584 2.75 22.659 8.836 6.074 5.989 9.642 14.334 9.642 22.875 0 13.254-7.907 24.937-20.152 29.748-.964.393-1.446 1.57-1.06 2.553.385.981 1.542 1.472 2.506 1.08C61.13 63.616 70 50.46 70 35.636c0-9.622-3.954-19.046-10.8-25.723zM26.032 25.917c.193-4.713 4.05-8.64 8.678-8.836 2.507-.098 4.821.785 6.556 2.553 1.736 1.767 2.797 4.123 2.797 6.578 0 2.65-1.157 5.203-3.086 6.97-1.35 1.178-2.024 2.847-2.024 4.614v2.258a3.836 3.836 0 01-1.447 3.044h-4.724c-.964-.785-1.447-1.964-1.447-3.24v-2.062c0-1.767-.771-3.534-2.12-4.712a8.906 8.906 0 01-3.183-7.167zm5.207 24.937v-3.83h7.617v3.83c0 2.16-1.736 3.829-3.76 3.829-2.025 0-3.857-1.67-3.857-3.83z" fill="url(#paint0_linear)"/></g><defs><linearGradient id="paint0_linear" x1="12.165" y1="75.786" x2="60.081" y2="-5.095" gradientUnits="userSpaceOnUse"><stop stop-color="#BF0487"/><stop offset="1" stop-color="#04ADBF"/></linearGradient><clipPath id="clip0"><path fill="#fff" d="M0 0h70v70H0z"/></clipPath></defs></svg>