<svg width="100" height="100" fill="none" xmlns="http://www.w3.org/2000/svg"><g clip-path="url(#clip0)"><path d="M84.573 14.166C74.656 4.488 61.708-.561 48.072 0 22.314 1.262 1.24 22.721 0 48.948c-.689 22.3 12.534 42.497 33.058 50.07 1.653.561 3.306.982 4.959.982 2.892 0 5.647-.841 8.126-2.665 4.133-2.945 6.612-7.713 6.612-12.763v-9.677c5.647-3.787 24.518-17.531 22.727-31.276-.138-7.854-6.474-14.166-14.187-14.166-4.683 0-8.816 2.244-11.433 5.89-2.617-3.506-6.749-5.89-11.432-5.89-7.852 0-14.188 6.452-14.188 14.446 0 13.605 17.907 27.49 22.865 31.136v9.678c0 3.226-1.515 6.311-4.27 8.134-2.479 1.683-5.371 2.104-8.126 1.122C16.667 86.957 4.82 69.004 5.51 49.23 6.612 25.807 25.344 6.732 48.347 5.61c12.121-.56 23.692 3.927 32.37 12.623C89.393 26.788 94.49 38.71 94.49 50.912c0 18.934-11.294 35.624-28.787 42.496-1.378.561-2.067 2.244-1.516 3.647.551 1.402 2.204 2.104 3.582 1.543C87.328 90.884 100 72.09 100 50.912c0-13.745-5.647-27.21-15.427-36.746zM29.89 43.759c0-4.909 3.857-8.836 8.678-8.836 4.82 0 8.677 3.927 8.677 8.836 0 1.543 1.24 2.805 2.755 2.805s2.755-1.262 2.755-2.805c0-4.909 3.857-8.836 8.677-8.836 4.821 0 8.678 3.927 8.678 8.836v.42c1.378 9.257-12.672 20.898-19.972 25.807C43.25 65.077 29.89 53.296 29.89 43.76z" fill="url(#paint0_linear)"/></g><defs><linearGradient id="paint0_linear" x1="12.437" y1="117.246" x2="74.207" y2="12.462" gradientUnits="userSpaceOnUse"><stop stop-color="#BF0487"/><stop offset="1" stop-color="#04ADBF"/></linearGradient><clipPath id="clip0"><path fill="#fff" d="M0 0h100v100H0z"/></clipPath></defs></svg>