<svg width="100" height="100" fill="none" xmlns="http://www.w3.org/2000/svg"><path d="M82.3 17.5C73.1 8.7 61 4.1 48.3 4.6 24.3 5.7 4.7 25.3 3.6 49.4c-.7 20.4 11.7 38.8 30.8 45.8 1.5.6 3 .9 4.6.9 2.1 0 4.3-.5 6.3-1.6 3.6-1.9 6.2-5.4 7.2-9.3.4-1.6.5-6.6-1.3-8.9l-5.3-6 2.7-5.7h.7c14.5 0 26.4-9.6 26.4-21.3 0-11.7-12-21.4-26.6-21.4-14.6 0-26.4 9.6-26.4 21.3 0 4 1.4 7.9 4 11.3.1.1.1.2.2.2l13.7 17.5v.1l6.3 7.1c.3.8.5 3.4.3 4.5-.6 2.5-2.3 4.7-4.6 6-2.1 1.1-4.5 1.3-6.6.5C19 84.2 8 67.8 8.6 49.6c1-21.4 18.5-38.9 39.8-39.8 11.3-.5 22 3.6 30.2 11.5 8.3 7.7 13 18.7 13 29.9 0 17.3-10.5 32.6-26.8 38.9-1.3.5-2 2-1.5 3.3.5 1.3 2 2 3.3 1.5 18.3-7.1 30.1-24.2 30.1-43.7 0-12.6-5.2-24.9-14.4-33.7zM31 51.5c-2-2.5-3.1-5.4-3.1-8.4 0-8.9 9.5-16.2 21.3-16.2s21.3 7.3 21.3 16.2c0 8.9-9.5 16.2-21.3 16.2-.7 0-1.4 0-2.1-.1-1.1-.1-2.1.5-2.5 1.5l-2.4 5.1-11-14c-.1-.1-.1-.2-.2-.3z" fill="url(#paint0_linear)"/><defs><linearGradient id="paint0_linear" x1="13.514" y1="100.937" x2="79.46" y2="11.717" gradientUnits="userSpaceOnUse"><stop stop-color="#BF0487"/><stop offset="1" stop-color="#04ADBF"/></linearGradient></defs></svg>