<svg width="100" height="100" fill="none" xmlns="http://www.w3.org/2000/svg"><g clip-path="url(#clip0)"><path d="M84.573 14.166C74.656 4.488 61.708-.561 48.072 0 22.314 1.262 1.24 22.721 0 48.948c-.689 22.3 12.534 42.497 33.058 50.07 1.653.561 3.306.982 4.959.982 2.892 0 5.647-.841 8.126-2.665 4.133-2.945 6.612-7.713 6.612-12.763v-8.555H68.32c1.515 0 2.754-1.262 2.754-2.805V21.319c0-1.543-1.24-2.805-2.754-2.805H40.77c-.688 0-1.377.28-1.928.841L29.2 29.173a2.794 2.794 0 00-.826 1.963v42.076c0 .701.275 1.403.826 1.963.551.562 1.24.842 1.928.842l16.116-.14v8.695c0 3.226-1.515 6.312-4.27 8.135-2.48 1.683-5.372 2.104-8.127 1.122C16.668 86.957 4.822 69.004 5.51 49.23 6.612 25.807 25.344 6.732 48.347 5.61c12.121-.56 23.692 3.927 32.37 12.623C89.393 26.788 94.49 38.71 94.49 50.912c0 18.934-11.294 35.624-28.787 42.496-1.378.561-2.067 2.244-1.516 3.647.551 1.402 2.204 2.104 3.582 1.543C87.328 90.884 100 72.09 100 50.912c0-13.745-5.647-27.21-15.427-36.746zm-50.689 56.24V32.399l7.99-8.134h23.69v46.283H51.792c-.276 0-.413 0-.689.14a2.559 2.559 0 00-1.102-.28H33.884z" fill="url(#paint0_linear)"/><path d="M40.771 39.551h19.284c1.515 0 2.755-1.262 2.755-2.805 0-1.542-1.24-2.805-2.755-2.805H40.771c-1.515 0-2.754 1.263-2.754 2.805 0 1.543 1.24 2.805 2.754 2.805z" fill="url(#paint1_linear)"/><path d="M40.771 47.967h19.284c1.515 0 2.755-1.263 2.755-2.806 0-1.542-1.24-2.805-2.755-2.805H40.771c-1.515 0-2.754 1.263-2.754 2.805 0 1.543 1.24 2.806 2.754 2.806z" fill="url(#paint2_linear)"/><path d="M62.81 53.577c0-1.543-1.24-2.805-2.755-2.805H40.771c-1.515 0-2.754 1.262-2.754 2.805 0 1.542 1.24 2.805 2.754 2.805h19.284c1.515 0 2.755-1.122 2.755-2.805z" fill="url(#paint3_linear)"/></g><defs><linearGradient id="paint0_linear" x1="-13.799" y1="119.48" x2="78.506" y2="24.14" gradientUnits="userSpaceOnUse"><stop stop-color="#BF0487"/><stop offset="1" stop-color="#04ADBF"/></linearGradient><linearGradient id="paint1_linear" x1="-20.621" y1="112.875" x2="71.683" y2="17.535" gradientUnits="userSpaceOnUse"><stop stop-color="#BF0487"/><stop offset="1" stop-color="#04ADBF"/></linearGradient><linearGradient id="paint2_linear" x1="-16.494" y1="116.87" x2="75.81" y2="21.53" gradientUnits="userSpaceOnUse"><stop stop-color="#BF0487"/><stop offset="1" stop-color="#04ADBF"/></linearGradient><linearGradient id="paint3_linear" x1="-12.367" y1="120.866" x2="79.937" y2="25.526" gradientUnits="userSpaceOnUse"><stop stop-color="#BF0487"/><stop offset="1" stop-color="#04ADBF"/></linearGradient><clipPath id="clip0"><path fill="#fff" d="M0 0h100v100H0z"/></clipPath></defs></svg>