<svg width="70" height="70" fill="none" xmlns="http://www.w3.org/2000/svg"><g clip-path="url(#clip0)"><path d="M59.201 9.918C52.26 3.144 43.196-.391 33.651.002 15.62.886.867 15.907 0 34.266c-.482 15.61 8.774 29.747 23.14 35.049 1.157.393 2.314.687 3.472.687a9.412 9.412 0 005.688-1.865c2.893-2.062 4.628-5.4 4.628-8.934v-5.204h8.967c.772 0 1.447-.392 1.736-1.08a2.004 2.004 0 00-.29-2.061c-3.953-5.204-2.024-10.21.29-16.003 2.41-6.087 5.206-12.96-.29-19.832-.385-.49-.964-.687-1.542-.687H25.55c-.771 0-1.446.393-1.736 1.08a2.004 2.004 0 00.29 2.062c4.05 5.105 2.024 10.112-.29 15.904-2.41 6.087-5.206 12.96.29 19.832.385.49.964.687 1.542.687h7.425v5.302c0 2.258-1.061 4.418-2.99 5.694-1.735 1.178-3.76 1.473-5.688.785-12.727-4.81-21.02-17.377-20.537-31.22C4.628 18.067 17.74 4.715 33.843 3.93c8.485-.392 16.584 2.75 22.658 8.836 6.075 5.989 9.642 14.334 9.642 22.875 0 13.254-7.906 24.937-20.151 29.748-.964.393-1.447 1.57-1.06 2.552.385.982 1.542 1.473 2.506 1.08C61.129 63.62 70 50.465 70 35.64c0-9.621-3.953-19.046-10.799-25.722zm-14.27 8.247a8.452 8.452 0 011.543 3.632H30.179c-.193-1.178-.482-2.454-1.06-3.632H44.93zm-14.752 7.56H46.57c-.385 2.454-1.35 4.908-2.41 7.56-.482 1.079-.868 2.257-1.35 3.435h-1.35c-.482-1.669-2.025-2.945-3.76-2.945-2.218 0-3.953 1.767-3.953 4.025 0 1.08-.868 1.866-1.832 1.866-1.061 0-1.832-.884-1.832-1.866 0-.981.867-1.865 1.832-1.865.578 0 1.06-.491 1.06-1.08 0-.59-.482-1.08-1.06-1.08-1.832 0-3.375 1.276-3.76 2.945h-1.543c.289-.687.482-1.276.77-1.963 1.158-2.75 2.411-5.793 2.797-9.032zm-3.567 24.347c-2.507-3.632-2.025-7.265-.675-11.29.192.098.385.196.578.196h1.64c.481 1.67 2.024 2.946 3.76 2.946 2.217 0 3.953-1.767 3.953-4.026 0-1.08.867-1.865 1.832-1.865 1.06 0 1.832.884 1.832 1.865 0 .982-.868 1.866-1.832 1.866-.579 0-1.06.49-1.06 1.08 0 .589.481 1.08 1.06 1.08 1.832 0 3.374-1.277 3.76-2.946h.579c-1.061 3.535-1.447 7.265.289 11.094H26.612z" fill="url(#paint0_linear)"/></g><defs><linearGradient id="paint0_linear" x1="6.138" y1="79.377" x2="47.225" y2="19.582" gradientUnits="userSpaceOnUse"><stop stop-color="#BF0487"/><stop offset="1" stop-color="#04ADBF"/></linearGradient><clipPath id="clip0"><path fill="#fff" d="M0 0h70v70H0z"/></clipPath></defs></svg>