<svg width="100" height="100" fill="none" xmlns="http://www.w3.org/2000/svg"><g clip-path="url(#clip0)"><path d="M84.573 14.166C74.656 4.488 61.708-.561 48.072 0 22.314 1.262 1.24 22.721 0 48.948c-.689 22.3 12.534 42.497 33.058 50.07 1.653.561 3.306.982 4.959.982 2.341 0 4.545-.56 6.749-1.823 3.857-2.104 6.75-5.89 7.713-10.239.413-1.683.551-7.293-1.377-9.677l-5.647-6.592 2.892-6.311h.689c15.564 0 28.374-10.379 28.374-23.282S64.738 18.794 49.036 18.794c-15.703 0-28.513 10.66-28.513 23.422 0 4.348 1.515 8.696 4.27 12.342 0 .14.138.14.138.28L39.67 73.914v.14l6.75 7.855c.413.841.55 3.787.275 4.909-.55 2.805-2.48 5.189-4.959 6.451-2.203 1.262-4.82 1.403-7.162.561C16.667 86.957 4.821 69.004 5.51 49.23 6.612 25.807 25.344 6.732 48.347 5.61c12.121-.56 23.691 3.927 32.37 12.623C89.393 26.788 94.49 38.71 94.49 50.912c0 18.934-11.294 35.624-28.787 42.496-1.378.561-2.067 2.244-1.516 3.647.551 1.402 2.204 2.104 3.582 1.543C87.328 90.884 100 72.09 100 50.912c0-13.745-5.647-27.21-15.427-36.746zM29.477 51.333c-2.204-2.805-3.306-5.891-3.306-9.117 0-9.677 10.193-17.672 22.865-17.672 12.672 0 22.865 7.995 22.865 17.672 0 9.678-10.193 17.672-22.865 17.672-.689 0-1.515 0-2.204-.14-1.102-.14-2.204.56-2.755 1.543l-2.617 5.47-11.846-15.288c0 .14-.137 0-.137-.14z" fill="url(#paint0_linear)"/></g><defs><linearGradient id="paint0_linear" x1="3.004" y1="120.878" x2="76.622" y2="15.572" gradientUnits="userSpaceOnUse"><stop stop-color="#BF0487"/><stop offset="1" stop-color="#04ADBF"/></linearGradient><clipPath id="clip0"><path fill="#fff" d="M0 0h100v100H0z"/></clipPath></defs></svg>