<svg width="100" height="100" fill="none" xmlns="http://www.w3.org/2000/svg"><g clip-path="url(#clip0)"><path d="M84.573 14.166C74.656 4.488 61.708-.561 48.072 0 22.314 1.262 1.24 22.721 0 48.948c-.689 22.3 12.534 42.497 33.058 50.07 1.653.561 3.306.982 4.959.982 2.892 0 5.647-.841 8.126-2.665 3.306-2.384 5.51-5.75 6.336-9.677 1.378-3.366 5.097-12.763 5.785-18.934.276-2.244.276-3.927 0-5.33.276.14.414.14.69.14l14.6 1.824h.275c.964 0 1.79-.42 2.204-1.262.551-.842.689-1.964.138-2.946L64.325 38.57l-.138-.14 1.24-10.8c0-.561 0-1.122-.275-1.683L59.78 15.568c-.414-.841-1.24-1.402-2.066-1.402-.965-.14-1.791.28-2.342.982l-7.576 8.835c-.413.421-.55.982-.688 1.543l-1.24 11.22L29.477 54.98c-.69.842-.965 1.824-.551 2.805.413.982 1.24 1.683 2.204 1.824l14.875 2.103c-.55 1.403-.964 3.086-1.24 5.47-.826 7.013 1.378 18.794 1.791 20.758-.688 1.823-1.928 3.506-3.58 4.768-2.48 1.683-5.373 2.104-7.99 1.122-18.32-6.872-30.165-24.825-29.476-44.6C6.612 25.807 25.344 6.732 48.347 5.61c12.121-.56 23.692 3.927 32.37 12.623C89.393 26.788 94.49 38.71 94.49 50.912c0 18.934-11.294 35.624-28.787 42.496-1.378.561-2.067 2.244-1.516 3.647.551 1.402 2.204 2.104 3.582 1.543C87.328 90.884 100 72.09 100 50.912c0-13.745-5.647-27.21-15.427-36.746zM52.755 68.163c-.276 2.524-1.24 5.75-2.204 8.836-.276-3.226-.551-6.592-.276-9.117.276-2.805.69-3.786.965-4.207h.826c.276 0 .551 0 .689.14.138.42.413 1.543 0 4.348zm16.391-8.976l-6.611-.842 1.24-9.397 5.371 10.239zM57.025 22.02l3.168 6.03-3.168 29.314-7.438-.842 1.928-18.093 1.24-11.22 4.27-5.19zM45.04 46.283l-1.1 9.397-6.611-.841 7.713-8.556z" fill="url(#paint0_linear)"/></g><defs><linearGradient id="paint0_linear" x1="49.997" y1="127.16" x2="49.997" y2="29.358" gradientUnits="userSpaceOnUse"><stop stop-color="#BF0487"/><stop offset="1" stop-color="#04ADBF"/></linearGradient><clipPath id="clip0"><path fill="#fff" d="M0 0h100v100H0z"/></clipPath></defs></svg>