<svg width="70" height="70" fill="none" xmlns="http://www.w3.org/2000/svg"><g clip-path="url(#clip0)"><path d="M59.2 9.914C52.258 3.14 43.195-.394 33.65-.002 15.62.882.867 15.903 0 34.262c-.483 15.61 8.773 29.748 23.14 35.05 1.157.392 2.314.686 3.47.686a9.416 9.416 0 005.69-1.865c2.892-2.062 4.628-5.4 4.628-8.934v-6.48l21.019-15.61.096-.098c.097 0 .097-.098.193-.098l.097-.098c0-.099.096-.099.096-.197s.096-.098.096-.196.097-.098.097-.197c0-.098 0-.098.096-.196 0-.098 0-.098.097-.196v-.786c0-.098 0-.098-.097-.196 0-.098 0-.098-.096-.196 0-.099-.096-.099-.096-.197s-.097-.098-.097-.196l-8.388-11.389c-.097-.098-.097-.196-.193-.196l-.097-.098c-.096-.098-.192-.196-.289-.196-.096-.099-.29-.099-.386-.099H21.115c-.096 0-.29.099-.386.099-.096.098-.192.098-.289.196l-.096.098c-.097.098-.193.098-.193.197L11.57 34.457c0 .099-.097.099-.097.197s-.096.098-.096.196 0 .098-.097.196c0 .099 0 .099-.096.197v.786c0 .098 0 .098.096.196 0 .099 0 .099.097.197 0 .098.096.098.096.196s.097.098.097.197c0 .098.096.098.096.196l.096.098c0 .098.097.098.193.098l.097.098 21.115 15.61v6.48c0 2.258-1.06 4.418-2.989 5.694-1.735 1.179-3.76 1.473-5.592.786a32.428 32.428 0 01-20.73-31.417C4.627 18.063 17.74 4.711 33.842 3.925c8.485-.392 16.584 2.75 22.659 8.836 6.074 5.989 9.642 14.334 9.642 22.875 0 13.254-7.907 24.937-20.152 29.748-.964.393-1.446 1.57-1.06 2.553.385.981 1.542 1.472 2.506 1.08C61.13 63.616 70 50.46 70 35.636c0-9.622-3.953-19.047-10.798-25.723zM21.115 27.881l2.796 5.694H16.97l4.146-5.695zm31.915 5.792h-6.943l2.797-5.694 4.146 5.694zM35 47.319l-4.822-9.817h9.642L35 47.319zm9.16-9.719h6.845l-10.703 7.952L44.16 37.6zm-2.411-3.927H28.25l-3.664-7.462h20.827l-3.664 7.462zM25.839 37.6l3.857 7.952L18.994 37.6h6.846z" fill="url(#paint0_linear)"/></g><defs><linearGradient id="paint0_linear" x1="34.997" y1="91.676" x2="34.997" y2="-5.301" gradientUnits="userSpaceOnUse"><stop stop-color="#BF0487"/><stop offset="1" stop-color="#04ADBF"/></linearGradient><clipPath id="clip0"><path fill="#fff" d="M0 0h70v70H0z"/></clipPath></defs></svg>