<svg width="100" height="100" fill="none" xmlns="http://www.w3.org/2000/svg"><path d="M82.3 17.4C73.1 8.6 61.1 4 48.3 4.5 24.3 5.6 4.6 25.2 3.5 49.3c-.7 20.5 11.7 38.9 30.8 45.9 1.5.6 3.1.9 4.6.9 2.6 0 5.3-.8 7.6-2.4 3.9-2.7 6.2-7 6.2-11.7v-1.1c4.4-1.1 7.6-5.1 7.6-9.9v-7.6c0-.8-.4-1.6-1-2.1.7-1.4 1-2.9 1-4.4v-3c0-.9.4-1.7 1-2.2 3.8-3.3 6-8 6-13 0-4.7-1.9-9.1-5.3-12.3-3.4-3.3-7.8-5-12.5-4.8-8.9.3-16.2 7.6-16.5 16.5-.2 5.2 2 10.1 5.9 13.5.6.5 1 1.4 1 2.2v2.7c0 1.6.4 3.2 1.1 4.7-.7.5-1.1 1.2-1.1 2.1V71c0 4.7 3.3 8.7 7.6 9.9V82c0 3-1.5 5.7-3.9 7.4-2.3 1.6-5 1.9-7.5 1C19.1 84.1 8 67.7 8.7 49.5c1-21.4 18.5-38.9 39.9-39.9 11.3-.5 22 3.6 30.2 11.5 8.2 7.8 12.8 18.8 12.8 30 0 17.3-10.5 32.6-26.8 38.9-1.3.5-2 2-1.5 3.3.5 1.3 2 2 3.3 1.5 18.3-7.1 30.1-24.3 30.1-43.7.1-12.6-5.2-24.9-14.4-33.7zM38.1 38.3c.2-6.2 5.4-11.3 11.5-11.6 3.3-.1 6.4 1.1 8.8 3.3 2.4 2.3 3.7 5.4 3.7 8.6 0 3.5-1.5 6.8-4.2 9.1-1.7 1.5-2.7 3.7-2.7 6.1v3c0 1.5-.7 3-1.9 3.9H47c-1.2-1-2-2.6-2-4.2v-2.7c0-2.4-1-4.6-2.8-6.1-2.7-2.3-4.2-5.8-4.1-9.4zm7 32.7v-5.1h10.1V71c0 2.8-2.3 5.1-5.1 5.1s-5-2.3-5-5.1z" fill="url(#paint0_linear)"/><defs><linearGradient id="paint0_linear" x1="19.706" y1="103.617" x2="81.854" y2="-3.201" gradientUnits="userSpaceOnUse"><stop stop-color="#BF0487"/><stop offset="1" stop-color="#04ADBF"/></linearGradient></defs></svg>