<svg width="100" height="100" fill="none" xmlns="http://www.w3.org/2000/svg"><path d="M48.5 51.4c.1 0 .1.1.2.1.1.1.2.1.3.2.1 0 .1.1.2.1.1.1.2.1.4.1h.1c.2 0 .4.1.5.1h.7c.1 0 .2-.1.3-.1.1 0 .1 0 .2-.1.1 0 .2-.1.2-.1.1 0 .1-.1.2-.1 0 0 .1 0 .1-.1l4.2-3.3c1.1-.9 1.3-2.5.4-3.6s-2.5-1.3-3.6-.4v-2.4c0-1.4-1.1-2.6-2.6-2.6-1.4 0-2.6 1.1-2.6 2.6v8.4c0 .1 0 .2.1.2 0 .1.1.2.1.2 0 .1.1.1.1.2s.1.2.1.2 0 .1.1.1l.1.1c0 .1.1.1.2.2z" fill="url(#paint0_linear)"/><path d="M82.3 17.5C73.1 8.7 61 4.1 48.3 4.6 24.3 5.7 4.7 25.3 3.6 49.4c-.7 20.4 11.7 38.8 30.8 45.8 1.5.6 3.1.9 4.6.9 2.6 0 5.3-.8 7.6-2.4 3.9-2.7 6.2-7 6.2-11.6V65.8c8.9-1.3 15.8-8.9 15.8-18.1 0-4.4-1.5-8.4-4.1-11.5l.9-.9c.5.3 1 .5 1.5.5.7 0 1.3-.3 1.8-.8 1-1 1-2.6 0-3.6l-3.3-3.3c-1-1-2.6-1-3.6 0s-1 2.5-.1 3.5l-1 1c-2.3-1.6-5-2.7-7.9-3.1v-.7c1.2-.2 2.1-1.3 2.1-2.5v-3.4c0-1.4-1.1-2.6-2.6-2.6H48c-1.4 0-2.6 1.1-2.6 2.6v3.4c0 1.3.9 2.3 2.1 2.5v.7c-8.9 1.3-15.8 8.9-15.8 18.1 0 9.2 6.9 16.9 15.8 18.1V82c0 2.9-1.5 5.7-3.9 7.4-2.3 1.6-5 1.9-7.5 1-17-6.2-28-22.6-27.4-40.8 1-21.4 18.5-38.9 39.8-39.8 11.3-.5 22 3.6 30.2 11.5C86.9 29 91.6 40 91.6 51.2c0 17.3-10.5 32.6-26.8 38.9-1.3.5-2 2-1.5 3.3.5 1.3 2 2 3.3 1.5 18.3-7.1 30.1-24.2 30.1-43.7 0-12.6-5.2-24.9-14.4-33.7zm-45.4 30c0-7.3 5.9-13.2 13.2-13.2 7.3 0 13.2 5.9 13.2 13.2 0 7.3-5.9 13.2-13.2 13.2-7.2 0-13.2-6-13.2-13.2z" fill="url(#paint1_linear)"/><defs><linearGradient id="paint0_linear" x1="30.5" y1="79.5" x2="78.5" y2="8.5" gradientUnits="userSpaceOnUse"><stop stop-color="#BF0487"/><stop offset="1" stop-color="#04ADBF"/></linearGradient><linearGradient id="paint1_linear" x1="20" y1="107" x2="87" y2="5" gradientUnits="userSpaceOnUse"><stop stop-color="#BF0487"/><stop offset="1" stop-color="#04ADBF"/></linearGradient></defs></svg>