<svg width="958" height="959" fill="none" xmlns="http://www.w3.org/2000/svg"><path d="M958 416.427l-10.356-38.898.182-.545-.182-.182-21.983-82.158v-.182l-30.159-52.167v-.364l-.363-.182-32.521-56.347v-.182l-59.955-59.983v-.363l-.545-.182-28.705-28.72-109.372-63.254-50.507-13.633-.363-.363-.182.182L542.134.364h-64.678L477.274 0l-.363.364h-60.863L337.017 21.63l-.182-.182-.363.364-42.15 11.27h-.182L184.951 96.154h-.182l-30.522 30.537-.364.182v.182l-57.956 57.983-37.426 64.891-.363.182v.363l-25.436 43.988v.182l-19.984 74.524-.182.182v.545L0 416.245v126.328l14.898 55.439v.545h.181l17.623 65.8v.181l29.433 50.895v.364l.363.181 33.248 57.802v.182l63.769 63.8v.363l.364-.181 24.89 24.902L294.14 926.1l44.694 11.997.363.363.182-.181 76.305 20.539h58.865l.363.364.364-.364h66.676l78.486-21.085.363.182.364-.363 42.513-11.452h.182l109.189-63.073h.182l29.251-29.264.545-.182v-.363l59.228-59.256 33.61-58.165.364-.182v-.364l29.069-50.349v-.182l21.983-82.34.363-.182-.181-.545 10.355-38.898.182-126.328zm-1.817 61.619l-30.885.545 21.438-97.245 9.447 35.445v61.255zM580.287 302.459l101.559 176.132-206.207-.545 104.648-175.587zM474.004 477.137l-98.471-175.405h203.119L474.004 477.137zM374.08 302.641l98.289 175.405-200.03.545 101.741-175.95zm98.289 177.223l-98.471 176.495-101.559-175.95 200.03-.545zm-96.836 177.404l98.471-176.496 104.648 176.496H375.533zm204.754-.909L475.639 479.864l206.389.545-101.741 175.95zm1.635-354.627l171.869 15.087-70.492 160.5-101.377-175.587zm-206.207-1.999l95.2-140.869L578.47 299.733H375.715zm-104.83 177.768l-82.846-160.682 184.406-15.087-101.56 175.769zm101.378 179.585L190.038 636.91l80.847-155.592 101.378 175.768zm206.207 1.999L472.914 794.683l-97.199-135.598H578.47zm104.829-177.586L755.79 636.91l-173.868 20.176 101.377-175.587zm71.946-163.226l76.851 160.318H684.935l70.31-160.318zM581.74 299.915l72.491-126.328 99.015 141.414-171.506-15.086zm-1.453-.909L472.914 158.319l179.863 14.177-72.49 126.51zm-206.207 0l-78.668-122.329L469.098 158.5 374.08 299.006zm-1.635.909l-183.861 15.086 105.011-137.415 78.85 122.329zM269.432 478.591h-153.52l70.855-160.318 82.665 160.318zm0 1.818l-80.666 155.229-72.854-155.229h153.52zm103.013 178.495l-80.848 123.419-101.014-143.596 181.862 20.177zm1.635.908l97.017 135.416-177.865-12.178 80.848-123.238zm206.207 0l72.49 121.239-177.865 14.177 105.375-135.416zm1.453-.908l173.505-20.177-101.014 141.415-72.491-121.238zm103.195-178.495h147.161l-74.671 155.047-72.49-155.047zm71.763-163.045l118.819 26.175-42.331 133.416-76.488-159.591zM656.411 173.405l133.171 33.809-34.701 107.06-98.47-140.869zm-183.679-16.722l76.487-88.52 102.65 102.698-179.137-14.178zm-176.775 18.176l96.654-106.697 76.487 88.521-173.141 18.176zM186.949 314.274l-36.154-106.697 140.802-30.173-104.648 136.87zM114.64 476.955L70.31 343.539l114.641-26.175-70.311 159.591zm72.491 159.41l-116.64-22.176 44.331-132.326 72.309 154.502zm102.286 146.14l-138.622-36.353 38.152-106.697 100.47 143.05zm181.68 14.541l-76.487 92.701L293.959 785.05l177.138 11.996zm180.772-13.996l-102.65 104.698-74.489-90.702 177.139-13.996zM756.88 639.636l36.154 108.697-136.805 32.172L756.88 639.636zm76.306-157.773l40.333 128.691-114.641 25.629 74.308-154.32zm43.603-136.143l46.147 132.871h-88.115l41.968-132.871zm-120.454-30.355l34.701-107.242 4.542 5.271 79.212 127.964-118.455-25.993zM655.684 171.224l41.968-71.98 90.477 105.607-132.445-33.627zm-1.635-.909L551.945 68.162l144.072 29.992-41.968 72.161zm-183.134-14.359L394.61 67.617h152.611l-76.306 88.339zm-176.956 18.358l-42.15-78.16 138.259-27.992-96.109 106.152zm-43.604-77.069l42.15 78.16-140.439 29.991 98.289-108.15zm-64.859 218.12L71.037 341.539l78.304-132.508 36.155 106.334zm-72.309 163.226H27.252L69.22 345.902l43.967 132.689zm0 1.818L69.22 612.008 27.252 480.409h85.935zm74.307 157.955l-38.153 106.515-78.304-128.691 116.457 22.176zm102.831 146.14l-41.968 74.161-96.109-110.151 138.077 35.99zm1.454.909l100.105 104.152-142.074-29.991 41.969-74.161zm181.135 12.36l74.307 90.52-150.613 1.999 76.306-92.519zm181.135-14.359l37.971 74.16-140.075 29.992 102.104-104.152zm39.606 73.252l-37.971-73.979 136.079-31.991-98.108 105.97zm64.678-218.302l114.822-25.629-1.453 3.999-77.214 130.145-36.155-108.515zm76.306-157.955h88.115L874.79 608.554l-40.151-128.145zm43.603-135.78l67.222 33.264-21.62 98.153-45.602-131.417zm-81.211-132.144l-3.452-3.999 99.561 34.718-17.078 97.426-79.031-128.145zm-97.017-113.24l100.288 27.083-10.356 77.978-89.932-105.062zM551.4 66.345l61.407-44.897 81.757 74.706L551.4 66.344zm-156.245-.546l81.937-63.436 69.766 63.436H395.155zM253.807 93.974l82.847-70.343 53.777 42.533-136.624 27.81zM150.613 204.306l4.905-76.161 91.931-30.718-96.836 106.879zM69.765 340.085l-9.992-88.702 87.388-42.352-77.396 131.054zM26.344 475.138l-11.991-104.88 53.232-25.629-41.241 130.509zm41.423 138.506l-51.052-16.359 9.629-113.241 41.423 129.6zm79.576 131.417L63.77 714.524l5.995-96.518 77.578 127.055zm98.47 113.604L161.15 836.49l-10.355-86.885 95.018 109.06zm146.798 32.9l-53.414 44.351-87.57-74.161 140.984 29.81zm154.247-1.636l-71.946 66.526-77.759-64.527 149.705-1.999zm143.89-30.355L620.62 935.37l-69.22-45.987 139.348-29.809zm102.831-108.515l7.449 81.068-104.829 24.539 97.38-105.607zm79.94-133.78l.908-2.726 19.803 99.426-97.925 33.081 77.214-129.781zm50.325-134.689l21.62 98.336-69.22 28.719 47.6-127.055zm-.182-187.401l21.62 80.522-67.403-33.263 17.078-97.245 28.705 49.986zm-31.43-54.348L791.763 205.76l10.355-78.342 58.683 58.711 31.431 54.712zm-93.929-117.058l-99.561-26.72 14.535-33.445 58.682 33.99 26.344 26.175zm-86.661-61.255l-14.535 33.445-81.029-74.161 47.055 12.542 48.509 28.174zM610.809 20.54l-61.59 44.896L479.454 2.18h62.317l69.038 18.359zM416.229 2.18h58.32l-81.756 63.437-.182-.182h-.182L338.652 22.72l77.577-20.54zM294.867 34.717L333.02 24.54l-82.301 69.798-17.078-24.175 61.226-35.445zm-108.826 62.71l45.783-26.538 17.078 24.175-90.84 30.355 27.979-27.992zM97.199 186.31l56.502-56.53-4.905 76.524-87.57 42.352L97.2 186.311zM34.338 295.189l23.981-41.443 9.993 88.702-53.596 25.629 19.622-72.888zM13.08 374.621l11.81 103.97-23.074-.545v-61.437l11.264-41.988zM1.817 542.391v-62.527l23.073.545-9.629 112.15-13.444-50.168zm32.52 121.42l-17.26-64.527 51.235 16.359-5.996 96.518-27.978-48.35zm30.704 53.076l83.392 30.537.363.182 10.356 87.066-61.953-61.983-32.157-55.802zm229.826 207.396l-108.826-62.71-22.71-22.721 84.663 22.176 87.569 74.161-40.696-10.906zm121.362 32.536l-75.033-20.176 53.414-44.533 77.759 64.527h-56.14v.182zm125.542 0h-64.497l71.764-66.527.181-.181 69.221 45.987-76.669 20.721zm121.362-32.536l-39.606 10.542 69.583-75.251 18.35 36.717-48.327 27.992zm108.826-62.71l-58.864 33.991-18.531-36.717 104.284-24.357-26.889 27.083zm88.842-88.884l-58.138 58.166-7.448-81.25 97.925-33.081-32.339 56.165zm62.861-108.878l-27.978 48.35-19.985-100.153h.182v-.182l69.401-28.901-21.62 80.886zm23.074-86.157l-21.438-97.245 30.885-.545v62.527l-9.447 35.263z" fill="url(#paint0_radial)"/><defs><radialGradient id="paint0_radial" cx="0" cy="0" r="1" gradientUnits="userSpaceOnUse" gradientTransform="matrix(479.12 0 0 479.347 478.976 479.491)"><stop stop-color="#BF0487"/><stop offset=".975" stop-color="#04ADBF"/></radialGradient></defs></svg>