<svg width="36" height="48" fill="none" xmlns="http://www.w3.org/2000/svg"><mask id="a" maskUnits="userSpaceOnUse" x="0" y="0" width="36" height="48"><path d="M20 2a2 2 0 012-2h12a2 2 0 012 2v44a2 2 0 01-2 2H2a2 2 0 01-2-2V26a2 2 0 012-2h8V14a2 2 0 012-2h8V2z" fill="#fff"/></mask><g mask="url(#a)"><path d="M36 0v48H20V0h16z" fill="url(#paint0_linear)"/><g filter="url(#filter0_f)"><path d="M26 14.2v34H10v-36h14a2 2 0 012 2z" fill="#000" fill-opacity=".2"/></g><g filter="url(#filter1_f)"><path d="M26 15v34H10V13h14a2 2 0 012 2z" fill="#000" fill-opacity=".18"/></g><path d="M26 14v34H10V12h14a2 2 0 012 2z" fill="url(#paint1_linear)"/><path d="M0 24v24h16V26a2 2 0 00-2-2H0z" fill="url(#paint2_linear)"/></g><defs><linearGradient id="paint0_linear" x1="17.333" y1="0" x2="38.433" y2="44.723" gradientUnits="userSpaceOnUse"><stop stop-color="#E6AD10"/><stop offset="1" stop-color="#C87E0E"/></linearGradient><linearGradient id="paint1_linear" x1="9.999" y1="12" x2="27.743" y2="46.413" gradientUnits="userSpaceOnUse"><stop stop-color="#F6D751"/><stop offset="1" stop-color="#E6AD10"/></linearGradient><linearGradient id="paint2_linear" x1="-.001" y1="24" x2="9.804" y2="47.239" gradientUnits="userSpaceOnUse"><stop stop-color="#F9E589"/><stop offset="1" stop-color="#F6D751"/></linearGradient><filter id="filter0_f" x="9.6" y="11.799" width="16.8" height="36.8" filterUnits="userSpaceOnUse" color-interpolation-filters="sRGB"><feFlood flood-opacity="0" result="BackgroundImageFix"/><feBlend in="SourceGraphic" in2="BackgroundImageFix" result="shape"/><feGaussianBlur stdDeviation=".2" result="effect1_foregroundBlur"/></filter><filter id="filter1_f" x="6" y="9" width="24" height="44" filterUnits="userSpaceOnUse" color-interpolation-filters="sRGB"><feFlood flood-opacity="0" result="BackgroundImageFix"/><feBlend in="SourceGraphic" in2="BackgroundImageFix" result="shape"/><feGaussianBlur stdDeviation="2" result="effect1_foregroundBlur"/></filter></defs></svg>