<svg width="48" height="48" fill="none" xmlns="http://www.w3.org/2000/svg"><mask id="a" maskUnits="userSpaceOnUse" x="0" y="0" width="48" height="48"><path d="M.742 22.024a3 3 0 000 3.95L18.51 46.28a2 2 0 003.01 0l1.913-2.187 2.107 2.299a2 2 0 002.948 0l18.668-20.365a3 3 0 000-4.054L28.487 1.608a2 2 0 00-2.948 0l-2.107 2.298-1.913-2.187a2 2 0 00-3.01 0L.742 22.024z" fill="#fff"/></mask><g mask="url(#a)"><path d="M20.014 48l-21-24 21-24 21 24-21 24z" fill="url(#paint0_linear)"/><g filter="url(#filter0_f)"><path d="M27.013 1l22 24-22 24-9.761-10.649a2 2 0 010-2.703l8.522-9.297a2 2 0 000-2.703l-8.522-9.297a2 2 0 010-2.703L27.013 1z" fill="#000" fill-opacity=".32"/></g><g filter="url(#filter1_f)"><path d="M27.013.19l22 24-22 24-9.761-10.65a2 2 0 010-2.702l8.522-9.297a2 2 0 000-2.703l-8.522-9.297a2 2 0 010-2.703L27.013.189z" fill="#000" fill-opacity=".24"/></g><path d="M27.013 0l22 24-22 24-9.761-10.649a2 2 0 010-2.703l8.522-9.297a2 2 0 000-2.703l-8.522-9.297a2 2 0 010-2.703L27.013 0z" fill="url(#paint1_linear)"/><path d="M36.54 13.607a2 2 0 012.948 0L49.014 24l-9.526 10.392a2 2 0 01-2.949 0l-7.667-8.365a3 3 0 010-4.054l7.667-8.365z" fill="url(#paint2_linear)"/></g><defs><linearGradient id="paint0_linear" x1="35.514" y1="48" x2="7.514" y2="-20.5" gradientUnits="userSpaceOnUse"><stop stop-color="#742774"/><stop offset="1" stop-color="#BB35A4"/></linearGradient><linearGradient id="paint1_linear" x1="16.014" y1="0" x2="39.014" y2="48" gradientUnits="userSpaceOnUse"><stop stop-color="#E48CC7"/><stop offset="1" stop-color="#D467B9"/></linearGradient><linearGradient id="paint2_linear" x1="31.014" y1="14.499" x2="38.014" y2="35.999" gradientUnits="userSpaceOnUse"><stop stop-color="#E9A1CB"/><stop offset="1" stop-color="#E48CC7"/></linearGradient><filter id="filter0_f" x="12.726" y="-3" width="40.287" height="56" filterUnits="userSpaceOnUse" color-interpolation-filters="sRGB"><feFlood flood-opacity="0" result="BackgroundImageFix"/><feBlend in="SourceGraphic" in2="BackgroundImageFix" result="shape"/><feGaussianBlur stdDeviation="2" result="effect1_foregroundBlur"/></filter><filter id="filter1_f" x="16.346" y="-.191" width="33.047" height="48.76" filterUnits="userSpaceOnUse" color-interpolation-filters="sRGB"><feFlood flood-opacity="0" result="BackgroundImageFix"/><feBlend in="SourceGraphic" in2="BackgroundImageFix" result="shape"/><feGaussianBlur stdDeviation=".19" result="effect1_foregroundBlur"/></filter></defs></svg>