<svg width="49" height="46" fill="none" xmlns="http://www.w3.org/2000/svg"><mask id="a" maskUnits="userSpaceOnUse" x="0" y="0" width="49" height="46"><path d="M36 26a2 2 0 012-2h8.032a2 2 0 002-1.998l.025-20a2 2 0 00-2-2.002H14a2 2 0 00-2 2v10H2a2 2 0 00-2 2v20a2 2 0 002 2h8a2 2 0 012 2v6.379c0 1.336 1.616 2.005 2.561 1.06l8.854-8.853A2 2 0 0124.829 36H34a2 2 0 002-2v-8z" fill="#fff"/></mask><g mask="url(#a)"><path fill-rule="evenodd" clip-rule="evenodd" d="M0 12v24h10a2 2 0 012 2v10l11.415-11.414A2 2 0 0124.829 36H36V14a2 2 0 00-2-2H0z" fill="url(#paint0_linear)"/><g filter="url(#filter0_f)"><path fill-rule="evenodd" clip-rule="evenodd" d="M48.059 1l-.058 24H38a2 2 0 00-2 2v6.379c0 1.336-1.616 2.005-2.561 1.06l-8.854-8.853A2 2 0 0023.172 25H14a2 2 0 01-2-2V1h36.06z" fill="#000" fill-opacity=".32"/></g><g filter="url(#filter1_f)"><path fill-rule="evenodd" clip-rule="evenodd" d="M48.059.19l-.058 24H38a2 2 0 00-2 2v6.378c0 1.337-1.616 2.006-2.561 1.06l-8.854-8.853a2 2 0 00-1.414-.585H14a2 2 0 01-2-2v-22h36.06z" fill="#000" fill-opacity=".24"/></g><path fill-rule="evenodd" clip-rule="evenodd" d="M48.059 0l-.058 24H38a2 2 0 00-2 2v6.379c0 1.336-1.616 2.005-2.561 1.06l-8.854-8.853A2 2 0 0023.172 24H14a2 2 0 01-2-2V0h36.06z" fill="url(#paint1_linear)"/><path d="M48 0H12v8h36V0z" fill="#4CCBED"/><path d="M48 8H12v8h36V8z" fill="#17AAD2"/></g><defs><linearGradient id="paint0_linear" x1="5.5" y1="12" x2="28" y2="55.5" gradientUnits="userSpaceOnUse"><stop stop-color="#117B97"/><stop offset="1" stop-color="#0A4A5C"/></linearGradient><linearGradient id="paint1_linear" x1="26" y1="1.75" x2="40" y2="35.75" gradientUnits="userSpaceOnUse"><stop stop-color="#1392B4"/><stop offset="1" stop-color="#117B97"/></linearGradient><filter id="filter0_f" x="8" y="-3" width="44.059" height="41.882" filterUnits="userSpaceOnUse" color-interpolation-filters="sRGB"><feFlood flood-opacity="0" result="BackgroundImageFix"/><feBlend in="SourceGraphic" in2="BackgroundImageFix" result="shape"/><feGaussianBlur stdDeviation="2" result="effect1_foregroundBlur"/></filter><filter id="filter1_f" x="11.62" y="-.191" width="36.819" height="34.642" filterUnits="userSpaceOnUse" color-interpolation-filters="sRGB"><feFlood flood-opacity="0" result="BackgroundImageFix"/><feBlend in="SourceGraphic" in2="BackgroundImageFix" result="shape"/><feGaussianBlur stdDeviation=".19" result="effect1_foregroundBlur"/></filter></defs></svg>