<svg width="48" height="38" fill="none" xmlns="http://www.w3.org/2000/svg"><mask id="a" maskUnits="userSpaceOnUse" x="0" y="0" width="48" height="38"><path d="M30.637 0a2 2 0 011.49.666l15.21 17a2 2 0 010 2.668l-15.21 17a2 2 0 01-1.49.666H2.004C.275 38-.639 35.955.514 34.666L14.53 19 .513 3.334C-.639 2.045.275 0 2.004 0h28.633z" fill="#fff"/></mask><g mask="url(#a)"><path d="M31.53 0l-17 19-17-19h34z" fill="url(#paint0_linear)"/><g filter="url(#filter0_f)"><path d="M31.53.2l-34 38h34l17-19-17-19z" fill="#000" fill-opacity=".24"/></g><g filter="url(#filter1_f)"><path d="M31.53 1l-34 38h34l17-19-17-19z" fill="#000" fill-opacity=".32"/></g><path d="M-2.47 38l34-38 17 19-17 19h-34z" fill="url(#paint1_linear)"/><path d="M-2.47 38l34-38 8.5 9.5L14.53 38h-17z" fill="url(#paint2_linear)"/></g><defs><linearGradient id="paint0_linear" x1="21.531" y1="22.5" x2="14.531" y2="0" gradientUnits="userSpaceOnUse"><stop stop-color="#0D36A5"/><stop offset="1" stop-color="#1152D4"/></linearGradient><linearGradient id="paint1_linear" x1="23.031" y1="0" x2="23.031" y2="38" gradientUnits="userSpaceOnUse"><stop stop-color="#84CAFF"/><stop offset="1" stop-color="#61B1FB"/></linearGradient><linearGradient id="paint2_linear" x1="18.781" y1="0" x2="18.781" y2="38" gradientUnits="userSpaceOnUse"><stop stop-color="#3B90F5"/><stop offset="1" stop-color="#2A78EE"/></linearGradient><filter id="filter0_f" x="-2.869" y="-.201" width="51.8" height="38.8" filterUnits="userSpaceOnUse" color-interpolation-filters="sRGB"><feFlood flood-opacity="0" result="BackgroundImageFix"/><feBlend in="SourceGraphic" in2="BackgroundImageFix" result="shape"/><feGaussianBlur stdDeviation=".2" result="effect1_foregroundBlur"/></filter><filter id="filter1_f" x="-6.469" y="-3" width="59" height="46" filterUnits="userSpaceOnUse" color-interpolation-filters="sRGB"><feFlood flood-opacity="0" result="BackgroundImageFix"/><feBlend in="SourceGraphic" in2="BackgroundImageFix" result="shape"/><feGaussianBlur stdDeviation="2" result="effect1_foregroundBlur"/></filter></defs></svg>