<svg width="96" height="96" fill="none" xmlns="http://www.w3.org/2000/svg"><mask id="a" maskUnits="userSpaceOnUse" x="0" y="0" width="96" height="96"><path fill-rule="evenodd" clip-rule="evenodd" d="M0 48a9.004 9.004 0 006.914 8.757c3.43 16.168 16.16 28.9 32.329 32.329a9.004 9.004 0 0017.514 0c16.168-3.43 28.9-16.16 32.329-32.329a9.004 9.004 0 000-17.514c-3.43-16.168-16.16-28.9-32.329-32.329a9.004 9.004 0 00-17.514 0c-16.168 3.43-28.9 16.16-32.329 32.329A9.004 9.004 0 000 48z" fill="#8DF7DB"/></mask><g mask="url(#a)"><path d="M48 96c26.51 0 48-21.49 48-48S74.51 0 48 0 0 21.49 0 48s21.49 48 48 48z" fill="url(#paint0_linear)"/><path fill-rule="evenodd" clip-rule="evenodd" d="M52 17.064a9 9 0 10-8 0V23h8v-5.936z" fill="#9DF3F9"/><path fill-rule="evenodd" clip-rule="evenodd" d="M44 78.936a9 9 0 108 0V73h-8v5.936z" fill="#82EBF1"/><path fill-rule="evenodd" clip-rule="evenodd" d="M17.064 44a9 9 0 100 8H23v-8h-5.936z" fill="#9DF3F9"/><g filter="url(#filter0_f)" fill="#000" fill-opacity=".32"><path d="M48 76c14.36 0 26-11.64 26-26S62.36 24 48 24 22 35.64 22 50s11.64 26 26 26z"/><path fill-rule="evenodd" clip-rule="evenodd" d="M59.317 54C57.67 58.66 53.225 62 48 62c-6.627 0-12-5.373-12-12s5.373-12 12-12c5.225 0 9.67 3.34 11.317 8H80v8H59.317z"/><path d="M87 59a9 9 0 110-18 9 9 0 010 18z"/></g><g filter="url(#filter1_f)" fill="#000" fill-opacity=".24"><path d="M48 74.38c14.36 0 26-11.64 26-26 0-14.358-11.64-26-26-26s-26 11.642-26 26c0 14.36 11.64 26 26 26z"/><path fill-rule="evenodd" clip-rule="evenodd" d="M59.317 52.38c-1.647 4.662-6.092 8-11.317 8-6.627 0-12-5.372-12-12 0-6.627 5.373-12 12-12 5.225 0 9.67 3.34 11.317 8H80v8H59.317z"/><path d="M87 57.38a9 9 0 110-17.999 9 9 0 010 18z"/></g><path d="M48 74c14.36 0 26-11.64 26-26S62.36 22 48 22 22 33.64 22 48s11.64 26 26 26z" fill="url(#paint1_linear)"/><path fill-rule="evenodd" clip-rule="evenodd" d="M59.317 52C57.67 56.66 53.225 60 48 60c-6.627 0-12-5.373-12-12s5.373-12 12-12c5.225 0 9.67 3.34 11.317 8H80v8H59.317z" fill="url(#paint2_linear)"/><path d="M87 57a9 9 0 110-18 9 9 0 010 18z" fill="url(#paint3_linear)"/></g><defs><linearGradient id="paint0_linear" x1="22.703" y1="11.351" x2="72.649" y2="84.649" gradientUnits="userSpaceOnUse"><stop stop-color="#009CA8"/><stop offset="1" stop-color="#007D85"/></linearGradient><linearGradient id="paint1_linear" x1="31.784" y1="26.27" x2="66.162" y2="83.351" gradientUnits="userSpaceOnUse"><stop stop-color="#36E3EE"/><stop offset="1" stop-color="#00B1BE"/></linearGradient><linearGradient id="paint2_linear" x1="31.135" y1="24" x2="75.243" y2="63.568" gradientUnits="userSpaceOnUse"><stop stop-color="#D2F6F9"/><stop offset="1" stop-color="#82EBF1"/></linearGradient><linearGradient id="paint3_linear" x1="96.973" y1="50.919" x2="72.324" y2="42.162" gradientUnits="userSpaceOnUse"><stop stop-color="#9AEEF3"/><stop offset="1" stop-color="#82EBF1"/></linearGradient><filter id="filter0_f" x="14" y="16" width="90" height="68" filterUnits="userSpaceOnUse" color-interpolation-filters="sRGB"><feFlood flood-opacity="0" result="BackgroundImageFix"/><feBlend in="SourceGraphic" in2="BackgroundImageFix" result="shape"/><feGaussianBlur stdDeviation="4" result="effect1_foregroundBlur"/></filter><filter id="filter1_f" x="21.24" y="21.621" width="75.52" height="53.52" filterUnits="userSpaceOnUse" color-interpolation-filters="sRGB"><feFlood flood-opacity="0" result="BackgroundImageFix"/><feBlend in="SourceGraphic" in2="BackgroundImageFix" result="shape"/><feGaussianBlur stdDeviation=".38" result="effect1_foregroundBlur"/></filter></defs></svg>