<svg width="96" height="93" fill="none" xmlns="http://www.w3.org/2000/svg"><mask id="a" maskUnits="userSpaceOnUse" x="0" y="0" width="96" height="93"><path d="M1.486 42.18a6.007 6.007 0 000 7.91l35.575 40.657a4.005 4.005 0 006.028 0l3.83-4.378 4.219 4.602a4.005 4.005 0 005.904 0l37.38-40.777a6.008 6.008 0 000-8.118L57.041 1.299a4.005 4.005 0 00-5.904 0L46.919 5.9l-3.83-4.378a4.005 4.005 0 00-6.028 0L1.486 42.179z" fill="#fff"/></mask><g mask="url(#a)"><path d="M40.075 94.193l-42.05-48.056L40.075-1.92l42.05 48.057-42.05 48.056z" fill="url(#paint0_linear)"/><g filter="url(#filter0_f)"><path d="M54.09.082l44.052 48.057L54.09 96.195 34.545 74.873a4.005 4.005 0 010-5.412L51.61 50.845a4.005 4.005 0 000-5.413L34.545 26.816a4.005 4.005 0 010-5.412L54.09.082z" fill="#000" fill-opacity=".32"/></g><g filter="url(#filter1_f)"><path d="M54.09-1.541l44.052 48.057L54.09 94.572 34.545 73.25a4.005 4.005 0 010-5.412L51.61 49.222a4.005 4.005 0 000-5.413L34.545 25.193a4.005 4.005 0 010-5.412L54.09-1.54z" fill="#000" fill-opacity=".24"/></g><path d="M54.09-1.92l44.052 48.057L54.09 94.193 34.545 72.871a4.005 4.005 0 010-5.412L51.61 48.843a4.005 4.005 0 000-5.413L34.545 24.815a4.005 4.005 0 010-5.412L54.09-1.92z" fill="url(#paint1_linear)"/><path d="M73.165 25.328a4.005 4.005 0 015.904 0l19.074 20.808-19.074 20.808a4.005 4.005 0 01-5.904 0L57.812 50.195a6.008 6.008 0 010-8.118l15.353-16.75z" fill="url(#paint2_linear)"/></g><defs><linearGradient id="paint0_linear" x1="71.111" y1="94.194" x2="15.045" y2="-42.968" gradientUnits="userSpaceOnUse"><stop stop-color="#742774"/><stop offset="1" stop-color="#BB35A4"/></linearGradient><linearGradient id="paint1_linear" x1="32.065" y1="-1.92" x2="78.119" y2="94.194" gradientUnits="userSpaceOnUse"><stop stop-color="#E48CC7"/><stop offset="1" stop-color="#D467B9"/></linearGradient><linearGradient id="paint2_linear" x1="62.1" y1="27.114" x2="76.117" y2="70.164" gradientUnits="userSpaceOnUse"><stop stop-color="#E9A1CB"/><stop offset="1" stop-color="#E48CC7"/></linearGradient><filter id="filter0_f" x="29.492" y="-3.918" width="72.65" height="104.113" filterUnits="userSpaceOnUse" color-interpolation-filters="sRGB"><feFlood flood-opacity="0" result="BackgroundImageFix"/><feBlend in="SourceGraphic" in2="BackgroundImageFix" result="shape"/><feGaussianBlur stdDeviation="2" result="effect1_foregroundBlur"/></filter><filter id="filter1_f" x="33.112" y="-1.921" width="65.41" height="96.873" filterUnits="userSpaceOnUse" color-interpolation-filters="sRGB"><feFlood flood-opacity="0" result="BackgroundImageFix"/><feBlend in="SourceGraphic" in2="BackgroundImageFix" result="shape"/><feGaussianBlur stdDeviation=".19" result="effect1_foregroundBlur"/></filter></defs></svg>