<svg width="96" height="95" fill="none" xmlns="http://www.w3.org/2000/svg"><mask id="a" maskUnits="userSpaceOnUse" x="0" y="0" width="96" height="95"><path d="M63.664.869a4.571 4.571 0 015.283-.056l25.084 17.365A4.571 4.571 0 0196 21.937v68.462a4.572 4.572 0 01-4.571 4.571H4.57A4.572 4.572 0 010 90.4V49.304c0-1.466.703-2.843 1.89-3.703L63.664.87z" fill="#fff"/></mask><g mask="url(#a)"><g filter="url(#filter0_d)"><path d="M66.286-1.03L96 19.543v75.429H0v-48l66.286-48z" fill="url(#paint0_linear)"/></g><g filter="url(#filter1_d)"><path d="M63.584 42.026a4.572 4.572 0 005.414.015L96 22.309v75.428H0V72.594L50.436 36.26a4.571 4.571 0 015.39.032l7.758 5.735z" fill="#000" fill-opacity=".32"/></g><g filter="url(#filter2_d)"><path d="M63.584 42.026a4.572 4.572 0 005.414.015L96 22.309v75.428H0V72.594L50.436 36.26a4.571 4.571 0 015.39.032l7.758 5.735z" fill="#000" fill-opacity=".24"/></g><path d="M63.584 39.26a4.571 4.571 0 005.414.015L96 19.543v75.429H0V69.829l50.436-36.336a4.572 4.572 0 015.39.033l7.758 5.734z" fill="url(#paint1_linear)"/><g filter="url(#filter3_f)"><path d="M96 95.405V62.262l-7.605-5.492a4.571 4.571 0 00-5.358.004L29.714 95.405H96z" fill="#000" fill-opacity=".24"/></g><g filter="url(#filter4_f)"><path d="M96 97.69V64.547l-7.605-5.492a4.571 4.571 0 00-5.358.004L29.714 97.69H96z" fill="#000" fill-opacity=".32"/></g><path d="M96 94.972V61.829l-7.605-5.493a4.571 4.571 0 00-5.358.004L29.714 94.972H96z" fill="url(#paint2_linear)"/></g><defs><filter id="filter0_d" x="-8" y="-7.029" width="112" height="112" filterUnits="userSpaceOnUse" color-interpolation-filters="sRGB"><feFlood flood-opacity="0" result="BackgroundImageFix"/><feColorMatrix in="SourceAlpha" values="0 0 0 0 0 0 0 0 0 0 0 0 0 0 0 0 0 0 127 0" result="hardAlpha"/><feOffset dy="2"/><feGaussianBlur stdDeviation="4"/><feColorMatrix values="0 0 0 0 0 0 0 0 0 0 0 0 0 0 0 0 0 0 0.2 0"/><feBlend in2="BackgroundImageFix" result="effect1_dropShadow"/><feBlend in="SourceGraphic" in2="effect1_dropShadow" result="shape"/></filter><filter id="filter1_d" x="-8" y="18.309" width="112" height="91.429" filterUnits="userSpaceOnUse" color-interpolation-filters="sRGB"><feFlood flood-opacity="0" result="BackgroundImageFix"/><feColorMatrix in="SourceAlpha" values="0 0 0 0 0 0 0 0 0 0 0 0 0 0 0 0 0 0 127 0" result="hardAlpha"/><feOffset dy="4"/><feGaussianBlur stdDeviation="4"/><feColorMatrix values="0 0 0 0 0 0 0 0 0 0 0 0 0 0 0 0 0 0 0.25 0"/><feBlend in2="BackgroundImageFix" result="effect1_dropShadow"/><feBlend in="SourceGraphic" in2="effect1_dropShadow" result="shape"/></filter><filter id="filter2_d" x="-.76" y="22.309" width="97.52" height="80.189" filterUnits="userSpaceOnUse" color-interpolation-filters="sRGB"><feFlood flood-opacity="0" result="BackgroundImageFix"/><feColorMatrix in="SourceAlpha" values="0 0 0 0 0 0 0 0 0 0 0 0 0 0 0 0 0 0 127 0" result="hardAlpha"/><feOffset dy="4"/><feGaussianBlur stdDeviation=".38"/><feColorMatrix values="0 0 0 0 0 0 0 0 0 0 0 0 0 0 0 0 0 0 1 0"/><feBlend in2="BackgroundImageFix" result="effect1_dropShadow"/><feBlend in="SourceGraphic" in2="effect1_dropShadow" result="shape"/></filter><filter id="filter3_f" x="28.954" y="55.144" width="67.806" height="41.021" filterUnits="userSpaceOnUse" color-interpolation-filters="sRGB"><feFlood flood-opacity="0" result="BackgroundImageFix"/><feBlend in="SourceGraphic" in2="BackgroundImageFix" result="shape"/><feGaussianBlur stdDeviation=".38" result="effect1_foregroundBlur"/></filter><filter id="filter4_f" x="21.714" y="50.19" width="82.286" height="55.501" filterUnits="userSpaceOnUse" color-interpolation-filters="sRGB"><feFlood flood-opacity="0" result="BackgroundImageFix"/><feBlend in="SourceGraphic" in2="BackgroundImageFix" result="shape"/><feGaussianBlur stdDeviation="4" result="effect1_foregroundBlur"/></filter><linearGradient id="paint0_linear" x1="-9" y1="2.746" x2="6.767" y2="108.976" gradientUnits="userSpaceOnUse"><stop stop-color="#158915"/><stop offset="1" stop-color="#065F18"/></linearGradient><linearGradient id="paint1_linear" x1="-22.5" y1="20.067" x2="-9.622" y2="107.126" gradientUnits="userSpaceOnUse"><stop stop-color="#6AD116"/><stop offset="1" stop-color="#34A117"/></linearGradient><linearGradient id="paint2_linear" x1="30.75" y1="54.663" x2="35.724" y2="101.716" gradientUnits="userSpaceOnUse"><stop stop-color="#C3F488"/><stop offset="1" stop-color="#8FDC50"/></linearGradient></defs></svg>