<svg width="96" height="84" fill="none" xmlns="http://www.w3.org/2000/svg"><mask id="a" maskUnits="userSpaceOnUse" x="0" y="0" width="96" height="85"><path d="M48 84c.165 0 .329-.002.492-.007.169.005.338.007.508.007h30c.333 0 .663-.01.99-.032C72.177 83.448 66 76.946 66 69c0 8.284 6.716 15 15 15 8.284 0 15-6.717 15-15V36c0-9.942-8.059-18-18-18H66c0-9.942-8.059-18-18-18-.165 0-.33.002-.494.007A19.376 19.376 0 0047 0H17c-.336 0-.67.011-1 .033A15.014 15.014 0 0115 0C6.716 0 0 6.716 0 15v33c0 9.941 8.059 18 18 18h12c0 9.941 8.059 18 18 18z" fill="url(#paint0_linear)"/></mask><g mask="url(#a)"><path d="M30 66V15c0-8.284-6.716-15-15-15C6.716 0 0 6.716 0 15v33c0 9.941 8.059 18 18 18h12z" fill="url(#paint1_linear)"/><path d="M81 84c8.284 0 15-6.716 15-15V36c0-9.941-8.059-18-18-18H66v51c0 8.284 6.716 15 15 15z" fill="url(#paint2_linear)"/><g filter="url(#filter0_f)"><path d="M30 68V17c0-7.948-6.182-14.453-14-14.967.33-.022.664-.033 1-.033h30c.17 0 .338.002.507.007C47.67 2.002 47.835 2 48 2c9.941 0 18 8.059 18 18v51.001c0 7.945 6.177 14.448 13.99 14.967-.327.021-.657.032-.99.032H49a19.4 19.4 0 01-.507-.007c-.164.005-.328.007-.493.007-9.941 0-18-8.059-18-18z" fill="#000" fill-opacity=".32"/></g><g filter="url(#filter1_f)"><path d="M30 66.38v-51C30 7.434 23.818.929 16 .415c.33-.022.664-.033 1-.033h30c.17 0 .338.002.507.006.164-.004.328-.006.493-.006 9.941 0 18 8.059 18 18v51.001c0 7.945 6.177 14.448 13.99 14.967-.327.021-.657.032-.99.032H49a19.4 19.4 0 01-.507-.007c-.164.005-.328.007-.493.007-9.941 0-18-8.059-18-18z" fill="#000" fill-opacity=".24"/></g><path fill-rule="evenodd" clip-rule="evenodd" d="M30 66V15C30 7.052 23.818.547 16 .033 16.33.01 16.664 0 17 0h30c.169 0 .338.002.506.007C47.67.002 47.835 0 48 0c9.94 0 18 8.059 18 18v51.001c0 7.945 6.177 14.448 13.99 14.967-.327.021-.658.032-.99.032H49a19.4 19.4 0 01-.507-.007A16.21 16.21 0 0148 84c-9.942 0-18-8.059-18-18z" fill="url(#paint3_linear)"/></g><defs><linearGradient id="paint0_linear" x1="22.207" y1="-9.044" x2="68.469" y2="87.54" gradientUnits="userSpaceOnUse"><stop stop-color="#40C4F5"/><stop offset="1" stop-color="#0095E6"/></linearGradient><linearGradient id="paint1_linear" x1="30" y1="66" x2="-20.209" y2="41.621" gradientUnits="userSpaceOnUse"><stop stop-color="#27518A"/><stop offset="1" stop-color="#2064AE"/></linearGradient><linearGradient id="paint2_linear" x1="95.757" y1="79.178" x2="59.788" y2="72.702" gradientUnits="userSpaceOnUse"><stop stop-color="#7CE6FF"/><stop offset="1" stop-color="#A7F2FF"/></linearGradient><linearGradient id="paint3_linear" x1="22.207" y1="-9.044" x2="68.469" y2="87.54" gradientUnits="userSpaceOnUse"><stop stop-color="#40C4F5"/><stop offset="1" stop-color="#0095E6"/></linearGradient><filter id="filter0_f" x="8" y="-6" width="79.991" height="100" filterUnits="userSpaceOnUse" color-interpolation-filters="sRGB"><feFlood flood-opacity="0" result="BackgroundImageFix"/><feBlend in="SourceGraphic" in2="BackgroundImageFix" result="shape"/><feGaussianBlur stdDeviation="4" result="effect1_foregroundBlur"/></filter><filter id="filter1_f" x="15.24" y="-.379" width="65.511" height="85.52" filterUnits="userSpaceOnUse" color-interpolation-filters="sRGB"><feFlood flood-opacity="0" result="BackgroundImageFix"/><feBlend in="SourceGraphic" in2="BackgroundImageFix" result="shape"/><feGaussianBlur stdDeviation=".38" result="effect1_foregroundBlur"/></filter></defs></svg>