<svg width="280" height="61" fill="none" xmlns="http://www.w3.org/2000/svg"><path fill-rule="evenodd" clip-rule="evenodd" d="M0 .722h28.718l-.002 28.718H0V.722z" fill="#F65314"/><path fill-rule="evenodd" clip-rule="evenodd" d="M31.59.722h28c0 9.573 0 19.146-.002 28.718H31.592c-.003-9.572-.002-19.145-.002-28.718z" fill="#7FBB41"/><path fill-rule="evenodd" clip-rule="evenodd" d="M256.489 11.596c2.624-1.721 6.014-1.882 8.971-1.062.025 1.773.003 3.546.011 5.32-1.405-.624-3.058-1.031-4.536-.42-1.173.47-1.87 1.684-2.053 2.897-.22 1.539-.077 3.099-.114 4.647 3.001.007 6.003.002 9.004.003.023-1.965-.024-3.932.026-5.897 2.041-.585 4.059-1.242 6.09-1.86.017 2.59-.024 5.18.022 7.771 2.029-.03 4.06-.007 6.09-.014v5.041c-2.037-.085-4.077-.023-6.114-.03.009 2.898.002 5.796.003 8.695.033 1.605-.085 3.218.101 4.818.113.943.453 1.988 1.33 2.475 1.468.83 3.331.467 4.68-.443v5.09c-1.759.77-3.724 1.005-5.627.87-1.805-.136-3.674-.797-4.852-2.245-1.361-1.636-1.711-3.851-1.739-5.923-.015-4.447.002-8.895-.006-13.344-3.004-.002-6.007-.003-9.008.002-.004 6.98-.002 13.96-.002 20.939h-6.155c0-6.979-.009-13.954.003-20.932-1.427-.027-2.856.007-4.283-.023.005-1.656.012-3.314-.004-4.972 1.421-.033 2.843-.02 4.267-.009.104-2.203-.229-4.47.424-6.615.552-1.938 1.779-3.686 3.471-4.779zm-131.778.362c1.241-.19 2.584.238 3.406 1.217.964 1.072 1.142 2.779.427 4.032-.79 1.413-2.557 2.07-4.097 1.731-1.598-.29-2.929-1.788-2.858-3.458-.046-1.758 1.412-3.325 3.122-3.522zm-47.17.769h8.95c2.787 7.135 5.593 14.262 8.383 21.396.713 1.785 1.38 3.59 2.126 5.36 3.585-8.915 7.22-17.808 10.777-26.735 2.87-.047 5.741-.011 8.613-.018-.007 12.065-.004 24.13-.001 36.194-2.072-.005-4.142.018-6.212-.013.022-8.902-.002-17.805.01-26.71.004-.4-.01-.8-.038-1.2a4.83 4.83 0 00-.322.58c-3.558 9.112-7.183 18.2-10.72 27.322-1.472.054-2.947.004-4.423.027-3.67-9.113-7.293-18.247-10.944-27.367a6.769 6.769 0 00-.31-.551c-.075 3.9-.011 7.804-.032 11.705.001 5.403-.003 10.805.001 16.207-1.953.005-3.906 0-5.859.002-.001-12.067-.003-24.133 0-36.199zm64.109 10.23c2.969-.853 6.173-.819 9.142.028a7.368 7.368 0 011.756.738c-.035 1.977 0 3.956-.019 5.935-1.986-1.53-4.503-2.498-7.025-2.178-2.004.183-3.915 1.231-5.112 2.864-1.541 2.023-1.897 4.71-1.631 7.186.198 1.937.992 3.873 2.487 5.158 1.551 1.39 3.727 1.883 5.758 1.728 2.007-.232 3.901-1.09 5.523-2.286.017 1.874-.009 3.748.013 5.621-2.516 1.51-5.532 1.9-8.413 1.758-2.946-.158-5.885-1.283-8.018-3.373-2.318-2.253-3.576-5.466-3.725-8.683-.15-3.347.525-6.837 2.435-9.631 1.599-2.385 4.102-4.072 6.829-4.865zm67.232-.394c2.846-.506 5.825-.135 8.519.894.003 1.904 0 3.804.001 5.706-1.882-1.305-4.181-2.007-6.464-1.926-1.15.045-2.415.537-2.94 1.64-.417 1.09-.128 2.521.893 3.175 1.744 1.178 3.826 1.677 5.635 2.732 1.423.807 2.804 1.861 3.526 3.382 1.356 2.848.782 6.611-1.602 8.735-2.274 2.144-5.551 2.736-8.564 2.623-2.141-.14-4.291-.566-6.258-1.449.009-2-.012-4 .01-6 1.655 1.212 3.564 2.079 5.584 2.43 1.407.231 2.937.242 4.248-.392 1.254-.63 1.48-2.427.735-3.527-.698-.848-1.722-1.315-2.687-1.773-1.813-.823-3.72-1.51-5.312-2.743-1.12-.881-1.968-2.122-2.299-3.522-.493-2.063-.339-4.388.85-6.192 1.359-2.101 3.72-3.36 6.125-3.793zm-42.572.817c1.698-1.03 3.857-1.116 5.712-.486-.008 2.07 0 4.14-.005 6.21-1.214-.792-2.728-1.133-4.16-.985-1.747.2-3.132 1.552-3.849 3.104-.78 1.642-.927 3.5-.878 5.297 0 4.135.003 8.27 0 12.406h-6.067c-.005-8.643.007-17.288-.005-25.93 2.025-.027 4.051-.016 6.076-.006-.008 1.484 0 2.968-.005 4.454.658-1.615 1.638-3.183 3.181-4.065zm-44.162-.39c2.041-.009 4.084-.029 6.124.01-.024 8.642-.001 17.285-.01 25.926h-6.111c-.004-8.645.003-17.29-.003-25.936zm61.201-.48c2.954-.378 6.07-.209 8.812 1.05 2.379 1.081 4.307 3.083 5.375 5.48 1.139 2.549 1.417 5.415 1.224 8.181-.19 2.701-1.031 5.408-2.706 7.554-1.714 2.279-4.298 3.823-7.066 4.397a17.54 17.54 0 01-7.206-.007c-2.831-.61-5.451-2.267-7.111-4.676-1.948-2.793-2.501-6.343-2.254-9.69.167-2.839 1.043-5.7 2.841-7.927 1.969-2.494 4.99-3.966 8.091-4.361zm1.836 4.928c-1.471.082-2.958.584-4.049 1.61-1.504 1.375-2.192 3.423-2.378 5.413-.205 2.19-.057 4.498.935 6.494.771 1.55 2.188 2.767 3.858 3.21 1.641.429 3.427.393 5.016-.223 1.359-.534 2.436-1.662 3.024-2.996.889-1.979.976-4.204.867-6.34-.152-1.952-.702-3.997-2.125-5.407-1.329-1.357-3.298-1.884-5.148-1.761zm47.221-4.936c3.072-.384 6.333-.176 9.136 1.252 2.445 1.232 4.34 3.46 5.286 6.035.741 1.97 1.001 4.097.957 6.194.006 3.134-.833 6.35-2.783 8.836-1.826 2.407-4.619 3.97-7.567 4.462-2.884.47-5.93.348-8.67-.74a11.452 11.452 0 01-6.252-6.118c-1.219-2.821-1.347-5.996-.967-9.01.398-3.016 1.752-5.964 4.059-7.968 1.891-1.674 4.324-2.622 6.801-2.943zm1.662 4.94c-1.703.097-3.392.837-4.492 2.174-1.207 1.433-1.725 3.323-1.866 5.166-.144 1.903 0 3.874.73 5.652.607 1.493 1.76 2.79 3.246 3.425 1.378.599 2.931.705 4.403.483 1.373-.203 2.703-.865 3.597-1.951.887-1.08 1.355-2.443 1.591-3.808.298-1.832.301-3.72-.051-5.543-.313-1.555-.995-3.1-2.228-4.13-1.335-1.184-3.192-1.59-4.93-1.467z" fill="#787878"/><path fill-rule="evenodd" clip-rule="evenodd" d="M0 32.312c9.572.004 19.145 0 28.717.004.002 9.332 0 18.663 0 27.996H0v-28z" fill="#00A1F1"/><path fill-rule="evenodd" clip-rule="evenodd" d="M31.591 32.314c9.332-.003 18.665-.001 27.999-.001v28h-28c.001-9.334-.002-18.667.001-27.999z" fill="#FB0"/></svg>