<svg width="212" height="85" fill="none" xmlns="http://www.w3.org/2000/svg"><path d="M.154.376v5.79H41.36V.375H.154zm47.044 0v5.79h58.719S99.92.375 91.976.375H47.198zm70.239 0v5.79h35.525l-2.11-5.79h-33.415zm60.994 0l-2.11 5.79h35.203V.375h-33.093zM.154 11.636v5.788H41.36v-5.789H.154zm47.044.007v5.781h65.534s-.765-4.456-2.101-5.781H47.198zm70.239 0v5.781h39.419l-1.951-5.781h-37.468zm56.777 0l-1.952 5.781h39.263v-5.781h-37.311zM11.996 22.895v5.798h17.845v-5.799H11.996zm47.043 0v5.798h17.845v-5.799H59.04zm35.203 0v5.798h17.845s1.133-3.063 1.133-5.799H94.242zm35.037 0v5.798h31.638l-2.109-5.799h-29.529zm41.047 0l-2.117 5.798h31.796v-5.799h-29.679zM11.996 34.163v5.79h17.845v-5.79H11.996zm47.043 0v5.79h45.581s3.812-2.972 5.028-5.79H59.039zm70.24 0v5.79h17.845V36.73l1.133 3.224h32.688l1.216-3.224v3.224h17.845v-5.79h-33.498l-1.778 4.905-1.786-4.905h-33.665zM11.996 45.422v5.792h17.845v-5.792H11.996zm47.043 0v5.792h50.609c-1.217-2.81-5.028-5.792-5.028-5.792H59.04zm70.24 0v5.792h17.845v-5.792h-17.845zm21.087 0l2.157 5.792h24.509l2.051-5.792h-28.717zm31.794 0v5.792h17.846v-5.792H182.16zM11.996 56.682v5.791h17.845v-5.79H11.996zm47.043 0v5.791h17.845v-5.79H59.04zm35.203 0v5.791h18.977c0-2.732-1.132-5.79-1.132-5.79H94.242zm35.037 0v5.791h17.845v-5.79h-17.845zm25.137 0l2.093 5.791h16.432l2.108-5.79h-20.633zm27.744 0v5.791h17.846v-5.79H182.16zM.476 67.943v5.798h41.206v-5.797H.476zm46.722 0v5.798h63.434c1.335-1.327 2.101-5.797 2.101-5.797H47.198zm70.562 0v5.798h29.364v-5.797H117.76zm40.717 0l2.151 5.798h8.36l2.019-5.797h-12.53zm23.683 0v5.798h29.686v-5.797H182.16zM.476 79.21V85h41.206v-5.79H.476zm46.722 0v5.78h44.778c7.944 0 13.941-5.78 13.941-5.78H47.198zm70.562 0V85h29.364v-5.79H117.76zm44.794 0l2.068 5.772.355.009 2.101-5.781h-4.524zm19.606 0V85h29.686v-5.79H182.16z" fill="#1F70C1"/></svg>