<svg width="244" height="171" fill="none" xmlns="http://www.w3.org/2000/svg"><path d="M101.483 18.57a42.35 42.35 0 0113.972-9.788 42.115 42.115 0 0116.673-3.459 42.604 42.604 0 0121.656 6.023 42.958 42.958 0 0115.643 16.23 51.278 51.278 0 0121.081-4.51 52.28 52.28 0 0121.316 4.53 52.58 52.58 0 0117.662 12.838 52.98 52.98 0 0110.973 18.942 53.248 53.248 0 012.401 21.793 53.157 53.157 0 01-6.585 20.901 52.787 52.787 0 01-14.439 16.419 52.39 52.39 0 01-19.813 9.118 52.242 52.242 0 01-21.785.251 38.149 38.149 0 01-21.842 17.874 37.88 37.88 0 01-28.073-2.097 43.68 43.68 0 01-16.463 19.679 43.252 43.252 0 01-24.607 6.963 43.283 43.283 0 01-24.24-8.161 43.715 43.715 0 01-15.49-20.464 39.325 39.325 0 01-8.294.866 40.689 40.689 0 01-24.605-8.685A41.134 41.134 0 012.25 111.939a41.364 41.364 0 011.713-26.186 41.038 41.038 0 0117.102-19.81 47.528 47.528 0 01-1.492-33.432c3.573-10.954 11.002-20.216 20.889-26.04A46.687 46.687 0 0173.249.891a46.903 46.903 0 0128.234 17.68z" fill="#00A1F1"/><path d="M35.897 88.307c-.148.395.054.48.107.556.442.308.903.586 1.38.834a14.655 14.655 0 007.233 1.7c4.96 0 8.04-2.652 8.04-6.927v-.086c0-3.955-3.477-5.387-6.733-6.424l-.426-.138c-2.463-.802-4.577-1.497-4.577-3.122v-.085c0-1.389 1.242-2.415 3.165-2.415a14.18 14.18 0 016.298 1.624s.478.31.658-.16c.096-.245.927-2.49 1.01-2.735a.47.47 0 00-.245-.567 13.954 13.954 0 00-7.105-1.925h-.5c-4.534 0-7.71 2.758-7.71 6.713v.085c0 4.168 3.495 5.526 6.766 6.466l.531.16c2.39.737 4.44 1.368 4.44 3.067v.085c0 1.55-1.339 2.693-3.494 2.693a11.69 11.69 0 01-6.383-1.85c-.348-.203-.553-.35-.818-.513a.392.392 0 00-.648.224l-.988 2.736v.004zm72.59 0c-.148.395.054.48.107.556.442.308.903.586 1.38.834a14.655 14.655 0 007.233 1.7c4.96 0 8.04-2.652 8.04-6.927v-.086c0-3.955-3.477-5.387-6.733-6.424l-.425-.138c-2.464-.802-4.578-1.497-4.578-3.122v-.085c0-1.389 1.242-2.415 3.165-2.415 2.196.046 4.351.602 6.298 1.624 0 0 .478.31.659-.16.095-.245.927-2.49 1.009-2.735a.47.47 0 00-.245-.567 13.952 13.952 0 00-7.105-1.925h-.499c-4.535 0-7.71 2.758-7.71 6.713v.085c0 4.168 3.494 5.526 6.765 6.466l.531.16c2.39.737 4.45 1.368 4.45 3.067v.085c0 1.55-1.338 2.693-3.494 2.693a11.691 11.691 0 01-6.383-1.85c-.347-.203-.553-.341-.818-.513a.424.424 0 00-.558.048.427.427 0 00-.1.176l-.987 2.736-.002.004zm49.554-8.373a10.328 10.328 0 01-1.328 5.665 5.093 5.093 0 01-4.019 1.974 5.07 5.07 0 01-2.236-.52 5.105 5.105 0 01-1.784-1.454 12.886 12.886 0 010-11.313 4.433 4.433 0 011.744-1.525 4.398 4.398 0 012.271-.431 4.465 4.465 0 012.277.436 4.502 4.502 0 011.758 1.52 10.324 10.324 0 011.316 5.644l.001.004zm4.141-4.483a10.122 10.122 0 00-1.88-3.624 9.161 9.161 0 00-3.175-2.438 10.486 10.486 0 00-4.439-.898 10.327 10.327 0 00-4.44.898 9.186 9.186 0 00-3.186 2.438 10.037 10.037 0 00-1.879 3.624 16.853 16.853 0 000 8.957 10.218 10.218 0 001.89 3.624 8.86 8.86 0 003.175 2.416 11.681 11.681 0 008.878 0 8.75 8.75 0 003.175-2.416 10.024 10.024 0 001.88-3.624c.807-2.93.807-6.027 0-8.957m33.988 11.484a.403.403 0 00-.369-.285.4.4 0 00-.162.029 9.284 9.284 0 01-1.922.556c-.753.111-1.512.164-2.273.16a6.261 6.261 0 01-4.736-1.785 7.954 7.954 0 01-1.773-5.697 8.914 8.914 0 011.582-5.482 5.41 5.41 0 012.051-1.585 5.371 5.371 0 012.547-.445c1.483-.03 2.961.182 4.376.63 0 0 .329.14.478-.288.361-1.015.627-1.731 1.019-2.853a.386.386 0 00-.118-.421.375.375 0 00-.137-.072 15.412 15.412 0 00-2.761-.7 20.489 20.489 0 00-3.101-.213 11.09 11.09 0 00-4.609.898 9.53 9.53 0 00-3.335 2.426 10.3 10.3 0 00-2.018 3.624 14.54 14.54 0 00-.68 4.49 12.051 12.051 0 002.751 8.294c1.826 2.053 4.588 3.1 8.167 3.1 2.001 0 3.986-.357 5.862-1.058a.384.384 0 00.171-.492l-1.01-2.833v.002zm7.244-9.31a8.077 8.077 0 011.137-3.324 4.46 4.46 0 011.728-1.566 4.425 4.425 0 012.276-.475 4.334 4.334 0 012.241.481 4.373 4.373 0 011.689 1.56c.579 1.013.9 2.155.934 3.324h-10.005zm13.945-2.95a8.77 8.77 0 00-1.795-3.303 8.395 8.395 0 00-2.655-2.04 10.224 10.224 0 00-4.014-.824c-1.588-.04-3.165.27-4.621.908a9.16 9.16 0 00-3.228 2.48 10.389 10.389 0 00-1.901 3.655 15.774 15.774 0 00-.616 4.5 15.096 15.096 0 00.637 4.5 9.235 9.235 0 002.028 3.58 9.316 9.316 0 003.526 2.351 13.96 13.96 0 005.088.824 14.43 14.43 0 007.051-1.411c.159-.085.309-.234.116-.673l-.913-2.587a.418.418 0 00-.214-.236.406.406 0 00-.317-.01 13.396 13.396 0 01-5.745 1.037 5.723 5.723 0 01-4.742-1.608 5.786 5.786 0 01-1.684-4.742l14.008.01a.41.41 0 00.403-.363 15.266 15.266 0 00-.413-6.05l.001.002zm-126.16 2.95a8.22 8.22 0 011.137-3.324 4.46 4.46 0 011.728-1.566 4.427 4.427 0 012.276-.475 4.335 4.335 0 012.241.481 4.372 4.372 0 011.689 1.56c.581 1.012.9 2.155.927 3.324h-9.998zm13.934-2.95a8.756 8.756 0 00-1.795-3.303 8.395 8.395 0 00-2.655-2.041 10.22 10.22 0 00-4.014-.823 10.872 10.872 0 00-4.62.908 9.164 9.164 0 00-3.229 2.48 10.406 10.406 0 00-1.9 3.655 16.157 16.157 0 00-.617 4.5c-.016 1.523.2 3.04.637 4.5a9.239 9.239 0 002.028 3.58 9.318 9.318 0 003.527 2.351c1.63.588 3.355.868 5.087.824a14.43 14.43 0 007.052-1.412c.159-.085.308-.233.116-.672l-.913-2.587a.42.42 0 00-.214-.236.411.411 0 00-.317-.01 13.38 13.38 0 01-5.756 1.036 5.702 5.702 0 01-4.742-1.607 5.777 5.777 0 01-1.383-2.177 5.808 5.808 0 01-.301-2.565l14.008.01a.41.41 0 00.403-.364 14.493 14.493 0 00-.403-6.05l.001.003zM60.918 86.86a2.748 2.748 0 01-.811-.835 3.437 3.437 0 01-.414-1.838 3.081 3.081 0 011.253-2.725 6.19 6.19 0 014.068-1.016c1.273.026 2.543.133 3.802.32v6.415a28.057 28.057 0 01-3.782.503 6.357 6.357 0 01-4.12-.823l.004-.002zm5.57-9.913a30.257 30.257 0 00-2.187-.064 13.059 13.059 0 00-3.451.449 9.148 9.148 0 00-2.93 1.368 6.577 6.577 0 00-2.085 2.438 6.624 6.624 0 00-.688 3.141 7.422 7.422 0 00.638 3.218A5.743 5.743 0 0057.61 89.7a7.428 7.428 0 002.856 1.24c1.218.269 2.462.398 3.709.385a25.631 25.631 0 004.259-.35 86.167 86.167 0 003.526-.684c.468-.108.977-.257.977-.257a.432.432 0 00.319-.46l-.01-12.89c0-2.833-.755-4.928-2.232-6.221a9.488 9.488 0 00-6.436-1.956 22.96 22.96 0 00-3.749.35c-1.52.279-2.982.818-4.322 1.593a.446.446 0 00-.128.567l.987 2.682a.355.355 0 00.457.225c.08-.034.157-.073.232-.117a14.179 14.179 0 016.107-1.432 5.65 5.65 0 013.463.908c.765.583 1.159 1.476 1.159 3.357v.598a35.708 35.708 0 00-2.295-.288m113.017-7.267a.363.363 0 00.032-.149.364.364 0 00-.115-.274.369.369 0 00-.129-.08 12.292 12.292 0 00-2.347-.406 6.914 6.914 0 00-3.611.584 6.471 6.471 0 00-2.369 1.75v-1.71a.404.404 0 00-.111-.3.414.414 0 00-.292-.129h-3.592a.405.405 0 00-.378.267.423.423 0 00-.026.161v21.036a.426.426 0 00.426.428h3.685a.428.428 0 00.425-.428V79.926c-.033-1.25.124-2.497.464-3.699a5.35 5.35 0 011.221-2.074 4.3 4.3 0 011.731-1.05 6.626 6.626 0 011.88-.266 7.759 7.759 0 011.54.192.469.469 0 00.51-.385c.232-.662.913-2.587 1.051-2.972" fill="#fff"/><path d="M144.947 59.935a10.597 10.597 0 00-3.281-.48 8 8 0 00-5.937 2.138 11.728 11.728 0 00-2.815 6.402l-.171.952h-3.185a.475.475 0 00-.464.406l-.52 2.94c-.043.277.084.448.456.448h3.091l-3.144 17.648a22.5 22.5 0 01-.839 3.473 7.187 7.187 0 01-.977 2.01 2.55 2.55 0 01-1.285.993 5.239 5.239 0 01-1.646.234 5.779 5.779 0 01-1.125-.129 3.126 3.126 0 01-.754-.246.39.39 0 00-.51.224c-.116.3-.946 2.587-1.043 2.865a.43.43 0 00.212.566c.419.155.849.28 1.285.375a8.51 8.51 0 002.05.192c1.169.02 2.332-.161 3.441-.534 1-.381 1.89-1.005 2.591-1.817a9.34 9.34 0 001.816-3.15 26.572 26.572 0 001.232-4.734l3.154-17.98h4.609a.473.473 0 00.464-.416l.52-2.928c.031-.278-.085-.45-.457-.45h-4.481a18.8 18.8 0 01.744-3.184c.217-.566.55-1.08.977-1.507a3.05 3.05 0 011.179-.737 4.721 4.721 0 011.506-.214c.385.001.77.04 1.147.117.241.044.479.105.712.182.456.138.52 0 .605-.214l1.073-2.961a.345.345 0 00-.096-.415.337.337 0 00-.136-.066M82.35 90.43a.414.414 0 01-.244.394.406.406 0 01-.159.035h-3.718a.407.407 0 01-.403-.428v-30.1a.41.41 0 01.403-.428h3.723a.406.406 0 01.377.267.4.4 0 01.026.161v30.1h-.005z" fill="#fff"/></svg>