<svg width="318" height="68" fill="none" xmlns="http://www.w3.org/2000/svg"><path d="M33.424 3.114v3.127H27.83v2.034h5.593v6.228h2.186V8.275h5.733V6.24H35.61V0h-2.186v3.114z" fill="#7099A6"/><path d="M15.146 11.046v4.538H6.68v2.847h8.466v9.215h3.14v-9.215h8.592v-2.847h-8.593V6.508h-3.14v4.538z" fill="#EB912C"/><path d="M50.622 11.046v4.538h-8.466v2.987h8.466v9.075h3.266v-9.075h8.466v-2.987h-8.466V6.508h-3.266v4.538z" fill="#59879B"/><path fill-rule="evenodd" clip-rule="evenodd" d="M205.07 13.55h4.36v38.64h-4.36V13.55zm-36.098 4.067h4.436v5.364c0 5.034.025 5.339.241 5.275.14-.05.801-.229 1.475-.42.8-.215 1.766-.355 2.796-.419 1.169-.05 1.856-.012 2.72.153.737.14 1.614.445 2.39.826.673.33 1.563.89 1.983 1.258.406.356 1.055 1.106 1.423 1.666.382.559.852 1.449 1.055 1.995.216.534.483 1.538.61 2.237.153.915.191 1.703.14 2.95-.038.927-.178 2.084-.305 2.567-.114.483-.419 1.309-.661 1.83a11.16 11.16 0 01-1.068 1.767c-.33.445-1.004 1.106-1.487 1.474-.47.369-1.334.877-1.894 1.132-.559.266-1.487.597-2.046.75-.877.24-1.436.28-3.953.292-2.377.013-3.152-.038-4.093-.242a52.38 52.38 0 01-2.326-.584c-.636-.178-1.195-.382-1.246-.433-.051-.05-.114-6.685-.14-14.757l-.05-14.68zm5.529 14.465l-1.017.356v11.274c2.135.56 2.593.598 4.017.56 1.398-.038 1.855-.102 2.529-.356.445-.178 1.068-.509 1.36-.75.305-.229.737-.661.966-.953.229-.293.559-.903.725-1.348.178-.445.381-1.296.457-1.894.115-.813.115-1.372-.013-2.237a6.92 6.92 0 00-.635-2.135c-.254-.547-.699-1.22-.979-1.5a6.185 6.185 0 00-1.131-.864c-.331-.204-.979-.458-1.436-.572-.445-.127-1.246-.216-1.767-.204-.521.013-1.208.077-1.5.14-.305.064-1.004.28-1.576.483zM96.736 18.977h4.36v12.33h11.732v4.067h-11.732v13.283h-4.36V35.374H85.004v-4.067h11.732v-12.33z" fill="#1F447E"/><path d="M32.61 26.502v5.084h-9.418v3.788h9.418v10.169h3.814V35.374h9.418v-3.788h-9.418V21.418H32.61v5.084z" fill="#E8762C"/><path d="M60.307 29.07v3.19h-5.732v2.58h5.732v6.369h2.86V34.84H68.9v-2.58h-5.733v-6.368h-2.86v3.178z" fill="#5B6591"/><path d="M5.727 29.35v3.05H.134v2.16h5.593v6.102h2.186V34.56l5.733-.204V32.4H7.913v-6.101H5.727v3.05z" fill="#7099A6"/><path fill-rule="evenodd" clip-rule="evenodd" d="M143.537 27.24h4.36v8.033c0 4.423-.051 8.91-.203 11.91l-1.093.33c-.598.178-1.856.458-2.797.623-1.436.241-2.084.267-4.156.216-1.919-.051-2.695-.127-3.546-.343a15.702 15.702 0 01-2.327-.89c-.711-.356-1.563-.915-2.046-1.335-.445-.407-1.08-1.131-1.385-1.601-.318-.483-.738-1.246-.916-1.69a13.993 13.993 0 01-.572-1.958c-.178-.915-.216-1.59-.165-3.19.064-1.539.153-2.289.369-3.051.165-.56.546-1.475.839-2.034.292-.56.877-1.41 1.309-1.881.445-.483 1.169-1.119 1.614-1.424.445-.292 1.182-.686 1.64-.864.445-.178 1.258-.42 1.805-.521.546-.102 1.563-.19 2.25-.19.699 0 1.69.1 2.224.202.521.115 1.347.395 1.843.623.483.216.902.407.915.394.013 0 .038-.305.038-.673v-.687zm-7.423 4.995a5.682 5.682 0 00-1.195.94c-.292.318-.686.877-.864 1.259-.191.368-.432 1.055-.546 1.525-.115.457-.204 1.296-.204 1.856 0 .559.064 1.385.14 1.83.089.445.318 1.182.534 1.627.254.534.661 1.08 1.182 1.563.508.47 1.106.865 1.627 1.068.635.254 1.144.33 2.453.394.928.038 2.097-.013 2.72-.102.598-.089 1.157-.203 1.246-.254.102-.063.178-1.83.241-5.618l.089-5.516c-1.118-.61-1.741-.89-2.122-1.017-.369-.14-1.233-.267-1.907-.293-.839-.038-1.462.013-1.983.166a8.004 8.004 0 00-1.411.572zm142.361-4.996h4.36v6.813c0 3.75-.038 8.237-.204 13.13l-1.093.33a25.13 25.13 0 01-2.694.598c-1.132.204-2.212.28-3.674.28-1.157 0-2.491-.064-2.974-.14a20.904 20.904 0 01-2.11-.546 10.456 10.456 0 01-2.25-1.055c-.572-.369-1.36-1.017-1.767-1.462-.394-.432-.953-1.195-1.22-1.678a12.374 12.374 0 01-.814-1.957c-.266-.852-.343-1.513-.406-3.051-.038-1.233 0-2.326.101-2.923.089-.522.318-1.399.509-1.958.178-.56.597-1.449.928-1.97.317-.521 1.004-1.347 1.525-1.83.585-.534 1.347-1.08 1.97-1.386.559-.267 1.373-.597 1.831-.724.444-.115 1.55-.255 2.453-.293 1.207-.05 1.906 0 2.656.153.572.127 1.424.407 1.92.635.483.216.902.407.915.394.025 0 .038-.305.038-.673v-.687zm-7.423 4.996a5.632 5.632 0 00-1.195.94 6.49 6.49 0 00-.864 1.259c-.191.368-.432 1.055-.547 1.525-.114.457-.203 1.36-.203 1.995 0 .636.089 1.538.203 1.996.115.47.331 1.106.496 1.424.165.317.585.877.928 1.233.343.368.902.8 1.233.966.343.178.953.42 1.372.533.471.14 1.246.216 2.149.216.762 0 1.843-.063 2.376-.14.547-.076 1.068-.19 1.144-.24.115-.064.178-1.704.217-5.632l.038-5.554c-1.373-.7-2.136-.992-2.593-1.106a7.448 7.448 0 00-1.704-.19c-.483 0-1.22.1-1.627.203a7.736 7.736 0 00-1.423.572zm-33.506-4.792c.788.038 1.792.165 2.25.28.445.114 1.182.38 1.627.597a9.7 9.7 0 011.64.991 8.798 8.798 0 011.423 1.411c.331.432.801 1.22 1.055 1.741.255.521.585 1.437.738 2.034.152.597.33 1.805.47 4.27h-15.075l.089.51c.038.279.203.876.33 1.321.14.445.496 1.144.776 1.538.279.394.699.865.915 1.03.229.165.686.445 1.029.623a8.31 8.31 0 001.297.483c.381.101 1.398.19 2.313.19.903 0 2.199-.089 2.873-.203a19.33 19.33 0 002.11-.496c.483-.152 1.118-.394 1.398-.534.28-.14.572-.267.648-.267.089 0 .14.776.14 4.068l-.75.343c-.419.19-1.284.496-1.945.687-.661.177-1.868.406-2.694.495-1.131.115-1.894.115-3.076 0-.865-.089-2.123-.318-2.797-.508-.673-.19-1.652-.572-2.16-.852-.522-.28-1.399-.928-1.958-1.449-.572-.521-1.284-1.373-1.614-1.894-.331-.52-.737-1.41-.928-1.97-.191-.56-.42-1.538-.508-2.16-.102-.7-.128-1.679-.077-2.441.038-.712.204-1.78.356-2.377.153-.598.521-1.576.814-2.174a12.45 12.45 0 011.194-1.894c.369-.444 1.094-1.13 1.615-1.525.521-.394 1.398-.89 1.944-1.118.534-.23 1.462-.496 2.047-.61.699-.128 1.538-.178 2.491-.14zm-2.987 4.855a6.86 6.86 0 00-1.284 1.042c-.292.344-.686.903-.864 1.259-.178.356-.33.699-.33.775 0 .09 1.716.14 4.881.14h4.88c-.139-1.004-.266-1.5-.368-1.767-.115-.254-.445-.737-.737-1.055a3.28 3.28 0 00-1.284-.864 8.437 8.437 0 00-1.703-.33c-.611-.026-1.233.025-1.716.152a7.454 7.454 0 00-1.475.648zm65.181-4.512h4.525l-.013 6.813c0 6.419.013 6.864.267 7.69.166.508.471 1.106.725 1.41.241.28.75.662 1.131.84.369.178 1.08.38 1.563.444a6.95 6.95 0 001.78 0c.483-.063 1.195-.266 1.563-.444.382-.178.89-.56 1.132-.84.254-.304.572-.902.724-1.41.254-.826.267-1.271.267-14.503h4.462l-.026 7.36c-.013 6.965-.025 7.384-.279 8.16a8.087 8.087 0 01-.712 1.487 7.438 7.438 0 01-.954 1.182c-.279.28-.889.724-1.334.991-.445.267-1.309.636-1.907.827-.686.216-1.601.38-2.453.444-.763.039-1.983.039-2.733-.012-.851-.051-1.779-.216-2.453-.432-.61-.191-1.462-.56-1.919-.827-.445-.267-1.043-.711-1.335-.991-.28-.28-.712-.8-.953-1.182a8.828 8.828 0 01-.699-1.487c-.267-.763-.28-1.233-.318-8.16l-.051-7.36z" fill="#1F447E"/><path d="M15.146 43.712v4.538H6.68v2.987h8.466v9.075h3.267v-9.075h8.465V48.25h-8.465v-9.076h-3.267v4.538z" fill="#C72035"/><path d="M50.622 43.712v4.538h-8.466v2.847h8.466v9.215h3.266v-9.215h8.466V48.25h-8.466v-9.076h-3.266v4.538z" fill="#1F447E"/><path d="M33.157 55.241v3.178h-5.733v2.58h5.733v6.368h2.86V61h5.732v-2.58h-5.732v-6.37h-2.86v3.19z" fill="#5B6591"/></svg>