<svg width="256" height="74" fill="none" xmlns="http://www.w3.org/2000/svg"><path fill-rule="evenodd" clip-rule="evenodd" d="M177.184 38.615v5.807h-26.211c.399 7.405 3.468 11.062 11.356 11.062 5.34 0 11.08-1.721 14.394-3.933v8.88c-3.069 2.09-8.287 3.625-15.254 3.625-13.903 0-21.791-7.681-21.791-23.444 0-13.827 6.354-23.906 19.612-23.906 10.865 0 17.894 5.992 17.894 21.909zM159.045 25.34c-5.218 0-7.857 3.81-8.103 11.03h15.131v-.921c0-5.715-1.626-10.11-7.059-10.11h.031zM77.037 35.757v-18.22h10.956v46.059H77.037V44.33H62.458v19.266H51.593v-46.09h10.865v18.251h14.579zm146.798 27.839h-12.338L195.384 40.98v22.614h-10.865v-46.09h10.865V38.8l15.346-21.263h11.018L206.402 38.8l17.433 24.797zM256 61.29c-2.67 1.936-6.2 2.858-11.264 2.858-14.486 0-21.545-8.42-21.576-23.506 0-13.92 7.212-23.814 21.116-23.814 5.401 0 9.422.922 11.724 2.213v9.218a21.128 21.128 0 00-10.497-2.827c-7.151 0-11.049 5.04-11.049 14.933 0 9.341 3.162 15.18 10.957 15.18 4.573 0 7.827-1.23 10.589-3.135v8.91-.03zm-123.841-6.33h4.849v18.744h-10.067V63.503h-24.4v10.202H92.475V54.93h3.376c3.836-7.682 4.603-22.247 4.603-33.492v-3.934h31.705V54.96zm-26.211 0h15.346V26.14h-11.509v1.352c0 7.958-.798 20.525-3.837 27.47z" fill="#000"/><path d="M42.257 63.386V0h-16.08C9.974 0 1.504 8.268 1.504 20.516c0 9.707 4.634 15.525 12.95 21.435L0 63.386h11.968L28.08 39.348l-5.585-3.705c-6.751-4.593-10.096-8.115-10.096-15.8 0-6.737 4.756-11.3 13.81-11.3h4.94v54.812h11.11v.03z" fill="#FC3F1D"/></svg>