<svg width="250" height="74" fill="none" xmlns="http://www.w3.org/2000/svg"><path d="M13.854 61.47c-8.574-7.988-9.042-21.405-1.053-29.979 7.988-8.573 21.405-9.041 29.979-1.053h8.91c-.088-.146-.19-.278-.278-.41a27.99 27.99 0 00-7.593-7.593 28.064 28.064 0 00-26.658-2.59A28.18 28.18 0 004.797 30.028a28.072 28.072 0 00-2.575 26.644 28.098 28.098 0 0010.184 12.363 27.963 27.963 0 0015.713 4.799 27.86 27.86 0 0010.944-2.21 28.098 28.098 0 0012.364-10.183c.16-.248.336-.497.497-.76h-8.34c-8.047 8.325-21.259 8.676-29.73.79zm234.419-18.025a21.86 21.86 0 00-7.93-9.627 21.702 21.702 0 00-12.232-3.731 21.863 21.863 0 00-18.142 9.656 21.848 21.848 0 00-2.019 20.747 21.86 21.86 0 007.93 9.627 21.849 21.849 0 0020.747 2.02 21.946 21.946 0 009.627-7.93 21.884 21.884 0 002.019-20.762zm-20.205 23.717c-8.413-.015-15.246-6.833-15.246-15.246 0-8.427 6.833-15.245 15.246-15.245 8.427 0 15.245 6.833 15.245 15.245 0 8.413-6.818 15.246-15.245 15.246zM96.827 30.087c-11.632-.293-21.288 8.91-21.581 20.527-.015.454-.015.908.015 1.361 0 12.817 9.246 21.976 23.117 21.976a21.577 21.577 0 0016.943-6.979l-4.287-5.033a16.066 16.066 0 01-12.408 5.194c-8.515 0-14.601-5.033-15.567-12.568h34.866c.088-.732.161-1.697.161-2.356 0-13.197-8.837-22.122-21.26-22.122zM83.044 48.99c.571-7.125 6.643-12.553 13.783-12.319 7.14-.22 13.212 5.194 13.782 12.32H83.044zm-6.657-18.903c-7.535 0-12.89 2.59-15.655 7.623v-7.213H53.27v42.986h7.784v-21.42c0-9.408 5.194-14.514 13.548-14.514.6-.015 1.185.014 1.785.087v-7.55zm108.841 37.309c-4.287 0-5.662-2.59-5.662-7.213V36.905h12.319v-6.408h-12.334V17.885h-7.784v12.612h-2.677v6.408h2.677v23.6c0 8.676 3.877 13.46 12.554 13.46a11.878 11.878 0 008.339-2.999l-2.428-5.589c-1.317 1.317-3.117 2.034-5.004 2.02zm18.098-36.899h-7.783v42.971h7.783V30.497zm-45.488 5.983a20.903 20.903 0 00-3.218-2.662 21.704 21.704 0 00-12.232-3.731 21.866 21.866 0 00-18.143 9.656 21.867 21.867 0 005.911 30.374 21.849 21.849 0 0020.747 2.02c2.605-1.098 4.946-2.707 6.935-4.683v6.043h6.716v-43h-6.716v5.984zm-15.479 30.682c-8.413-.015-15.246-6.833-15.246-15.246 0-8.427 6.833-15.245 15.246-15.245 8.427 0 15.245 6.833 15.245 15.245 0 8.413-6.832 15.246-15.245 15.246z" fill="#FF4013"/><path d="M217.006 17.578l-30.125 6.993 8.969-6.994L159.097.152l57.909 17.425z" fill="#0D2E4E"/><path d="M217.006 17.578H195.85L159.097.152l57.909 17.425z" fill="#1A4580"/></svg>