<svg width="70" height="70" fill="none" xmlns="http://www.w3.org/2000/svg"><g clip-path="url(#clip0)"><path d="M59.2 9.914C52.258 3.14 43.195-.394 33.65-.002 15.62.882.867 15.903 0 34.262c-.483 15.61 8.773 29.748 23.14 35.05 1.157.392 2.314.686 3.47.686a9.416 9.416 0 005.69-1.865c2.892-2.062 4.628-5.4 4.628-8.934V46.927C43.29 46.337 47.823 43 48.016 42.9c.482-.392.771-.981.771-1.57v-7.756l3.857-1.571v9.818l-3.182 3.828a2.004 2.004 0 00-.29 2.062c.29.687.965 1.178 1.736 1.178h5.978c.675 0 1.35-.392 1.64-.982a1.81 1.81 0 000-1.963l-2.218-3.927V29.844c.096-.295.193-.49.193-.884 0-.785-.579-1.57-1.254-1.767l-20.055-7.069a2.31 2.31 0 00-1.157 0l-22.851 7.07c-.771.294-1.35.981-1.35 1.865 0 .883.482 1.57 1.35 1.865l9.545 3.24v7.069c0 .687.29 1.276.868 1.669.193.196 5.11 3.436 11.377 4.025v12.272c0 2.258-1.06 4.418-2.988 5.694-1.736 1.178-3.76 1.473-5.69.785-12.63-4.81-20.922-17.377-20.44-31.22C4.627 18.063 17.74 4.711 33.842 3.925c8.485-.392 16.584 2.75 22.659 8.836 6.074 5.989 9.642 14.334 9.642 22.875 0 13.254-7.907 24.937-20.152 29.748-.964.393-1.446 1.57-1.06 2.553.385.981 1.542 1.472 2.506 1.08C61.13 63.616 70 50.46 70 35.636c0-9.622-3.954-19.046-10.8-25.723zM34.71 24.052l14.56 5.203-14.078 5.694-16.97-5.792 16.488-5.105zM24.78 35.44l9.931 3.338c.193.098.386.098.579.098.289 0 .482 0 .675-.098l9.063-3.633v5.106c-1.64.982-5.496 2.945-10.124 2.847-4.435 0-8.388-1.964-10.124-2.945V35.44z" fill="#6478DD"/></g><defs><clipPath id="clip0"><path fill="#fff" d="M0 0h70v70H0z"/></clipPath></defs></svg>