<svg width="70" height="70" fill="none" xmlns="http://www.w3.org/2000/svg"><g clip-path="url(#clip0)"><path d="M59.2 9.914C52.258 3.14 43.195-.394 33.65-.002 15.62.882.867 15.903 0 34.262c-.483 15.61 8.773 29.748 23.14 35.05 1.157.392 2.314.686 3.47.686a9.416 9.416 0 005.69-1.865c2.892-2.062 4.628-5.4 4.628-8.934V45.552l2.796-2.061c.386-.295.675-.786.771-1.277v-.785l13.113-2.75c.675-.097 1.157-.588 1.446-1.177.193-.59.193-1.277-.192-1.866L41.459 16.688c-.385-.589-.964-.883-1.639-.785-.675 0-1.253.393-1.542.982l-6.75 11.584-.193-.294c-.578-.884-1.832-1.08-2.7-.49l-6.652 4.81c-.386.294-.675.785-.771 1.276-.097.491 0 1.08.289 1.473l.482.687a6.945 6.945 0 00-2.893 4.712c-.289 1.866.097 3.83 1.254 5.4a6.792 6.792 0 004.628 2.946c.386.098.771.098 1.157.098 1.446 0 2.892-.491 4.146-1.375l.193.196c.385.491.964.786 1.542.786a1.83 1.83 0 001.157-.393V59.2c0 2.258-1.06 4.418-2.989 5.694-1.735 1.178-3.76 1.473-5.688.785-12.824-4.81-21.116-17.377-20.634-31.22C4.627 18.063 17.74 4.711 33.842 3.925c8.485-.392 16.584 2.75 22.659 8.836 6.074 5.989 9.642 14.334 9.642 22.875 0 13.254-7.907 24.937-20.152 29.748-.964.393-1.446 1.57-1.06 2.553.385.981 1.542 1.472 2.506 1.08C61.13 63.616 70 50.46 70 35.636c0-9.622-3.954-19.046-10.8-25.723zM40.013 21.401l9.835 14.137-11.667 2.455-4.242-6.087L40.013 21.4zM25.55 45.06c-.867-.098-1.639-.589-2.12-1.374-.483-.687-.676-1.57-.58-2.454a2.917 2.917 0 011.35-2.16l3.76 5.4c-.674.588-1.542.785-2.41.588zm6.846-.981l-3.953-5.596-2.218-3.142-.482-.687 3.568-2.553.771 1.08 5.689 8.149.193.196-3.568 2.553z" fill="#3A8FD1"/></g><defs><clipPath id="clip0"><path fill="#fff" d="M0 0h70v70H0z"/></clipPath></defs></svg>