<svg width="70" height="70" fill="none" xmlns="http://www.w3.org/2000/svg"><g clip-path="url(#clip0)"><path d="M59.2 9.914C52.258 3.14 43.195-.394 33.65-.002 15.62.882.867 15.903 0 34.262c-.483 15.61 8.773 29.748 23.14 35.05 1.157.392 2.314.686 3.47.686a9.416 9.416 0 005.69-1.865c2.892-2.062 4.628-5.4 4.628-8.934v-6.676c.482-2.258 3.085-3.633 7.135-5.4 5.11-2.258 11.377-5.007 12.148-12.468 2.315-.786 4.05-3.044 4.05-5.695 0-3.338-2.603-5.988-5.882-5.988-3.278 0-5.881 2.65-5.881 5.988 0 2.553 1.64 4.811 3.857 5.596-.772 4.91-5.207 6.873-9.835 8.935a18.6 18.6 0 00-1.543.687c1.254-1.964 2.314-4.81 2.507-9.523 2.314-.786 4.05-3.044 4.05-5.695 0-3.338-2.603-5.988-5.882-5.988-3.278 0-5.881 2.65-5.881 5.988 0 2.651 1.639 4.811 3.953 5.695-.29 5.498-1.736 7.461-3.375 9.425-.482.589-.964 1.178-1.446 1.865a30.907 30.907 0 00-1.446-1.865c-1.64-2.062-3.182-4.026-3.375-9.425 2.314-.786 3.953-3.044 3.953-5.695 0-3.338-2.603-5.988-5.881-5.988-3.279 0-5.882 2.65-5.882 5.988 0 2.651 1.64 4.91 4.05 5.695.193 4.712 1.253 7.56 2.506 9.523-.482-.197-.964-.491-1.542-.687-4.628-2.062-9.064-4.026-9.835-8.934 2.218-.884 3.857-3.044 3.857-5.597 0-3.338-2.603-5.988-5.882-5.988-3.278 0-5.881 2.65-5.881 5.988 0 2.651 1.735 4.91 4.05 5.695.867 7.461 7.134 10.21 12.245 12.468 4.05 1.767 6.749 3.044 7.231 5.4v.785c0 .197 0 .491.096.688v5.203c0 2.258-1.06 4.418-2.989 5.694-1.735 1.178-3.76 1.473-5.688.785-12.824-4.81-21.116-17.377-20.634-31.22C4.627 18.063 17.74 4.711 33.842 3.925c8.485-.392 16.584 2.75 22.659 8.836 6.074 5.989 9.642 14.334 9.642 22.875 0 13.254-7.907 24.937-20.152 29.748-.964.393-1.446 1.57-1.06 2.553.385.981 1.542 1.472 2.506 1.08C61.13 63.616 70 50.46 70 35.636c0-9.622-3.954-19.046-10.8-25.723zM54.476 26.9c1.157 0 2.025.982 2.025 2.061 0 1.178-.965 2.062-2.025 2.062s-2.025-.982-2.025-2.062c-.096-1.178.868-2.061 2.025-2.061zm-14.849 2.06c0-1.178.965-2.061 2.025-2.061s2.025.982 2.025 2.061c0 1.178-.964 2.062-2.025 2.062-1.06 0-2.025-.883-2.025-2.062zm-24.2 2.062c-1.158 0-2.025-.982-2.025-2.062 0-1.178.964-2.061 2.024-2.061s2.025.982 2.025 2.061c.096 1.178-.868 2.062-2.025 2.062zm12.727 0c-1.157 0-2.025-.982-2.025-2.062 0-1.178.964-2.061 2.025-2.061 1.157 0 2.024.982 2.024 2.061.097 1.178-.867 2.062-2.024 2.062z" fill="#C25FF9"/></g><defs><clipPath id="clip0"><path fill="#fff" d="M0 0h70v70H0z"/></clipPath></defs></svg>