<svg width="70" height="70" fill="none" xmlns="http://www.w3.org/2000/svg"><g clip-path="url(#clip0)"><path d="M59.2 9.914C52.258 3.14 43.195-.394 33.65-.002 15.62.882.867 15.903 0 34.262c-.483 15.61 8.773 29.748 23.14 35.05 1.157.392 2.314.686 3.47.686a9.416 9.416 0 005.69-1.865c2.892-2.062 4.628-5.4 4.628-8.934v-8.05c0-.393-.097-.786-.29-1.08 2.025-.59 3.76-1.866 4.821-3.633 1.157-1.964 1.543-4.222 1.061-6.382a8.656 8.656 0 00-2.218-4.025l9.835-16.199c.579-.884.29-2.16-.578-2.749l-6.46-4.123c-.579-.393-1.254-.393-1.832-.099-.579.295-.965.884-1.061 1.473l-.482 3.73-2.893 1.768c-.578.393-.867.982-.964 1.669 0 .687.386 1.276.868 1.669l4.82 3.044-4.627 7.56c-3.568-1.179-7.617.195-9.642 3.533-1.157 1.964-1.543 4.222-1.06 6.382.481 2.16 1.831 4.025 3.663 5.302.964.589 2.121.981 3.182 1.178-.096.196-.193.49-.193.785v8.05c0 2.259-1.06 4.418-2.989 5.695-1.735 1.178-3.76 1.472-5.689.785-12.534-4.614-20.826-17.18-20.344-31.024C4.627 18.063 17.74 4.711 33.842 3.925c8.485-.392 16.584 2.75 22.659 8.836 6.074 5.989 9.642 14.334 9.642 22.875 0 13.254-7.907 24.937-20.152 29.748-.964.393-1.446 1.57-1.06 2.553.385.981 1.542 1.472 2.506 1.08C61.13 63.616 70 50.46 70 35.636c0-9.622-3.954-19.046-10.8-25.723zM41.46 21.695l.964-.589c.482-.294.867-.785.867-1.374l.193-1.67 2.314 1.473-2.217 3.633-2.122-1.473zM30.081 43c-.29-1.178-.096-2.357.578-3.437.868-1.374 2.314-2.16 3.76-2.16.772 0 1.64.197 2.315.688.964.589 1.735 1.669 2.025 2.847.289 1.178.096 2.356-.579 3.436-1.253 2.16-4.05 2.75-6.17 1.473-.965-.59-1.64-1.67-1.929-2.847z" fill="#04ADBF"/></g><defs><clipPath id="clip0"><path fill="#fff" d="M0 0h70v70H0z"/></clipPath></defs></svg>