<svg width="512" height="507" fill="none" xmlns="http://www.w3.org/2000/svg"><g opacity=".1"><path d="M76.19 179.771l329.187-18.068-105.152 333.802L76.19 179.771z" stroke="url(#paint0_linear)" stroke-width="5"/><path d="M284.711 290.518L76.691 179.713l222.635 314.625-14.615-203.82zm0 0L400.699 165.07" stroke="url(#paint1_linear)" stroke-opacity=".5" stroke-width="5"/><path d="M394.125 171.895c4.859 3.844 11.914 3.021 15.758-1.838 3.844-4.859 3.021-11.914-1.838-15.757-4.859-3.844-11.914-3.021-15.758 1.837-3.844 4.859-3.021 11.914 1.838 15.758z" fill="#CD40FF" stroke="#fff" stroke-width="6"/><circle cx="76.972" cy="179.934" r="11.218" transform="rotate(38.347 76.972 179.934)" fill="#04ADBF" stroke="#fff" stroke-width="6"/><circle cx="300.096" cy="492.213" r="11.218" transform="rotate(38.347 300.096 492.213)" fill="#04ADBF" stroke="#fff" stroke-width="6"/><circle cx="283.707" cy="290.634" r="11.218" transform="rotate(38.347 283.707 290.634)" fill="#04ADBF" stroke="#fff" stroke-width="6"/></g><defs><linearGradient id="paint0_linear" x1="390.315" y1="149.857" x2="154.512" y2="380.231" gradientUnits="userSpaceOnUse"><stop stop-color="#CD40FF"/><stop offset="1" stop-color="#04ADBF"/></linearGradient><linearGradient id="paint1_linear" x1="437.399" y1="21.781" x2="154.314" y2="379.618" gradientUnits="userSpaceOnUse"><stop stop-color="#CD40FF"/><stop offset="1" stop-color="#04ADBF"/></linearGradient></defs></svg>