<svg width="285" height="294" fill="none" xmlns="http://www.w3.org/2000/svg"><g opacity=".2"><path d="M52.646 82.067l183.868 32.023-100.573 170.696L52.646 82.067z" stroke="url(#paint0_linear)" stroke-width="3"/><path d="M153.53 169.747L52.93 82.099l82.664 201.928 17.936-114.28zm0 0l79.974-54.396" stroke="url(#paint1_linear)" stroke-opacity=".5" stroke-width="3"/><path d="M227.991 119.089a7.652 7.652 0 1011.955-9.555 7.652 7.652 0 10-11.955 9.555z" fill="#CD40FF" stroke="#fff" stroke-width="6"/><circle cx="53.057" cy="82.257" r="7.652" transform="rotate(51.369 53.057 82.257)" fill="#04ADBF" stroke="#fff" stroke-width="6"/><circle cx="136.289" cy="282.954" r="7.652" transform="rotate(51.369 136.289 282.954)" fill="#04ADBF" stroke="#fff" stroke-width="6"/><circle cx="152.962" cy="169.683" r="7.652" transform="rotate(51.369 152.962 169.683)" fill="#04ADBF" stroke="#fff" stroke-width="6"/></g><defs><linearGradient id="paint0_linear" x1="229.718" y1="105.635" x2="70.276" y2="202.621" gradientUnits="userSpaceOnUse"><stop stop-color="#CD40FF"/><stop offset="1" stop-color="#04ADBF"/></linearGradient><linearGradient id="paint1_linear" x1="272.022" y1="41.001" x2="70.245" y2="202.258" gradientUnits="userSpaceOnUse"><stop stop-color="#CD40FF"/><stop offset="1" stop-color="#04ADBF"/></linearGradient></defs></svg>