<svg width="625" height="584" fill="none" xmlns="http://www.w3.org/2000/svg"><mask id="a" maskUnits="userSpaceOnUse" x="0" y="0" width="625" height="584"><path fill="#C4C4C4" d="M0 0h625v584H0z"/></mask><g filter="url(#filter0_d)" mask="url(#a)"><path d="M28.378 119.646l556.645-88.878-305.057 515.513L28.378 119.646z" stroke="url(#paint0_linear)" stroke-width="5"/><path d="M283.214 283.841L29.029 119.628l249.916 425.068 4.269-260.855zm0 0L586.269 28.797" stroke="url(#paint1_linear)" stroke-opacity=".3" stroke-width="5"/><path d="M572.499 42.588c5.463 5.121 14.063 4.87 19.21-.533 5.146-5.402 4.912-13.934-.551-19.055s-14.063-4.87-19.21.532c-5.146 5.403-4.912 13.935.551 19.056z" fill="#CD40FF" stroke="#4A2A71" stroke-width="6"/><path d="M20.033 129.735c5.463 5.121 14.063 4.87 19.21-.532 5.146-5.403 4.913-13.935-.55-19.056-5.464-5.121-14.064-4.87-19.21.533-5.147 5.402-4.913 13.934.55 19.055zm250.809 422.139c5.463 5.121 14.063 4.87 19.21-.532 5.146-5.403 4.912-13.935-.551-19.056s-14.063-4.87-19.209.533c-5.147 5.402-4.913 13.934.55 19.055zm1.742-258.202c5.463 5.121 14.063 4.87 19.21-.533 5.146-5.402 4.913-13.934-.55-19.055-5.464-5.121-14.064-4.87-19.21.532-5.147 5.403-4.913 13.935.55 19.056z" fill="#04ADBF" stroke="#000" stroke-width="6"/></g><defs><linearGradient id="paint0_linear" x1="509.487" y1="-40.04" x2="109.586" y2="386.567" gradientUnits="userSpaceOnUse"><stop stop-color="#CD40FF"/><stop offset="1" stop-color="#04ADBF"/></linearGradient><linearGradient id="paint1_linear" x1="509.302" y1="-40.841" x2="109.401" y2="385.766" gradientUnits="userSpaceOnUse"><stop stop-color="#CD40FF"/><stop offset="1" stop-color="#04ADBF"/></linearGradient><filter id="filter0_d" x="-7.238" y="-3.674" width="625.668" height="582.221" filterUnits="userSpaceOnUse" color-interpolation-filters="sRGB"><feFlood flood-opacity="0" result="BackgroundImageFix"/><feColorMatrix in="SourceAlpha" values="0 0 0 0 0 0 0 0 0 0 0 0 0 0 0 0 0 0 127 0"/><feOffset/><feGaussianBlur stdDeviation="10"/><feColorMatrix values="0 0 0 0 0.0156863 0 0 0 0 0.678431 0 0 0 0 0.74902 0 0 0 0.8 0"/><feBlend in2="BackgroundImageFix" result="effect1_dropShadow"/><feBlend in="SourceGraphic" in2="effect1_dropShadow" result="shape"/></filter></defs></svg>