<svg width="188" height="188" fill="none" xmlns="http://www.w3.org/2000/svg"><g opacity=".5" clip-path="url(#clip0)"><path d="M23.15 19.678a6.05 6.05 0 101.19-12.04 6.05 6.05 0 00-1.19 12.04z" fill="#CD40FF"/><path d="M177.467 34.91a6.05 6.05 0 101.188-12.043 6.05 6.05 0 00-1.188 12.042z" fill="#04ADBF"/><path d="M91.677 94.219a6.05 6.05 0 101.188-12.041 6.05 6.05 0 00-1.188 12.041zM74.955 171.47a6.05 6.05 0 101.188-12.04 6.05 6.05 0 00-1.188 12.04z" fill="#CD40FF"/><path d="M33.78 14.648l134.246 13.25" stroke="url(#paint0_linear)" stroke-width="3" stroke-miterlimit="10"/><path d="M26.537 23.375l44.782 132.948" stroke="url(#paint1_linear)" stroke-width="3" stroke-miterlimit="10"/><path d="M81.922 157.671L172.27 37.328" stroke="url(#paint2_linear)" stroke-width="3" stroke-miterlimit="10"/><path d="M30.65 21.022l54.503 60.222" stroke="url(#paint3_linear)" stroke-opacity=".8" stroke-width="2" stroke-miterlimit="10"/><path d="M169.251 33.84l-68.547 48.853" stroke="url(#paint4_linear)" stroke-opacity=".8" stroke-width="2" stroke-miterlimit="10"/><path d="M90.307 98.05l-12.303 57.811" stroke="url(#paint5_linear)" stroke-opacity=".8" stroke-width="2" stroke-miterlimit="10"/></g><defs><linearGradient id="paint0_linear" x1="168.31" y1="27.852" x2="67.439" y2="19.386" gradientUnits="userSpaceOnUse"><stop stop-color="#04ADBF"/><stop offset="1" stop-color="#CD40FF"/></linearGradient><linearGradient id="paint1_linear" x1="55.21" y1="26.206" x2="42.646" y2="153.493" gradientUnits="userSpaceOnUse"><stop stop-color="#04ADBF"/><stop offset="1" stop-color="#CD40FF"/></linearGradient><linearGradient id="paint2_linear" x1="133.413" y1="33.493" x2="120.778" y2="161.506" gradientUnits="userSpaceOnUse"><stop stop-color="#04ADBF"/><stop offset="1" stop-color="#CD40FF"/></linearGradient><linearGradient id="paint3_linear" x1="60.582" y1="23.976" x2="55.221" y2="78.29" gradientUnits="userSpaceOnUse"><stop stop-color="#04ADBF"/><stop offset="1" stop-color="#CD40FF"/></linearGradient><linearGradient id="paint4_linear" x1="137.696" y1="30.725" x2="132.259" y2="85.808" gradientUnits="userSpaceOnUse"><stop stop-color="#04ADBF"/><stop offset="1" stop-color="#CD40FF"/></linearGradient><linearGradient id="paint5_linear" x1="87.04" y1="97.728" x2="81.271" y2="156.184" gradientUnits="userSpaceOnUse"><stop stop-color="#04ADBF"/><stop offset="1" stop-color="#CD40FF"/></linearGradient><clipPath id="clip0"><path fill="#fff" transform="rotate(5.637 8.429 171.213)" d="M0 0h171.628v171.628H0z"/></clipPath></defs></svg>