<svg width="1105" height="629" fill="none" xmlns="http://www.w3.org/2000/svg"><path d="M552 0v628.5" stroke="#6B6C6C" stroke-opacity=".4" stroke-dasharray="20 10"/><circle cx="803.38" cy="318.845" r="261" transform="rotate(-8.957 803.38 318.845)" stroke="url(#paint0_linear)" stroke-width="4"/><circle cx="295.601" cy="313.399" r="261" transform="rotate(-172.368 295.601 313.399)" stroke="url(#paint1_linear)" stroke-width="4"/><circle cx="551.111" cy="307.786" r="112" transform="rotate(9.884 551.111 307.786)" fill="url(#paint2_linear)"/><g opacity=".6" clip-path="url(#clip0)"><path d="M659 293.794l-2.324-8.761.041-.123-.041-.041-4.934-18.505v-.041l-6.768-11.75v-.082l-.082-.041-7.298-12.691v-.041l-13.456-13.51v-.082l-.122-.041-6.442-6.469-24.546-14.247-11.335-3.07-.082-.082-.04.041-15.902-4.176h-14.516l-.04-.082-.082.082h-13.659l-17.737 4.79-.04-.041-.082.082-9.46 2.538h-.04l-24.505 14.206h-.041l-6.85 6.878-.082.041v.041l-13.006 13.06-8.4 14.616-.081.041v.081l-5.709 9.908v.041l-4.485 16.785-.041.041v.123L444 293.753v28.453l3.343 12.487v.123h.041l3.955 14.82v.041l6.606 11.463v.082l.081.041 7.462 13.019v.041l14.311 14.37v.082l.082-.041 5.586 5.609 24.546 14.247 10.03 2.702.082.082.04-.041 17.125 4.626h13.211l.082.082.081-.082h14.964l17.614-4.749.082.041.081-.082 9.542-2.579h.04l24.505-14.206h.041l6.565-6.592.122-.041v-.082l13.292-13.346 7.543-13.101.082-.041v-.082l6.524-11.34v-.041l4.933-18.546.082-.041-.041-.123 2.324-8.761.041-28.453zm-.408 13.878l-6.931.123 4.811-21.903 2.12 7.984v13.796zm-84.361-39.548l22.793 39.671-46.278-.123 23.485-39.548zm-23.852 39.344l-22.1-39.507h45.585l-23.485 39.507zm-22.426-39.303l22.059 39.507-44.892.123 22.833-39.63zm22.059 39.917l-22.1 39.753-22.792-39.63 44.892-.123zm-21.733 39.957l22.1-39.752 23.485 39.752h-45.585zm45.952-.204l-23.485-39.753 46.319.123-22.834 39.63zm.367-79.874l38.572 3.398-15.82 36.15-22.752-39.548zm-46.278-.451l21.366-31.728 24.138 31.728H528.32zm-23.526 40.04l-18.593-36.191 41.385-3.398-22.792 39.589zm22.751 40.449l-40.896-4.545 18.145-35.045 22.751 39.59zm46.279.45l-23.69 30.541-21.814-30.541h45.504zm23.526-39.999l16.269 35.004-39.021 4.545 22.752-39.549zm16.147-36.764l17.247 36.109h-33.027l15.78-36.109zm-38.939-4.135l16.268-28.453 22.222 31.851-38.49-3.398zm-.327-.205l-24.097-31.687 40.366 3.193-16.269 28.494zm-46.278 0l-17.655-27.552 38.98-4.094-21.325 31.646zm-.367.205l-41.263 3.398 23.567-30.951 17.696 27.553zm-23.119 40.244h-34.453l15.901-36.109 18.552 36.109zm0 .41l-18.103 34.963-16.35-34.963h34.453zm23.119 40.203l-18.144 27.798-22.67-32.342 40.814 4.544zm.367.205l21.773 30.5-39.917-2.743 18.144-27.757zm46.278 0L590.5 375.92l-39.917 3.193 23.648-30.5zm.327-.205l38.939-4.544-22.671 31.851-16.268-27.307zm23.159-40.203h33.027l-16.758 34.922-16.269-34.922zm16.106-36.724l26.666 5.896-9.501 30.05-17.165-35.946zm-22.507-32.424l29.887 7.615-7.788 24.113-22.099-31.728zm-41.223-3.767l17.166-19.937 23.037 23.131-40.203-3.194zm-39.673 4.094l21.692-24.031 17.166 19.937-38.858 4.094zm-24.464 31.401l-8.114-24.031 31.6-6.796-23.486 30.827zm-16.228 36.642l-9.949-30.05 25.729-5.896-15.78 35.946zm16.269 35.904l-26.177-4.994 9.949-29.805 16.228 34.799zm22.956 32.916l-31.111-8.188 8.563-24.032 22.548 32.22zm40.773 3.275l-17.165 20.88-22.589-23.582 39.754 2.702zm40.57-3.152l-23.037 23.582-16.717-20.43 39.754-3.152zm23.567-32.302l8.114 24.482-30.702 7.247 22.588-31.729zm17.125-35.536l9.052 28.986-25.728 5.772 16.676-34.758zm9.786-30.664l10.357 29.927h-19.776l9.419-29.927zm-27.033-6.837l7.788-24.155 1.019 1.188 17.778 28.822-26.585-5.855zm-22.589-32.465l9.419-16.213 20.306 23.787-29.725-7.574zm-.366-.205l-22.915-23.008 32.333 6.755-9.418 16.253zm-41.1-3.234l-17.125-19.897h34.25l-17.125 19.897zm-39.714 4.135l-9.46-17.605 31.029-6.304-21.569 23.909zm-9.786-17.359l9.46 17.604-31.518 6.755 22.058-24.359zm-14.556 49.128l-25.687 5.895 17.573-29.845 8.114 23.95zm-16.228 36.764h-19.286l9.419-29.886 9.867 29.886zm0 .41l-9.867 29.64-9.419-29.64h19.286zm16.677 35.577l-8.563 23.991-17.573-28.986 26.136 4.995zm23.077 32.916l-9.418 16.703-21.57-24.81 30.988 8.107zm.327.204l22.466 23.459-31.885-6.755 9.419-16.704zm40.651 2.784l16.677 20.388-33.802.451 17.125-20.839zm40.652-3.234l8.521 16.703-31.436 6.756 22.915-23.459zm8.888 16.499l-8.522-16.663 30.54-7.205-22.018 23.868zm14.516-49.169l25.769-5.773-.327.901-17.328 29.313-8.114-24.441zm17.125-35.577h19.775l-10.764 28.862-9.011-28.862zm9.785-30.583l15.087 7.492-4.852 22.108-10.235-29.6zm-18.226-29.763l-.774-.901 22.344 7.82-3.833 21.944-17.737-28.863zm-21.773-25.506l22.507 6.1-2.324 17.564-20.183-23.664zm-33.353-7.41l13.782-10.112 18.348 16.826-32.13-6.714zm-35.065-.123l18.389-14.288 15.657 14.288h-34.046zm-31.722 6.346l18.593-15.844 12.069 9.58-30.662 6.264zm-23.16 24.851l1.101-17.154 20.632-6.919-21.733 24.073zm-18.144 30.582l-2.242-19.979 19.612-9.539-17.37 29.518zm-9.745 30.418l-2.691-23.622 11.947-5.773-9.256 29.395zm9.297 31.197l-11.458-3.685 2.161-25.505 9.297 29.19zm17.859 29.6l-18.756-6.878 1.345-21.74 17.411 28.618zm22.099 25.587l-19.001-4.995-2.324-19.569 21.325 24.564zm32.945 7.41l-11.987 9.99-19.653-16.704 31.64 6.714zm34.617-.368l-16.146 14.984-17.452-14.534 33.598-.45zm32.293-6.837l-15.739 17.072-15.535-10.358 31.274-6.714zm23.078-24.441l1.671 18.259-23.526 5.527 21.855-23.786zm17.94-30.132l.204-.614 4.444 22.394-21.977 7.451 17.329-29.231zm11.295-30.337l4.852 22.149-15.535 6.468 10.683-28.617zm-.041-42.209l4.852 18.136-15.127-7.492 3.833-21.903 6.442 11.259zm-7.054-12.241l-22.548-7.902 2.324-17.645 13.17 13.224 7.054 12.323zm-21.08-26.366l-22.344-6.018 3.262-7.533 13.17 7.656 5.912 5.895zm-19.449-13.797l-3.262 7.533-18.185-16.703 10.56 2.825 10.887 6.345zm-22.63-9.457l-13.822 10.112-15.657-14.247h13.985l15.494 4.135zm-43.668-4.135h13.088l-18.348 14.288-.041-.041h-.041l-12.069-9.62 17.411-4.627zm-27.237 7.329l8.562-2.293-18.47 15.721-3.833-5.445 13.741-7.983zm-24.424 14.124l10.275-5.977 3.833 5.445-20.387 6.837 6.279-6.305zm-19.938 20.02l12.681-12.733-1.101 17.236-19.653 9.539 8.073-14.042zm-14.108 24.523l5.382-9.335 2.243 19.979-12.028 5.773 4.403-16.417zm-4.77 17.891l2.65 23.417-5.178-.123v-13.837l2.528-9.457zm-2.528 37.787v-14.083l5.178.123-2.161 25.26-3.017-11.3zm7.298 27.348l-3.873-14.533 11.498 3.684-1.346 21.739-6.279-10.89zm6.891 11.955l18.715 6.878.082.041 2.324 19.61-13.904-13.961-7.217-12.568zm51.579 46.712l-24.424-14.124-5.096-5.117 19 4.994 19.653 16.704-9.133-2.457zm27.237 7.329l-16.84-4.545 11.988-10.03 17.451 14.534h-12.599v.041zm28.174 0h-14.474l16.105-14.984.041-.041 15.535 10.358-17.207 4.667zm27.237-7.329l-8.888 2.375 15.616-16.949 4.118 8.27-10.846 6.304zm24.424-14.124l-13.211 7.656-4.159-8.27 23.404-5.486-6.034 6.1zm19.938-20.02l-13.048 13.101-1.671-18.3 21.977-7.451-7.258 12.65zm14.108-24.523l-6.279 10.89-4.486-22.558h.041v-.041l15.576-6.509-4.852 18.218zm5.178-19.405l-4.811-21.903 6.931-.123v14.083l-2.12 7.943z" fill="url(#paint3_radial)"/></g><defs><linearGradient id="paint0_linear" x1="513.88" y1="279.845" x2="1086.38" y2="279.845" gradientUnits="userSpaceOnUse"><stop stop-color="#04ADBF"/><stop offset=".635" stop-color="#CD40FF" stop-opacity="0"/></linearGradient><linearGradient id="paint1_linear" x1="6.101" y1="274.399" x2="578.601" y2="274.399" gradientUnits="userSpaceOnUse"><stop offset=".073" stop-color="#04ADBF"/><stop offset=".667" stop-color="#CD40FF" stop-opacity="0"/></linearGradient><linearGradient id="paint2_linear" x1="581.111" y1="195.786" x2="322.611" y2="500.786" gradientUnits="userSpaceOnUse"><stop stop-color="#04ADBF"/><stop offset="1" stop-color="#CD40FF"/></linearGradient><radialGradient id="paint3_radial" cx="0" cy="0" r="1" gradientUnits="userSpaceOnUse" gradientTransform="matrix(107.527 0 0 107.966 551.495 307.998)"><stop stop-color="#BF0487"/><stop offset=".975" stop-color="#04ADBF"/></radialGradient><clipPath id="clip0"><path fill="#fff" transform="translate(444 200)" d="M0 0h215v216H0z"/></clipPath></defs></svg>