<svg xmlns="http://www.w3.org/2000/svg" width="32.963" height="14.201" viewBox="0 0 32.963 14.201">
  <path id="Icon_metro-arrow-right" data-name="Icon metro-arrow-right" d="M-30.359,19.639l-6.054-5.917a1.165,1.165,0,0,1,0-1.674l6.054-5.917a1.231,1.231,0,0,1,1.712,0,1.165,1.165,0,0,1,0,1.674l-3.987,3.9H-5.016A1.2,1.2,0,0,1-3.8,12.885a1.2,1.2,0,0,1-1.211,1.183H-32.634l3.987,3.9a1.166,1.166,0,0,1,.355.837,1.166,1.166,0,0,1-.355.837A1.231,1.231,0,0,1-30.359,19.639Z" transform="translate(-3.805 19.985) rotate(180)" fill="#cbcbcb"/>
</svg>
