<svg version="1.1" id="Layer_1" width="171.3" height="96.9" xmlns="http://www.w3.org/2000/svg" xmlns:xlink="http://www.w3.org/1999/xlink" x="0px" y="0px"
	 viewBox="0 0 171.3 96.9" style="enable-background:new 0 0 171.3 96.9;" xml:space="preserve">
<style type="text/css">
	.st0{opacity:0.81;fill:#FFFFFF;enable-background:new    ;}
	.st1{filter:url(#Path_3);}
	.st2{fill:#04ADBF;}
</style>
<filter  filterUnits="userSpaceOnUse" height="96.873" id="Path_3" width="137.822" x="16.716" y="0">
	<feOffset  input="SourceAlpha"></feOffset>
	<feGaussianBlur  result="blur" stdDeviation="10"></feGaussianBlur>
	<feFlood  flood-color="#04adbf" flood-opacity="0"></feFlood>
	<feComposite  in2="blur" operator="in"></feComposite>
	<feComposite  in="SourceGraphic" operator="over"></feComposite>
</filter>
<g id="логотип" transform="translate(20890.261 23289)">
	<path id="Path_1" class="st0" d="M-20816.8-23222.9c-0.4,0-0.8,0.2-1.1,0.5l-7.7,9.5c-0.1,0.2-0.3,0.3-0.5,0.5
		c-0.3,0.3-0.7,0.4-1.1,0.2c-0.1,0-0.1-0.1-0.2-0.2l-0.5-0.5l-8.3-9.5c-0.3-0.4-0.7-0.6-1.1-0.6c-0.8,0-1.4,0.6-1.4,1.4
		c0,0,0,0,0,0.1c0,0.2,0,0.4,0.1,0.5c0.1,0.2,0.2,0.3,0.3,0.5l8.5,9.9c0.4,0.4,0.8,0.8,1.3,1.1c0.5,0.3,1.1,0.4,1.8,0.4
		c0.6,0,1.3-0.1,1.9-0.4c0.5-0.3,1-0.7,1.3-1.1l8-9.9l0,0c0.2-0.3,0.3-0.6,0.3-0.9c0-0.4-0.1-0.8-0.4-1
		C-20816.1-23222.7-20816.4-23222.9-20816.8-23222.9z M-20797.8-23218.1c0.2-0.4,0.6-0.7,1-0.9c0.5-0.3,1.1-0.4,1.8-0.4h15
		c0.8,0,1.4-0.6,1.4-1.4c0-0.8-0.6-1.4-1.4-1.4c0,0,0,0,0,0h-15.6c-0.8,0-1.7,0.2-2.4,0.6c-0.7,0.4-1.3,0.9-1.8,1.5
		c-0.5,0.7-0.9,1.4-1.1,2.2c-0.2,0.8-0.4,1.6-0.4,2.4c0,0.8,0.1,1.5,0.4,2.3c0.2,0.8,0.6,1.5,1,2.2c0.4,0.6,1,1.1,1.7,1.6
		c0.7,0.4,1.5,0.7,2.3,0.6h15.9c0.8,0,1.4-0.6,1.4-1.4c0-0.8-0.6-1.4-1.4-1.4c0,0,0,0,0,0h-15c-0.6,0-1.2-0.1-1.8-0.4
		c-0.4-0.2-0.8-0.5-1-0.9c-0.2-0.4-0.4-0.8-0.5-1.2c-0.1-0.4-0.1-0.8-0.1-1.2c0-0.4,0-0.8,0.1-1.2
		C-20798.2-23217.4-20798-23217.8-20797.8-23218.1L-20797.8-23218.1z M-20749.5-23220.1c-0.4-0.6-1-1.1-1.7-1.5
		c-0.7-0.4-1.5-0.7-2.3-0.7h-13.9c-0.8,0-1.7,0.2-2.4,0.6c-0.7,0.4-1.3,0.9-1.8,1.5c-0.5,0.7-0.9,1.4-1.1,2.2
		c-0.2,0.8-0.4,1.6-0.4,2.4c0,0.8,0.1,1.5,0.4,2.3c0.2,0.7,0.6,1.4,1,2.1c0.4,0.6,1,1.1,1.7,1.5c0.7,0.4,1.5,0.7,2.3,0.7h13.8
		c0.8,0,1.7-0.2,2.4-0.6c0.7-0.4,1.3-0.9,1.8-1.5c0.5-0.7,0.9-1.4,1.1-2.2c0.2-0.8,0.4-1.6,0.4-2.4c0-0.8-0.1-1.5-0.4-2.3
		C-20748.7-23218.8-20749-23219.5-20749.5-23220.1L-20749.5-23220.1z M-20751-23214.5c-0.1,0.4-0.3,0.8-0.5,1.2
		c-0.2,0.4-0.6,0.7-1,0.9c-0.5,0.3-1.1,0.4-1.8,0.4h-12.3c-0.6,0-1.2-0.1-1.8-0.4c-0.4-0.2-0.8-0.5-1-0.9c-0.2-0.4-0.4-0.8-0.5-1.2
		c-0.1-0.4-0.1-0.8-0.1-1.2c0-0.4,0-0.8,0.1-1.2c0.1-0.4,0.3-0.8,0.5-1.2c0.2-0.4,0.6-0.7,1-0.9c0.5-0.3,1.1-0.4,1.8-0.4h12.3
		c0.6,0,1.2,0.1,1.8,0.4c0.4,0.2,0.8,0.5,1,0.9c0.2,0.4,0.4,0.8,0.5,1.2C-20750.9-23216.2-20750.9-23215.3-20751-23214.5
		L-20751-23214.5z M-20869-23222.4c-0.8,0-1.4,0.6-1.4,1.4c0,0,0,0,0,0.1v8l-17.9-9.3c-0.3-0.2-0.7-0.4-1-0.3c-0.4,0-0.8,0.2-1,0.5
		c-0.2,0.3-0.3,0.7-0.3,1v10.4c0,0.4,0.1,0.8,0.4,1c0.3,0.3,0.6,0.4,1,0.4c0.4,0,0.8-0.1,1-0.4c0.3-0.3,0.4-0.6,0.4-1v-8.2l17.8,9.3
		c0.3,0.2,0.6,0.3,0.9,0.3c0.4,0,0.8-0.1,1-0.4c0.2-0.2,0.3-0.4,0.3-0.6v-0.4l0,0v-10.3c0-0.4-0.1-0.8-0.4-1
		C-20868.3-23222.2-20868.6-23222.4-20869-23222.4z M-20719.6-23221.9c-0.6-0.6-1.5-0.6-2,0c-0.3,0.3-0.4,0.7-0.4,1.1v8l-17.9-9.3
		c-0.3-0.2-0.7-0.4-1-0.3c-0.4,0-0.8,0.2-1,0.5c-0.2,0.3-0.3,0.7-0.3,1v10.4c0,0.8,0.6,1.4,1.4,1.4c0.8,0,1.4-0.6,1.4-1.4
		c0,0,0,0,0,0v-8.2l17.8,9.3c0.3,0.2,0.6,0.3,0.9,0.3c0.4,0,0.8-0.1,1-0.4c0.2-0.2,0.3-0.4,0.3-0.6v-0.4l0,0v-10.3
		C-20719.3-23221.2-20719.3-23221.6-20719.6-23221.9L-20719.6-23221.9z M-20808.3-23222.4c-0.8,0-1.4,0.6-1.4,1.4c0,0,0,0,0,0.1
		v10.4c0,0.8,0.6,1.4,1.4,1.4c0.8,0,1.4-0.6,1.4-1.4c0,0,0,0,0,0v-10.4c0-0.4-0.1-0.8-0.4-1
		C-20807.6-23222.2-20808-23222.3-20808.3-23222.4z M-20840.6-23211.5l-7.4-9.9c-0.4-0.5-0.8-0.8-1.3-1.1c-0.5-0.3-1.1-0.4-1.8-0.4
		c-0.6,0-1.3,0.1-1.9,0.4c-0.5,0.3-1,0.7-1.3,1.1l-7.3,9.9l0,0c-0.2,0.3-0.3,0.6-0.3,0.9c0,0.8,0.6,1.4,1.4,1.4c0,0,0,0,0.1,0
		c0.4,0,0.8-0.2,1.1-0.5l2.1-2.8h12.5l2.1,2.7c0.2,0.4,0.7,0.6,1.1,0.6c0.8,0,1.4-0.6,1.4-1.4c0,0,0,0,0-0.1c0-0.2,0-0.4-0.1-0.5
		C-20840.4-23211.2-20840.5-23211.4-20840.6-23211.5z M-20855.4-23214.8l3.2-4.2c0.1-0.2,0.3-0.3,0.5-0.5c0.3-0.3,0.7-0.4,1.1-0.2
		c0.1,0,0.1,0.1,0.2,0.2l0.5,0.5l3.2,4.2H-20855.4z"/>
	<g transform="matrix(1, 0, 0, 1, -20890.26, -23289)" class="st1">
		<path id="Path_3-2_1_" class="st2" d="M121.4,16.9h-0.7c-2.4,0-4.4,0.1-5.6,2.2l-11,20.3c-1,1.9-2.7,2.1-4,0.8l0,0l-0.1-0.1
			c-0.1-0.2-0.3-0.3-0.4-0.5c0,0-10.2-14.9-10.7-15.7c-1-1.6-2.3-3-3.8-4.2l0,0c-2.2-1.6-5.3-2.8-10.4-2.8c-8.4,0-12.2,3.5-14.6,8
			c-0.2,0.5-13.4,25-13.4,25c-1.2,2.1-0.1,3.8,2.3,3.8h0.7c2.4,0,4.4-0.1,5.6-2.2l11-20.3c1-1.9,2.7-2.1,4-0.8l0,0l0.1,0.1
			c0.1,0.2,0.3,0.3,0.4,0.5c0,0,10.2,14.9,10.7,15.7c1,1.6,2.3,3,3.8,4.2l0,0c2.3,1.8,5.3,2.9,10.4,2.9c8.4,0,12.2-3.5,14.6-8
			c0.2-0.4,13.5-24.9,13.5-24.9C124.7,18.7,123.8,16.9,121.4,16.9z M53,50.2c-0.3,0.5-0.6,0.8-3.2,0.8h-0.6l0.1-0.1
			c5-9.2,8.2-15.4,8.9-16.7c1.7-2.8,3.9-4.7,5.6-4.7H64L53,50.2z M95.6,51.1c-5.7,0-8.3-1.6-10.4-3.9l0,0c-0.5-0.6-1-1.4-1.6-2.1
			c-0.5-0.7-1.2-1.7-2.1-2.9L79,38.4l-0.3-0.5L73,29.5c-0.2-0.3-0.4-0.5-0.6-0.7c-3.4-4.3-7.4-3.7-10.6-2.1c0.7-2.3,5.7-7,13-7
			c5.7,0,8.3,1.6,10.4,3.9l0,0c0.5,0.6,1,1.4,1.6,2.1s1.2,1.7,2.1,2.9l2.5,3.8l0.3,0.5l5.8,8.4c0.2,0.3,0.4,0.5,0.6,0.7
			c3.4,4.3,7.4,3.7,10.6,2.1C107.8,46.3,102.9,51.1,95.6,51.1L95.6,51.1z M121.2,19.7c-5,9.2-8.2,15.4-8.9,16.7
			c-1.7,2.8-3.9,4.7-5.6,4.7h-0.4l11.2-20.6c0.3-0.5,0.6-0.8,3.2-0.8h0.6L121.2,19.7z"/>
	</g>
</g>
</svg>
