<svg xmlns="http://www.w3.org/2000/svg" xmlns:xlink="http://www.w3.org/1999/xlink" width="144.422" height="100" viewBox="0 0 144.422 100">
  <defs>
    <filter id="Path_114" x="0" y="0" width="144.422" height="100" filterUnits="userSpaceOnUse">
      <feOffset input="SourceAlpha"/>
      <feGaussianBlur stdDeviation="10" result="blur"/>
      <feFlood flood-color="#04adbf" flood-opacity="0"/>
      <feComposite operator="in" in2="blur"/>
      <feComposite in="SourceGraphic"/>
    </filter>
  </defs>
  <g transform="matrix(1, 0, 0, 1, 0, 0)" filter="url(#Path_114)">
    <path id="Path_114-2" data-name="Path 114" d="M127.47,1.9h-.8c-2.614,0-4.773.114-6.023,2.386L108.72,26.332c-1.136,2.045-2.955,2.273-4.318.909h0l-.114-.114c-.114-.227-.341-.341-.455-.568,0,0-11.023-16.136-11.591-17.045a17.3,17.3,0,0,0-4.091-4.545h0C85.766,3.264,82.356,1.9,76.9,1.9c-9.091,0-13.182,3.75-15.8,8.636C60.879,11.1,46.561,37.7,46.561,37.7c-1.25,2.273-.114,4.091,2.5,4.091h.8c2.614,0,4.773-.114,6.023-2.386L67.811,17.355c1.136-2.045,2.955-2.273,4.318-.909h0l.114.114c.114.227.341.341.455.568,0,0,11.023,16.136,11.591,17.045a17.3,17.3,0,0,0,4.091,4.545h0c2.5,1.932,5.8,3.182,11.25,3.182,9.091,0,13.182-3.75,15.8-8.636.227-.455,14.659-27.045,14.659-27.045C131.106,3.832,130.084,1.9,127.47,1.9Zm-74.2,36.136c-.341.568-.682.909-3.523.909h-.682l.114-.114c5.455-10,8.864-16.7,9.659-18.068,1.818-3.068,4.2-5.114,6.023-5.114h.455Zm46.25.909c-6.136,0-8.977-1.7-11.25-4.2h0c-.568-.682-1.136-1.477-1.7-2.273s-1.25-1.818-2.273-3.182L81.561,25.2l-.341-.568-6.25-9.091a4.943,4.943,0,0,0-.682-.8c-3.636-4.659-8.068-3.977-11.477-2.273.8-2.5,6.136-7.614,14.091-7.614,6.136,0,8.977,1.7,11.25,4.2h0c.568.682,1.136,1.477,1.7,2.273s1.25,1.818,2.273,3.182L94.856,18.6l.341.568,6.25,9.091a4.942,4.942,0,0,0,.682.8c3.636,4.659,8.068,3.977,11.477,2.273C112.811,33.832,107.47,38.945,99.515,38.945ZM127.243,4.968c-5.455,10-8.864,16.7-9.659,18.068-1.818,3.068-4.2,5.114-6.023,5.114h-.455L123.265,5.764c.341-.568.682-.909,3.523-.909h.682Z" transform="translate(-16.05 28.1)" fill="#fff"/>
  </g>
</svg>
