<?xml version="1.0" encoding="utf-8"?>
<!-- Generator: Adobe Illustrator 25.0.0, SVG Export Plug-In . SVG Version: 6.00 Build 0)  -->
<svg version="1.1" id="Layer_1" xmlns="http://www.w3.org/2000/svg" width="161.5" height="94.8" xmlns:xlink="http://www.w3.org/1999/xlink" x="0px" y="0px"
	 viewBox="0 0 161.5 94.8" style="enable-background:new 0 0 161.5 94.8;" xml:space="preserve">
<style type="text/css">
	.st0{opacity:0.81;fill:#FFFFFF;enable-background:new    ;}
	.st1{filter:url(#Path_3);}
	.st2{fill:#FFFFFF;}
</style>
<filter  filterUnits="userSpaceOnUse" height="94.76" id="Path_3" width="133.364" x="14.04" y="0">
	<feOffset  input="SourceAlpha"></feOffset>
	<feGaussianBlur  result="blur" stdDeviation="10"></feGaussianBlur>
	<feFlood  flood-color="#04adbf" flood-opacity="0"></feFlood>
	<feComposite  in2="blur" operator="in"></feComposite>
	<feComposite  in="SourceGraphic" operator="over"></feComposite>
</filter>
<g id="логотип" transform="translate(20890.261 23289)">
	<path id="Path_1" class="st0" d="M-20820.6-23225c-0.4,0-0.8,0.2-1.1,0.5l-7.3,9c-0.1,0.2-0.3,0.3-0.5,0.5c-0.2,0.3-0.7,0.4-1,0.1
		c-0.1,0-0.1-0.1-0.1-0.1l-0.5-0.5l-7.8-9c-0.2-0.4-0.6-0.6-1.1-0.6c-0.7,0-1.3,0.6-1.4,1.3c0,0,0,0,0,0.1c0,0.2,0,0.3,0.1,0.5
		c0.1,0.2,0.2,0.3,0.3,0.5l8,9.3c0.4,0.4,0.8,0.8,1.3,1.1c0.5,0.3,1.1,0.4,1.7,0.4c0.6,0,1.2-0.1,1.8-0.4c0.5-0.3,0.9-0.6,1.3-1.1
		l7.5-9.3l0,0c0.2-0.2,0.3-0.6,0.3-0.9c0-0.4-0.1-0.7-0.4-1C-20819.9-23224.8-20820.3-23225-20820.6-23225z M-20802.7-23220.5
		c0.2-0.4,0.6-0.7,1-0.9c0.5-0.3,1.1-0.4,1.7-0.4h14.1c0.8,0,1.4-0.6,1.4-1.4c0-0.8-0.6-1.4-1.4-1.4h-14.7c-0.8,0-1.6,0.2-2.2,0.6
		c-0.6,0.4-1.2,0.9-1.7,1.5c-0.5,0.6-0.8,1.3-1.1,2c-0.2,0.7-0.4,1.5-0.4,2.2c0,0.7,0.1,1.5,0.4,2.1c0.2,0.7,0.5,1.4,1,2
		c0.4,0.6,0.9,1.1,1.6,1.5c0.6,0.4,1.4,0.6,2.1,0.6h15c0.8,0,1.4-0.6,1.4-1.4c0-0.8-0.6-1.4-1.4-1.4h-14.1c-0.6,0-1.2-0.1-1.7-0.4
		c-0.4-0.2-0.8-0.5-1-0.9c-0.2-0.4-0.4-0.8-0.5-1.2c-0.1-0.4-0.1-0.8-0.1-1.2c0-0.4,0-0.8,0.1-1.2
		C-20803.1-23219.8-20802.9-23220.1-20802.7-23220.5L-20802.7-23220.5z M-20757.2-23222.3c-0.4-0.6-0.9-1.1-1.6-1.5
		c-0.6-0.4-1.4-0.6-2.1-0.7h-13.1c-0.8,0-1.6,0.2-2.2,0.6c-0.6,0.4-1.2,0.9-1.7,1.5c-0.5,0.6-0.8,1.3-1.1,2
		c-0.2,0.7-0.4,1.5-0.4,2.2c0,0.7,0.1,1.5,0.4,2.1c0.2,0.7,0.6,1.3,1,1.9c0.4,0.6,0.9,1.1,1.6,1.5c0.6,0.4,1.4,0.6,2.1,0.7h13
		c0.8,0,1.6-0.2,2.2-0.6c0.6-0.4,1.2-0.9,1.7-1.5c0.5-0.6,0.8-1.3,1.1-2c0.2-0.7,0.4-1.5,0.4-2.2c0-0.7-0.1-1.5-0.4-2.1
		C-20756.4-23221.1-20756.7-23221.7-20757.2-23222.3L-20757.2-23222.3z M-20758.6-23217.1c-0.1,0.4-0.3,0.8-0.5,1.2
		c-0.2,0.4-0.6,0.7-1,0.9c-0.5,0.3-1.1,0.4-1.7,0.4h-11.6c-0.6,0-1.2-0.1-1.7-0.4c-0.4-0.2-0.8-0.5-1-0.9c-0.2-0.4-0.4-0.8-0.5-1.2
		c-0.1-0.4-0.1-0.8-0.1-1.2c0-0.4,0-0.8,0.1-1.2c0.1-0.4,0.3-0.8,0.5-1.2c0.2-0.4,0.6-0.7,1-0.9c0.5-0.3,1.1-0.4,1.7-0.4h11.6
		c0.6,0,1.2,0.1,1.7,0.4c0.4,0.2,0.8,0.5,1,0.9c0.2,0.4,0.4,0.8,0.5,1.2C-20758.5-23218.6-20758.5-23217.8-20758.6-23217.1
		L-20758.6-23217.1z M-20869.8-23224.5c-0.7,0-1.3,0.6-1.4,1.3c0,0,0,0,0,0.1v7.5l-16.8-8.8c-0.3-0.2-0.6-0.3-1-0.3
		c-0.4,0-0.7,0.2-1,0.5c-0.2,0.3-0.3,0.6-0.3,1v9.8c0,0.4,0.1,0.7,0.4,1c0.3,0.3,0.6,0.4,1,0.4c0.4,0,0.7-0.1,1-0.4
		c0.3-0.3,0.4-0.6,0.4-1v-7.7l16.7,8.8c0.3,0.2,0.6,0.3,0.9,0.3c0.4,0,0.7-0.1,1-0.4c0.2-0.1,0.3-0.4,0.3-0.6v-0.4l0,0v-9.7
		c0-0.4-0.1-0.7-0.4-1C-20869.2-23224.3-20869.5-23224.5-20869.8-23224.5L-20869.8-23224.5z M-20729-23224c-0.5-0.5-1.4-0.5-1.9,0
		c-0.3,0.3-0.4,0.6-0.4,1v7.5l-16.8-8.8c-0.3-0.2-0.6-0.3-1-0.3c-0.4,0-0.7,0.2-1,0.5c-0.2,0.3-0.3,0.6-0.3,1v9.8
		c0,0.8,0.6,1.4,1.4,1.4c0.8,0,1.4-0.6,1.4-1.4c0,0,0,0,0,0v-7.7l16.8,8.8c0.3,0.2,0.6,0.3,0.9,0.3c0.4,0,0.7-0.1,1-0.4
		c0.2-0.1,0.3-0.4,0.3-0.6v-0.4l0,0v-9.7C-20728.7-23223.3-20728.8-23223.7-20729-23224L-20729-23224z M-20812.7-23224.5
		c-0.7,0-1.3,0.6-1.4,1.3c0,0,0,0,0,0.1v9.8c0,0.8,0.6,1.4,1.4,1.4c0.8,0,1.4-0.6,1.4-1.4c0,0,0,0,0,0v-9.8c0-0.4-0.1-0.7-0.4-1
		C-20812-23224.3-20812.3-23224.4-20812.7-23224.5z M-20843-23214.2l-7-9.3c-0.3-0.4-0.8-0.8-1.3-1.1c-0.5-0.3-1.1-0.4-1.7-0.4
		c-0.6,0-1.2,0.1-1.8,0.4c-0.5,0.3-0.9,0.6-1.3,1.1l-6.9,9.3l0,0c-0.2,0.2-0.3,0.6-0.3,0.9c0,0.7,0.6,1.3,1.3,1.4c0,0,0,0,0.1,0
		c0.4,0,0.8-0.2,1.1-0.5l1.9-2.6h11.8l1.9,2.5c0.2,0.4,0.6,0.6,1.1,0.6c0.7,0,1.3-0.6,1.4-1.3c0,0,0,0,0-0.1c0-0.2,0-0.3-0.1-0.5
		C-20842.8-23214-20842.9-23214.1-20843-23214.2z M-20857.1-23217.4l3-4c0.1-0.2,0.3-0.3,0.5-0.5c0.2-0.3,0.7-0.4,1-0.1
		c0.1,0,0.1,0.1,0.1,0.1l0.5,0.5l3,4H-20857.1z"/>
	<g transform="matrix(1, 0, 0, 1, -20890.26, -23289)" class="st1">
		<path id="Path_3-2_1_" class="st2" d="M114.8,17.7h-0.7c-2.3,0-4.1,0.1-5.2,2.1L98.5,38.9c-1,1.8-2.6,2-3.8,0.8l0,0l-0.1-0.1
			c-0.1-0.2-0.3-0.3-0.4-0.5c0,0-9.6-14-10.1-14.8c-0.9-1.5-2.1-2.9-3.6-3.9l0,0c-2.1-1.5-5-2.7-9.8-2.7c-7.9,0-11.5,3.3-13.7,7.5
			c-0.2,0.5-12.6,23.6-12.6,23.6c-1.1,2-0.1,3.6,2.2,3.6h0.7c2.3,0,4.1-0.1,5.2-2.1L63,31.1c1-1.8,2.6-2,3.8-0.8l0,0l0.1,0.1
			c0.1,0.2,0.3,0.3,0.4,0.5c0,0,9.6,14,10.1,14.8c0.9,1.5,2.1,2.9,3.6,3.9l0,0c2.2,1.7,5,2.8,9.8,2.8c7.9,0,11.5-3.3,13.7-7.5
			c0.2-0.4,12.7-23.5,12.7-23.5C118,19.3,117.1,17.7,114.8,17.7z M50.3,49.1c-0.3,0.5-0.6,0.8-3.1,0.8h-0.6l0.1-0.1
			c4.7-8.7,7.7-14.5,8.4-15.7c1.6-2.7,3.7-4.4,5.2-4.4h0.4L50.3,49.1z M90.5,49.9c-5.3,0-7.8-1.5-9.8-3.7l0,0c-0.5-0.6-1-1.3-1.5-2
			c-0.5-0.7-1.1-1.6-2-2.8l-2.4-3.6l-0.3-0.5l-5.4-7.9c-0.2-0.3-0.4-0.5-0.6-0.7c-3.2-4-7-3.5-10-2c0.7-2.2,5.3-6.6,12.2-6.6
			c5.3,0,7.8,1.5,9.8,3.7l0,0c0.5,0.6,1,1.3,1.5,2s1.1,1.6,2,2.8l2.4,3.6l0.3,0.5l5.4,7.9c0.2,0.3,0.4,0.5,0.6,0.7c3.2,4,7,3.5,10,2
			C102.1,45.4,97.4,49.9,90.5,49.9L90.5,49.9z M114.6,20.3c-4.7,8.7-7.7,14.5-8.4,15.7c-1.6,2.7-3.7,4.4-5.2,4.4h-0.4L111.1,21
			c0.3-0.5,0.6-0.8,3.1-0.8h0.6L114.6,20.3z"/>
	</g>
</g>
</svg>
