<svg xmlns="http://www.w3.org/2000/svg" width="64.188" height="47.351" viewBox="0 0 64.188 47.351">
  <path id="Path_698" data-name="Path 698" d="M9.1-33.558a53.651,53.651,0,0,0,12.72-18.8q-5.936-1.272-8.056-4.876a13.786,13.786,0,0,1-2.12-7,11.182,11.182,0,0,1,3.745-8.55A11.7,11.7,0,0,1,23.94-76.1,11.748,11.748,0,0,1,32.7-72.282a13.468,13.468,0,0,1,3.816,9.328q.424,8.762-6.713,18.514A55.6,55.6,0,0,1,12.633-28.894Zm36.746.141A53.991,53.991,0,0,0,58.424-52.072q-5.512-1.272-7.914-4.947a12.969,12.969,0,0,1-2.4-7.067,11.471,11.471,0,0,1,3.745-8.55,11.346,11.346,0,0,1,8.833-3.321,11.9,11.9,0,0,1,8.621,3.816,13.2,13.2,0,0,1,3.957,9.328q.424,8.338-6.572,18.09a57.813,57.813,0,0,1-17.313,15.97Z" transform="translate(-9.1 76.104)" fill="#bf0487"/>
</svg>
