<svg width="100" height="100" viewBox="0 0 100 100" fill="none" xmlns="http://www.w3.org/2000/svg">
<g clip-path="url(#clip0)">
<path d="M84.573 14.1657C74.6556 4.48829 61.708 -0.560803 48.0716 0.000207078C22.314 1.26248 1.23965 22.7211 -2.38996e-05 48.9483C-0.688729 71.2485 12.5344 91.4448 33.0578 99.0184C34.7107 99.5794 36.3636 100 38.0165 100C40.3581 100 42.562 99.4392 44.7658 98.1769C48.6226 96.0731 51.5151 92.2863 52.4793 87.9385C52.8925 86.2555 53.0303 80.6454 51.1019 78.2611L45.4545 71.6692L48.3471 65.3578C48.6226 65.3578 48.898 65.3578 49.0358 65.3578C64.6005 65.3578 77.4104 54.9792 77.4104 42.0759C77.4104 29.1727 64.7383 18.794 49.0358 18.794C33.3333 18.794 20.5234 29.4532 20.5234 42.2162C20.5234 46.564 22.0385 50.9118 24.7934 54.5584C24.7934 54.6987 24.9311 54.6987 24.9311 54.8389L39.6694 73.9132C39.6694 73.9132 39.6694 73.9132 39.6694 74.0535L46.4187 81.9076C46.8319 82.7492 46.9697 85.6945 46.6942 86.8165C46.1432 89.6215 44.2149 92.0058 41.7355 93.2681C39.5317 94.5304 36.9146 94.6706 34.573 93.8291C16.6666 86.9567 4.82091 69.0044 5.50962 49.2288C6.61155 25.8067 25.3443 6.73232 48.3471 5.6103C60.4683 5.04929 72.0385 9.53737 80.7162 18.233C89.3939 26.7884 94.4903 38.7099 94.4903 50.9118C94.4903 69.8459 83.1956 86.536 65.7025 93.4083C64.325 93.9693 63.6363 95.6524 64.1873 97.0549C64.7383 98.4574 66.3912 99.1587 67.7686 98.5977C87.3278 90.8838 100 72.09 100 50.9118C100 37.1671 94.3526 23.7029 84.573 14.1657ZM29.4766 51.3326C27.2727 48.5275 26.1708 45.442 26.1708 42.2162C26.1708 32.5388 36.3636 24.5444 49.0358 24.5444C61.708 24.5444 71.9008 32.5388 71.9008 42.2162C71.9008 51.8936 61.708 59.888 49.0358 59.888C48.3471 59.888 47.5206 59.888 46.8319 59.7477C45.73 59.6075 44.6281 60.3088 44.0771 61.2905L41.46 66.7604L29.6143 51.4729C29.6143 51.6131 29.4766 51.4729 29.4766 51.3326Z" fill="url(#paint0_linear)"/>
</g>
<defs>
<linearGradient id="paint0_linear" x1="3.00369" y1="120.878" x2="76.6218" y2="15.5718" gradientUnits="userSpaceOnUse">
<stop stop-color="#BF0487"/>
<stop offset="1" stop-color="#04ADBF"/>
</linearGradient>
<clipPath id="clip0">
<rect width="100" height="100" fill="white"/>
</clipPath>
</defs>
</svg>
