<svg width="70" height="70" viewBox="0 0 70 70" fill="none" xmlns="http://www.w3.org/2000/svg">
<g clip-path="url(#clip0)">
<path d="M59.2005 9.91414C52.2583 3.13994 43.195 -0.394417 33.6495 -0.00171051C15.6192 0.88188 0.867123 15.9029 -0.000645392 34.262C-0.482739 49.8721 8.77346 64.0095 23.1399 69.3111C24.2969 69.7038 25.4539 69.9983 26.6109 69.9983C28.6357 69.9983 30.5641 69.4092 32.2996 68.1329C35.1922 66.0712 36.9277 62.7332 36.9277 59.1988V52.7192L57.947 37.1091L58.0434 37.0109C58.1399 37.0109 58.1399 36.9127 58.2363 36.9127L58.3327 36.8146C58.3327 36.7164 58.4291 36.7164 58.4291 36.6182C58.4291 36.52 58.5255 36.52 58.5255 36.4218C58.5255 36.3237 58.6219 36.3237 58.6219 36.2255C58.6219 36.1273 58.6219 36.1273 58.7184 36.0291C58.7184 35.931 58.7184 35.931 58.8148 35.8328C58.8148 35.7346 58.8148 35.7346 58.8148 35.6364C58.8148 35.5383 58.8148 35.5383 58.8148 35.4401C58.8148 35.3419 58.8148 35.3419 58.8148 35.2437C58.8148 35.1456 58.8148 35.1455 58.8148 35.0474C58.8148 34.9492 58.8148 34.9492 58.7184 34.851C58.7184 34.7528 58.7184 34.7528 58.6219 34.6547C58.6219 34.5565 58.5255 34.5565 58.5255 34.4583C58.5255 34.3601 58.4291 34.3601 58.4291 34.262L50.0407 22.8735C49.9443 22.7753 49.9443 22.6771 49.8478 22.6771L49.7514 22.5789C49.655 22.4808 49.5586 22.3826 49.4622 22.3826C49.3657 22.2844 49.1729 22.2844 49.0765 22.2844H48.9801C48.8837 22.2844 48.7872 22.2844 48.6908 22.2844C48.6908 22.2844 48.6908 22.2844 48.5944 22.2844H21.5972C21.5972 22.2844 21.5972 22.2844 21.5007 22.2844C21.4043 22.2844 21.3079 22.2844 21.2115 22.2844H21.1151C21.0186 22.2844 20.8258 22.3826 20.7294 22.3826C20.633 22.4808 20.5365 22.4808 20.4401 22.5789L20.3437 22.6771C20.2473 22.7753 20.1509 22.7753 20.1509 22.8735L11.5696 34.4583C11.5696 34.5565 11.4732 34.5565 11.4732 34.6547C11.4732 34.7528 11.3768 34.7528 11.3768 34.851C11.3768 34.9492 11.3768 34.9492 11.2803 35.0474C11.2803 35.1455 11.2803 35.1456 11.1839 35.2437C11.1839 35.3419 11.1839 35.3419 11.1839 35.4401C11.1839 35.5383 11.1839 35.5383 11.1839 35.6364C11.1839 35.7346 11.1839 35.7346 11.1839 35.8328C11.1839 35.931 11.1839 35.931 11.1839 36.0291C11.1839 36.1273 11.1839 36.1273 11.2803 36.2255C11.2803 36.3237 11.2803 36.3237 11.3768 36.4218C11.3768 36.52 11.4732 36.52 11.4732 36.6182C11.4732 36.7164 11.5696 36.7164 11.5696 36.8146C11.5696 36.9127 11.666 36.9127 11.666 37.0109L11.7624 37.1091C11.7624 37.2073 11.8589 37.2073 11.9553 37.2073L12.0517 37.3054L33.1674 52.9155V59.3952C33.1674 61.6533 32.1068 63.8132 30.1784 65.0895C28.4429 66.2676 26.4181 66.5621 24.5861 65.8749C11.666 60.8679 3.37401 48.3012 3.8561 34.4583C4.62745 18.0628 17.7404 4.71077 33.8423 3.92536C42.3272 3.53265 50.4263 6.67431 56.5007 12.7613C62.5751 18.75 66.1426 27.0951 66.1426 35.6364C66.1426 48.8903 58.2363 60.5733 45.9911 65.384C45.0269 65.7767 44.5448 66.9548 44.9305 67.9366C45.3162 68.9183 46.4732 69.4092 47.4374 69.0165C61.1288 63.6168 69.9994 50.4611 69.9994 35.6364C69.9994 26.0151 66.0462 16.5902 59.2005 9.91414ZM21.1151 27.8805L23.9112 33.5747H16.9691L21.1151 27.8805ZM53.0297 33.6729H46.0875L48.8837 27.9787L53.0297 33.6729ZM34.9994 47.3195L30.1784 37.5018H39.8203L34.9994 47.3195ZM44.1591 37.6H51.0049L40.3024 45.5523L44.1591 37.6ZM41.7487 33.6729H28.25L24.5861 26.2115H45.4126L41.7487 33.6729ZM25.8396 37.6L29.6963 45.5523L18.9938 37.6H25.8396Z" fill="url(#paint0_linear)"/>
</g>
<defs>
<linearGradient id="paint0_linear" x1="34.9969" y1="91.6757" x2="34.9969" y2="-5.3008" gradientUnits="userSpaceOnUse">
<stop stop-color="#BF0487"/>
<stop offset="1" stop-color="#04ADBF"/>
</linearGradient>
<clipPath id="clip0">
<rect width="70" height="70" fill="white"/>
</clipPath>
</defs>
</svg>
