<svg width="100" height="100" viewBox="0 0 100 100" fill="none" xmlns="http://www.w3.org/2000/svg">
<g clip-path="url(#clip0)">
<path d="M84.573 14.1657C74.6556 4.48829 61.708 -0.560803 48.0716 0.000207081C22.3141 1.26248 1.23967 22.7211 -1.01142e-06 48.9483C-0.688706 71.2485 12.5344 91.4448 33.0578 99.0184C34.7107 99.5795 36.3636 100 38.0165 100C40.9091 100 43.6639 99.1587 46.1432 97.3354C50.2755 94.3901 52.7548 89.6215 52.7548 84.5724V76.9988C64.1873 76.1573 73.8292 68.7239 78.0992 58.4855C78.2369 58.3452 78.2369 58.0647 78.2369 57.9245C79.6143 54.5584 80.303 50.7716 80.303 46.9848C80.303 30.2947 66.9421 16.6903 50.551 16.6903C39.5317 16.6903 29.8898 22.8614 24.6556 32.118C24.7934 32.118 24.6556 32.2583 24.6556 32.2583C24.6556 32.2583 24.6556 32.2583 24.6556 32.3985C22.314 36.7464 21.0744 41.6552 21.0744 46.8445C21.0744 62.2723 32.6446 75.1755 47.3829 76.8586V84.5724C47.3829 87.7982 45.8678 90.8838 43.1129 92.7071C40.6336 94.3901 37.741 94.8109 35.124 93.8291C16.6667 86.9567 4.82094 69.0044 5.50964 49.2288C6.61157 25.8067 25.3443 6.73233 48.3471 5.61031C60.4683 5.0493 72.0386 9.53738 80.7162 18.233C89.3939 26.7884 94.4903 38.7099 94.4903 50.9118C94.4903 69.8459 83.1956 86.536 65.7025 93.4083C64.3251 93.9694 63.6364 95.6524 64.1873 97.0549C64.7383 98.4574 66.3912 99.1587 67.7686 98.5977C87.3278 90.8838 100 72.09 100 50.9118C100 37.1671 94.3526 23.7029 84.573 14.1657ZM50.6887 22.1601C64.0496 22.1601 74.9311 33.24 74.9311 46.8445C74.9311 49.0886 74.6556 51.1924 74.1047 53.2961L66.2534 49.5093C66.3912 48.6678 66.5289 47.8263 66.5289 46.8445C66.5289 38.0086 59.5041 30.8557 50.8264 30.8557C46.0055 30.8557 41.5978 33.0998 38.7052 36.7464L31.1295 32.679C35.3994 26.3677 42.562 22.1601 50.6887 22.1601ZM50.6887 36.4658C56.3361 36.4658 60.8815 41.0942 60.8815 46.8445C60.8815 52.5949 56.3361 57.2232 50.6887 57.2232C45.0413 57.2232 40.4959 52.5949 40.4959 46.8445C40.4959 41.0942 45.0413 36.4658 50.6887 36.4658ZM26.4463 46.8445C26.4463 43.4785 27.135 40.3929 28.2369 37.4476L35.8127 41.5149C35.2617 43.198 34.8485 45.0212 34.8485 46.8445C34.8485 55.6804 41.8733 62.8333 50.551 62.8333C56.3361 62.8333 61.4325 59.6075 64.1873 54.6987L71.7631 58.3452C67.6309 66.0591 59.6419 71.2485 50.4132 71.2485C37.3278 71.529 26.4463 60.449 26.4463 46.8445Z" fill="url(#paint0_linear)"/>
</g>
<defs>
<linearGradient id="paint0_linear" x1="49.9966" y1="127.16" x2="49.9966" y2="29.3583" gradientUnits="userSpaceOnUse">
<stop stop-color="#BF0487"/>
<stop offset="1" stop-color="#04ADBF"/>
</linearGradient>
<clipPath id="clip0">
<rect width="100" height="100" fill="white"/>
</clipPath>
</defs>
</svg>
