<svg width="100" height="100" viewBox="0 0 100 100" fill="none" xmlns="http://www.w3.org/2000/svg">
<path d="M82.3 17.4C73.1 8.60001 61.1 4.00001 48.3 4.50001C24.3 5.60001 4.59999 25.2 3.49999 49.3C2.79999 69.8 15.2 88.2 34.3 95.2C35.8 95.8 37.4 96.1 38.9 96.1C41.5 96.1 44.2 95.3 46.5 93.7C50.4 91 52.7 86.7 52.7 82V80.9C57.1 79.8 60.3 75.8 60.3 71V63.4C60.3 62.6 59.9 61.8 59.3 61.3C60 59.9 60.3 58.4 60.3 56.9V53.9C60.3 53 60.7 52.2 61.3 51.7C65.1 48.4 67.3 43.7 67.3 38.7C67.3 34 65.4 29.6 62 26.4C58.6 23.1 54.2 21.4 49.5 21.6C40.6 21.9 33.3 29.2 33 38.1C32.8 43.3 35 48.2 38.9 51.6C39.5 52.1 39.9 53 39.9 53.8V56.5C39.9 58.1 40.3 59.7 41 61.2C40.3 61.7 39.9 62.4 39.9 63.3V71C39.9 75.7 43.2 79.7 47.5 80.9V82C47.5 85 46 87.7 43.6 89.4C41.3 91 38.6 91.3 36.1 90.4C19.1 84.1 7.99999 67.7 8.69999 49.5C9.69999 28.1 27.2 10.6 48.6 9.60001C59.9 9.10001 70.6 13.2 78.8 21.1C87 28.9 91.6 39.9 91.6 51.1C91.6 68.4 81.1 83.7 64.8 90C63.5 90.5 62.8 92 63.3 93.3C63.8 94.6 65.3 95.3 66.6 94.8C84.9 87.7 96.7 70.5 96.7 51.1C96.8 38.5 91.5 26.2 82.3 17.4ZM38.1 38.3C38.3 32.1 43.5 27 49.6 26.7C52.9 26.6 56 27.8 58.4 30C60.8 32.3 62.1 35.4 62.1 38.6C62.1 42.1 60.6 45.4 57.9 47.7C56.2 49.2 55.2 51.4 55.2 53.8V56.8C55.2 58.3 54.5 59.8 53.3 60.7H47C45.8 59.7 45 58.1 45 56.5V53.8C45 51.4 44 49.2 42.2 47.7C39.5 45.4 38 41.9 38.1 38.3ZM45.1 71V65.9H46.2H54.1H55.2V71C55.2 73.8 52.9 76.1 50.1 76.1C47.3 76.1 45.1 73.8 45.1 71Z" fill="url(#paint0_linear)"/>
<defs>
<linearGradient id="paint0_linear" x1="19.7057" y1="103.617" x2="81.8542" y2="-3.20099" gradientUnits="userSpaceOnUse">
<stop stop-color="#BF0487"/>
<stop offset="1" stop-color="#04ADBF"/>
</linearGradient>
</defs>
</svg>
