<svg width="100" height="100" viewBox="0 0 100 100" fill="none" xmlns="http://www.w3.org/2000/svg">
<path d="M82.3 17.5C73.1 8.69998 61 4.09998 48.3 4.59998C24.3 5.69998 4.69995 25.3 3.59995 49.4C2.89995 69.8 15.3 88.2 34.4 95.2C35.9 95.8 37.4 96.1 39 96.1C41.1 96.1 43.3 95.6 45.3 94.5C48.9 92.6 51.5 89.1 52.5 85.2C52.9 83.6 53 78.6 51.2 76.3L45.9 70.3L48.6 64.6C48.8 64.6 49.1 64.6 49.3 64.6C63.8 64.6 75.7 55 75.7 43.3C75.7 31.6 63.7 21.9 49.1 21.9C34.5 21.9 22.7 31.5 22.7 43.2C22.7 47.2 24.1 51.1 26.7 54.5C26.8 54.6 26.8 54.7 26.9 54.7L40.6 72.2C40.6 72.2 40.6 72.2 40.6 72.3L46.9 79.4C47.2 80.2 47.4 82.8 47.2 83.9C46.6 86.4 44.9 88.6 42.6 89.9C40.5 91 38.1 91.2 36 90.4C19 84.2 7.99995 67.8 8.59995 49.6C9.59995 28.2 27.1 10.7 48.4 9.79998C59.7 9.29998 70.4 13.4 78.6 21.3C86.9 29 91.6 40 91.6 51.2C91.6 68.5 81.1 83.8 64.8 90.1C63.5 90.6 62.8 92.1 63.3 93.4C63.8 94.7 65.3 95.4 66.6 94.9C84.8999 87.8 96.7 70.7 96.7 51.2C96.7 38.6 91.5 26.3 82.3 17.5ZM31 51.5C29 49 27.9 46.1 27.9 43.1C27.9 34.2 37.4 26.9 49.2 26.9C61 26.9 70.5 34.2 70.5 43.1C70.5 52 61 59.3 49.2 59.3C48.5 59.3 47.8 59.3 47.1 59.2C46 59.1 45 59.7 44.6 60.7L42.2 65.8L31.2 51.8C31.1 51.7 31.1 51.6 31 51.5Z" fill="url(#paint0_linear)"/>
<defs>
<linearGradient id="paint0_linear" x1="13.5143" y1="100.937" x2="79.4597" y2="11.7173" gradientUnits="userSpaceOnUse">
<stop stop-color="#BF0487"/>
<stop offset="1" stop-color="#04ADBF"/>
</linearGradient>
</defs>
</svg>
