<svg width="100" height="100" viewBox="0 0 100 100" fill="none" xmlns="http://www.w3.org/2000/svg">
<g clip-path="url(#clip0)">
<path d="M84.573 14.1657C74.6557 4.48829 61.708 -0.560803 48.0717 0.000207081C22.3141 1.26248 1.23971 22.7211 3.71356e-05 48.9483C-0.688668 71.2485 12.5345 91.4448 33.0579 99.0184C34.7108 99.5795 36.3637 100 38.0166 100C40.9091 100 43.6639 99.1587 46.1433 97.3354C49.4491 94.9511 51.6529 91.5851 52.4794 87.658C53.8568 84.2919 57.5758 74.895 58.2645 68.7239C58.54 66.4799 58.54 64.7968 58.2645 63.3943C58.54 63.5346 58.6777 63.5346 58.9532 63.5346L73.5538 65.3578C73.6915 65.3578 73.8292 65.3578 73.8292 65.3578C74.7934 65.3578 75.6199 64.9371 76.0331 64.0956C76.5841 63.2541 76.7218 62.132 76.1708 61.1503L64.3251 38.5696L64.1874 38.4294L65.427 27.6299C65.427 27.0689 65.427 26.5079 65.1516 25.9469L59.7797 15.5682C59.3664 14.7267 58.54 14.1657 57.7135 14.1657C56.7493 14.0255 55.9229 14.4462 55.3719 15.1475L47.7962 23.9834C47.383 24.4041 47.2452 24.9651 47.1075 25.5262L45.8678 36.7464L29.4766 54.9792C28.7879 55.8207 28.5124 56.8025 28.9257 57.7842C29.3389 58.766 30.1653 59.4672 31.1295 59.6075L46.0055 61.7113C45.4546 63.1138 45.0414 64.7968 44.7659 67.1811C43.9394 74.1938 46.1433 85.975 46.5565 87.9385C45.8678 89.7618 44.6281 91.4448 42.9752 92.7071C40.4959 94.3901 37.6033 94.8109 34.9863 93.8291C16.6667 86.9567 4.82097 69.0044 5.50968 49.2288C6.61161 25.8067 25.3444 6.73233 48.3471 5.61031C60.4684 5.0493 72.0386 9.53738 80.7163 18.233C89.394 26.7884 94.4904 38.7099 94.4904 50.9118C94.4904 69.8459 83.1956 86.536 65.7025 93.4083C64.3251 93.9694 63.6364 95.6524 64.1874 97.0549C64.7383 98.4574 66.3912 99.1587 67.7686 98.5977C87.3279 90.8838 100 72.09 100 50.9118C100 37.1671 94.3527 23.7029 84.573 14.1657ZM52.7549 68.1629C52.4794 70.6874 51.5152 73.9133 50.551 76.9988C50.2755 73.773 50 70.4069 50.2755 67.8824C50.551 65.0773 50.9642 64.0956 51.2397 63.6748C51.3774 63.6748 51.6529 63.6748 51.9284 63.6748H52.0662C52.3416 63.6748 52.6171 63.6748 52.7549 63.8151C52.8926 64.2358 53.1681 65.3578 52.7549 68.1629ZM69.146 59.1867L62.5345 58.3452L63.7741 48.9483L69.146 59.1867ZM57.0248 22.0198L60.1929 28.0507L57.0248 57.3635L49.5868 56.5219L51.5152 38.4294L52.7549 27.2092L57.0248 22.0198ZM45.0414 46.2835L43.9394 55.6804L37.3279 54.8389L45.0414 46.2835Z" fill="url(#paint0_linear)"/>
</g>
<defs>
<linearGradient id="paint0_linear" x1="49.9966" y1="127.16" x2="49.9966" y2="29.3583" gradientUnits="userSpaceOnUse">
<stop stop-color="#BF0487"/>
<stop offset="1" stop-color="#04ADBF"/>
</linearGradient>
<clipPath id="clip0">
<rect width="100" height="100" fill="white"/>
</clipPath>
</defs>
</svg>
