<svg width="100" height="100" viewBox="0 0 100 100" fill="none" xmlns="http://www.w3.org/2000/svg">
<path d="M48.5 51.4C48.6 51.4 48.6 51.5 48.7 51.5C48.8 51.6 48.9 51.6 49 51.7C49.1 51.7 49.1 51.7999 49.2 51.7999C49.3 51.9 49.4 51.9 49.6 51.9H49.7C49.9 51.9 50.1 52 50.2 52C50.4 52 50.5 52 50.7 52C50.8 52 50.8 52 50.9 52C51 52 51.1 51.9 51.2 51.9C51.3 51.9 51.3 51.9 51.4 51.7999C51.5 51.7999 51.6 51.7 51.6 51.7C51.7 51.7 51.7 51.5999 51.8 51.5999C51.8 51.5999 51.9 51.6 51.9 51.5L56.1 48.2C57.2 47.3 57.4 45.6999 56.5 44.5999C55.6 43.4999 54 43.3 52.9 44.2V41.7999C52.9 40.3999 51.8 39.2 50.3 39.2C48.9 39.2 47.7 40.2999 47.7 41.7999V49.5999V49.7C47.7 49.8 47.7 49.9 47.7 50C47.7 50.1 47.7 50.2 47.7 50.2C47.7 50.3 47.7 50.4 47.8 50.4C47.8 50.5 47.9 50.5999 47.9 50.5999C47.9 50.6999 48 50.6999 48 50.7999C48 50.9 48.1 51 48.1 51C48.1 51 48.1 51.0999 48.2 51.0999L48.3 51.2C48.3 51.3 48.4 51.3 48.5 51.4Z" fill="url(#paint0_linear)"/>
<path d="M82.3 17.5C73.1 8.69998 61 4.09998 48.3 4.59998C24.3 5.69998 4.70002 25.3 3.60002 49.4C2.90002 69.8 15.3 88.2 34.4 95.2C35.9 95.8 37.5 96.1 39 96.1C41.6 96.1 44.3 95.3 46.6 93.7C50.5 91 52.8 86.7 52.8 82.1V74C52.8 73.9 52.8 73.7 52.8 73.6V65.8C61.7 64.5 68.6 56.9 68.6 47.7C68.6 43.3 67.1 39.3 64.5 36.2L65.4 35.3C65.9 35.6 66.4 35.8 66.9 35.8C67.6 35.8 68.2 35.5 68.7 35C69.7 34 69.7 32.4 68.7 31.4L65.4 28.1C64.4 27.1 62.8 27.1 61.8 28.1C60.8 29.1 60.8 30.6 61.7 31.6L60.7 32.6C58.4 31 55.7 29.9 52.8 29.5V28.8C54 28.6 54.9 27.5 54.9 26.3V22.9C54.9 21.5 53.8 20.3 52.3 20.3H48C46.6 20.3 45.4 21.4 45.4 22.9V26.3C45.4 27.6 46.3 28.6 47.5 28.8V29.5C38.6 30.8 31.7 38.4 31.7 47.6C31.7 56.8 38.6 64.5 47.5 65.7V74.8V74.9V82C47.5 84.9 46 87.7 43.6 89.4C41.3 91 38.6 91.3 36.1 90.4C19.1 84.2 8.10002 67.8 8.70002 49.6C9.70002 28.2 27.2 10.7 48.5 9.79998C59.8 9.29998 70.5 13.4 78.7 21.3C86.9 29 91.6 40 91.6 51.2C91.6 68.5 81.1 83.8 64.8 90.1C63.5 90.6 62.8 92.1 63.3 93.4C63.8 94.7 65.3 95.4 66.6 94.9C84.9 87.8 96.7 70.7 96.7 51.2C96.7 38.6 91.5 26.3 82.3 17.5ZM36.9 47.5C36.9 40.2 42.8 34.3 50.1 34.3C57.4 34.3 63.3 40.2 63.3 47.5C63.3 54.8 57.4 60.7 50.1 60.7C42.9 60.7 36.9 54.7 36.9 47.5Z" fill="url(#paint1_linear)"/>
<defs>
<linearGradient id="paint0_linear" x1="30.5" y1="79.5" x2="78.5" y2="8.50001" gradientUnits="userSpaceOnUse">
<stop stop-color="#BF0487"/>
<stop offset="1" stop-color="#04ADBF"/>
</linearGradient>
<linearGradient id="paint1_linear" x1="20" y1="107" x2="87" y2="5.00001" gradientUnits="userSpaceOnUse">
<stop stop-color="#BF0487"/>
<stop offset="1" stop-color="#04ADBF"/>
</linearGradient>
</defs>
</svg>
