<svg width="100" height="100" viewBox="0 0 100 100" fill="none" xmlns="http://www.w3.org/2000/svg">
<g clip-path="url(#clip0)">
<path d="M84.5731 14.1657C74.6557 4.48829 61.708 -0.560803 48.0717 0.000207078C22.3141 1.26248 1.23971 22.7211 3.71393e-05 48.9483C-0.688668 71.2485 12.5345 91.4448 33.0579 99.0184C34.7108 99.5794 36.3637 100 38.0166 100C40.9091 100 43.664 99.1587 46.1433 97.3354C50.2755 94.3901 52.7549 89.6215 52.7549 84.5724V76.017H68.3196C69.8348 76.017 71.0744 74.7548 71.0744 73.212V21.3186C71.0744 19.7758 69.8348 18.5135 68.3196 18.5135H40.7714C40.0827 18.5135 39.394 18.794 38.843 19.355L29.2011 29.1727C28.6502 29.7337 28.3747 30.435 28.3747 31.1363V73.212C28.3747 73.9132 28.6502 74.6145 29.2011 75.1755C29.7521 75.7365 30.4408 76.017 31.1295 76.017L47.2452 75.8768V84.5724C47.2452 87.7982 45.7301 90.8838 42.9753 92.7071C40.4959 94.3901 37.6033 94.8109 34.8485 93.8291C16.6667 86.9567 4.82097 69.0044 5.50968 49.2288C6.61161 25.8067 25.3444 6.73232 48.3471 5.6103C60.4684 5.04929 72.0386 9.53737 80.7163 18.233C89.394 26.7884 94.4904 38.7099 94.4904 50.9118C94.4904 69.8459 83.1956 86.536 65.7025 93.4083C64.3251 93.9693 63.6364 95.6524 64.1874 97.0549C64.7383 98.4574 66.3912 99.1587 67.7686 98.5977C87.3279 90.8838 100 72.09 100 50.9118C100 37.1671 94.3527 23.7029 84.5731 14.1657ZM33.8843 70.4069V32.3985L41.8733 24.2639H65.5648V70.5472H51.7907C51.5152 70.5472 51.3775 70.5472 51.102 70.6874C50.8265 70.5472 50.4133 70.4069 50 70.4069H33.8843Z" fill="url(#paint0_linear)"/>
<path d="M40.7714 39.5515H60.0552C61.5703 39.5515 62.81 38.2892 62.81 36.7465C62.81 35.2037 61.5703 33.9414 60.0552 33.9414H40.7714C39.2563 33.9414 38.0166 35.2037 38.0166 36.7465C38.0166 38.2892 39.2563 39.5515 40.7714 39.5515Z" fill="url(#paint1_linear)"/>
<path d="M40.7714 47.9665H60.0552C61.5703 47.9665 62.81 46.7043 62.81 45.1615C62.81 43.6187 61.5703 42.3564 60.0552 42.3564H40.7714C39.2563 42.3564 38.0166 43.6187 38.0166 45.1615C38.0166 46.7043 39.2563 47.9665 40.7714 47.9665Z" fill="url(#paint2_linear)"/>
<path d="M62.81 53.5765C62.81 52.0338 61.5703 50.7715 60.0552 50.7715H40.7714C39.2563 50.7715 38.0166 52.0338 38.0166 53.5765C38.0166 55.1193 39.2563 56.3816 40.7714 56.3816H60.0552C61.5703 56.3816 62.81 55.2596 62.81 53.5765Z" fill="url(#paint3_linear)"/>
</g>
<defs>
<linearGradient id="paint0_linear" x1="-13.7987" y1="119.48" x2="78.5056" y2="24.1396" gradientUnits="userSpaceOnUse">
<stop stop-color="#BF0487"/>
<stop offset="1" stop-color="#04ADBF"/>
</linearGradient>
<linearGradient id="paint1_linear" x1="-20.6209" y1="112.875" x2="71.6833" y2="17.5347" gradientUnits="userSpaceOnUse">
<stop stop-color="#BF0487"/>
<stop offset="1" stop-color="#04ADBF"/>
</linearGradient>
<linearGradient id="paint2_linear" x1="-16.494" y1="116.87" x2="75.8103" y2="21.5302" gradientUnits="userSpaceOnUse">
<stop stop-color="#BF0487"/>
<stop offset="1" stop-color="#04ADBF"/>
</linearGradient>
<linearGradient id="paint3_linear" x1="-12.367" y1="120.866" x2="79.9373" y2="25.5256" gradientUnits="userSpaceOnUse">
<stop stop-color="#BF0487"/>
<stop offset="1" stop-color="#04ADBF"/>
</linearGradient>
<clipPath id="clip0">
<rect width="100" height="100" fill="white"/>
</clipPath>
</defs>
</svg>
