<svg width="70" height="70" viewBox="0 0 70 70" fill="none" xmlns="http://www.w3.org/2000/svg">
<g clip-path="url(#clip0)">
<path d="M59.2011 9.91804C52.259 3.14385 43.1956 -0.390511 33.6501 0.00219573C15.6198 0.885786 0.867768 15.9068 -7.07805e-07 34.2659C-0.482094 49.876 8.77411 64.0134 23.1405 69.3149C24.2975 69.7077 25.4545 70.0022 26.6116 70.0022C28.6364 70.0022 30.5647 69.4131 32.3003 68.1368C35.1928 66.0751 36.9284 62.7371 36.9284 59.2027V53.9994H45.8953C46.6667 53.9994 47.3416 53.6067 47.6309 52.9194C47.9201 52.2322 47.8237 51.4468 47.3416 50.8577C43.3884 45.6544 45.3168 40.6473 47.6309 34.8549C50.0413 28.768 52.8375 21.8956 47.3416 15.0232C46.9559 14.5323 46.3774 14.336 45.7989 14.336H25.551C24.7796 14.336 24.1047 14.7287 23.8154 15.4159C23.5262 16.1032 23.6226 16.8886 24.1047 17.4776C28.1543 22.5828 26.1295 27.5898 23.8154 33.3823C21.405 39.4692 18.6088 46.3416 24.1047 53.214C24.4904 53.7048 25.0689 53.9012 25.6474 53.9012H33.0716V59.2027C33.0716 61.4608 32.011 63.6207 30.0826 64.897C28.3471 66.0751 26.3223 66.3697 24.3939 65.6824C11.6667 60.8718 3.37465 48.3051 3.85675 34.4622C4.6281 18.0667 17.741 4.71468 33.843 3.92926C42.3278 3.53656 50.427 6.67821 56.5014 12.7652C62.5758 18.7539 66.1432 27.099 66.1432 35.6403C66.1432 48.8942 58.2369 60.5772 45.9917 65.3879C45.0275 65.7806 44.5455 66.9587 44.9311 67.9405C45.3168 68.9222 46.4738 69.4131 47.438 69.0204C61.1295 63.6207 70 50.465 70 35.6403C70 26.019 66.0468 16.5941 59.2011 9.91804ZM44.9311 18.1649C45.7989 19.343 46.281 20.6193 46.4738 21.7974H30.1791C29.9862 20.6193 29.697 19.343 29.1185 18.1649H44.9311ZM30.1791 25.7245H46.5702C46.1846 28.1789 45.2204 30.6333 44.1598 33.2841C43.6777 34.364 43.292 35.5422 42.8099 36.7203H41.4601C40.978 35.0513 39.4353 33.775 37.6997 33.775C35.4821 33.775 33.7466 35.5422 33.7466 37.8002C33.7466 38.8802 32.8788 39.6656 31.9146 39.6656C30.854 39.6656 30.0826 38.782 30.0826 37.8002C30.0826 36.8185 30.9504 35.9349 31.9146 35.9349C32.4931 35.9349 32.9752 35.444 32.9752 34.8549C32.9752 34.2659 32.4931 33.775 31.9146 33.775C30.0826 33.775 28.5399 35.0513 28.1543 36.7203H26.6116C26.9008 36.033 27.0937 35.444 27.3829 34.7567C28.5399 32.0078 29.7934 28.9643 30.1791 25.7245ZM26.6116 50.0723C24.1047 46.4398 24.5868 42.8072 25.9366 38.782C26.1295 38.8802 26.3223 38.9783 26.5152 38.9783H28.1543C28.6364 40.6474 30.1791 41.9236 31.9146 41.9236C34.1322 41.9236 35.8678 40.1565 35.8678 37.8984C35.8678 36.8185 36.7355 36.033 37.6997 36.033C38.7603 36.033 39.5317 36.9166 39.5317 37.8984C39.5317 38.8802 38.6639 39.7638 37.6997 39.7638C37.1212 39.7638 36.6391 40.2546 36.6391 40.8437C36.6391 41.4328 37.1212 41.9236 37.6997 41.9236C39.5317 41.9236 41.0744 40.6474 41.4601 38.9783H42.0386C40.978 42.5127 40.5923 46.2434 42.3278 50.0723H26.6116Z" fill="url(#paint0_linear)"/>
</g>
<defs>
<linearGradient id="paint0_linear" x1="6.13753" y1="79.377" x2="47.2255" y2="19.5825" gradientUnits="userSpaceOnUse">
<stop stop-color="#BF0487"/>
<stop offset="1" stop-color="#04ADBF"/>
</linearGradient>
<clipPath id="clip0">
<rect width="70" height="70" fill="white"/>
</clipPath>
</defs>
</svg>
