<svg width="70" height="70" viewBox="0 0 70 70" fill="none" xmlns="http://www.w3.org/2000/svg">
<g clip-path="url(#clip0)">
<path d="M59.2004 9.91414C52.2582 3.13994 43.1949 -0.394417 33.6494 -0.00171051C15.6191 0.88188 0.867062 15.9029 -0.000706427 34.262C-0.4828 49.8721 8.7734 64.0095 23.1398 69.3111C24.2968 69.7038 25.4538 69.9983 26.6109 69.9983C28.6357 69.9983 30.564 69.4092 32.2996 68.1329C35.1921 66.0712 36.9277 62.7332 36.9277 59.1988V58.3153C40.2059 57.4317 42.6164 54.3882 42.6164 50.7556V44.9632C42.6164 44.276 42.3271 43.7851 41.845 43.3924C42.3271 42.3125 42.6164 41.2325 42.6164 39.9562V37.6981C42.6164 37.0109 42.9056 36.4218 43.2913 36.0291C46.0874 33.5747 47.7266 29.9422 47.7266 26.1133C47.7266 22.4808 46.2803 19.1427 43.7734 16.6883C41.2665 14.2339 37.8919 12.8594 34.3244 13.0558C27.5751 13.3503 22.1756 18.8482 21.9828 25.7206C21.8863 29.6477 23.5255 33.4765 26.418 36.0291C26.9001 36.4218 27.1894 37.1091 27.1894 37.6981V39.7599C27.1894 41.0362 27.4786 42.2143 28.0571 43.2942C27.5751 43.6869 27.1894 44.276 27.1894 44.865V50.6575C27.1894 54.29 29.5998 57.3335 32.8781 58.2171V59.1007C32.8781 61.3587 31.8175 63.5186 29.8891 64.7949C28.1536 65.973 26.1288 66.2676 24.2968 65.5803C11.666 60.8679 3.37395 48.3012 3.85604 34.4583C4.62739 18.0628 17.7403 4.71077 33.8423 3.92536C42.3271 3.53265 50.4263 6.67431 56.5007 12.7613C62.5751 18.75 66.1425 27.0951 66.1425 35.6364C66.1425 48.8903 58.2362 60.5733 45.991 65.384C45.0268 65.7767 44.5447 66.9548 44.9304 67.9366C45.3161 68.9183 46.4731 69.4092 47.4373 69.0165C61.1288 63.6168 69.9993 50.4611 69.9993 35.6364C69.9993 26.0151 66.0461 16.5902 59.2004 9.91414ZM26.0324 25.9169C26.2252 21.2045 30.0819 17.2774 34.71 17.081C37.2169 16.9829 39.531 17.8665 41.2665 19.6336C43.002 21.4008 44.0627 23.7571 44.0627 26.2115C44.0627 28.8622 42.9056 31.4148 40.9773 33.182C39.6274 34.3601 38.9525 36.0291 38.9525 37.7963V40.0544C38.9525 41.2325 38.4704 42.3125 37.5062 43.0979H32.7817C31.8175 42.3125 31.3354 41.1343 31.3354 39.858V37.7963C31.3354 36.0291 30.564 34.262 29.2142 33.0838C27.093 31.3167 25.9359 28.6659 26.0324 25.9169ZM31.239 50.8538V47.0249H32.1067H38.0847H38.856V50.8538C38.856 53.0137 37.1205 54.6827 35.0957 54.6827C33.0709 54.6827 31.239 53.0137 31.239 50.8538Z" fill="url(#paint0_linear)"/>
</g>
<defs>
<linearGradient id="paint0_linear" x1="12.1655" y1="75.7856" x2="60.0814" y2="-5.09523" gradientUnits="userSpaceOnUse">
<stop stop-color="#BF0487"/>
<stop offset="1" stop-color="#04ADBF"/>
</linearGradient>
<clipPath id="clip0">
<rect width="70" height="70" fill="white"/>
</clipPath>
</defs>
</svg>
