<svg width="100" height="100" viewBox="0 0 100 100" fill="none" xmlns="http://www.w3.org/2000/svg">
<g clip-path="url(#clip0)">
<path d="M84.573 14.1657C74.6556 4.48829 61.708 -0.560803 48.0716 0.000207081C22.314 1.26248 1.23965 22.7211 -2.38996e-05 48.9483C-0.688729 71.2485 12.5344 91.4448 33.0578 99.0184C34.7107 99.5795 36.3636 100 38.0165 100C40.9091 100 43.6639 99.1587 46.1432 97.3354C50.2755 94.3901 52.7548 89.6215 52.7548 84.5724V75.3158L82.7823 53.0156L82.9201 52.8754C83.0578 52.8754 83.0578 52.7351 83.1956 52.7351L83.3333 52.5949C83.3333 52.4546 83.471 52.4546 83.471 52.3144C83.471 52.1741 83.6088 52.1741 83.6088 52.0339C83.6088 51.8936 83.7465 51.8936 83.7465 51.7534C83.7465 51.6131 83.7465 51.6131 83.8843 51.4729C83.8843 51.3326 83.8843 51.3326 84.022 51.1924C84.022 51.0521 84.022 51.0521 84.022 50.9118C84.022 50.7716 84.022 50.7716 84.022 50.6313C84.022 50.4911 84.022 50.4911 84.022 50.3508C84.022 50.2106 84.022 50.2106 84.022 50.0703C84.022 49.9301 84.022 49.9301 83.8843 49.7898C83.8843 49.6496 83.8843 49.6496 83.7465 49.5093C83.7465 49.3691 83.6088 49.3691 83.6088 49.2288C83.6088 49.0886 83.471 49.0886 83.471 48.9483L71.4876 32.679C71.3498 32.5388 71.3498 32.3985 71.2121 32.3985L71.0744 32.2583C70.9366 32.118 70.7989 31.9778 70.6611 31.9778C70.5234 31.8375 70.2479 31.8375 70.1102 31.8375H69.9724C69.8347 31.8375 69.6969 31.8375 69.5592 31.8375C69.5592 31.8375 69.5592 31.8375 69.4215 31.8375H30.854C30.854 31.8375 30.854 31.8375 30.7162 31.8375C30.5785 31.8375 30.4407 31.8375 30.303 31.8375H30.1653C30.0275 31.8375 29.752 31.9778 29.6143 31.9778C29.4766 32.118 29.3388 32.118 29.2011 32.2583L29.0633 32.3985C28.9256 32.5388 28.7879 32.5388 28.7879 32.679L16.5289 49.2288C16.5289 49.3691 16.3912 49.3691 16.3912 49.5093C16.3912 49.6496 16.2534 49.6496 16.2534 49.7898C16.2534 49.9301 16.2534 49.9301 16.1157 50.0703C16.1157 50.2106 16.1157 50.2106 15.9779 50.3508C15.9779 50.4911 15.9779 50.4911 15.9779 50.6313C15.9779 50.7716 15.9779 50.7716 15.9779 50.9118C15.9779 51.0521 15.9779 51.0521 15.9779 51.1924C15.9779 51.3326 15.9779 51.3326 15.9779 51.4729C15.9779 51.6131 15.9779 51.6131 16.1157 51.7534C16.1157 51.8936 16.1157 51.8936 16.2534 52.0339C16.2534 52.1741 16.3912 52.1741 16.3912 52.3144C16.3912 52.4546 16.5289 52.4546 16.5289 52.5949C16.5289 52.7351 16.6666 52.7351 16.6666 52.8754L16.8044 53.0156C16.8044 53.1559 16.9421 53.1559 17.0799 53.1559L17.2176 53.2961L47.3829 75.5963V84.8529C47.3829 88.0788 45.8677 91.1643 43.1129 92.9876C40.6336 94.6706 37.741 95.0914 35.1239 94.1096C16.6666 86.9567 4.82091 69.0044 5.50962 49.2288C6.61155 25.8067 25.3443 6.73233 48.3471 5.61031C60.4683 5.0493 72.0385 9.53738 80.7162 18.233C89.3939 26.7884 94.4903 38.7099 94.4903 50.9118C94.4903 69.8459 83.1956 86.536 65.7025 93.4083C64.325 93.9694 63.6363 95.6524 64.1873 97.0549C64.7383 98.4574 66.3912 99.1587 67.7686 98.5977C87.3278 90.8838 100 72.09 100 50.9118C100 37.1671 94.3526 23.7029 84.573 14.1657ZM30.1653 39.8319L34.1598 47.9665H24.2424L30.1653 39.8319ZM75.7576 48.1068H65.8402L69.8347 39.9722L75.7576 48.1068ZM50 67.6019L43.1129 53.5766H56.887L50 67.6019ZM63.0854 53.7169H72.865L57.5757 65.0773L63.0854 53.7169ZM59.6418 48.1068H40.3581L35.1239 37.4476H64.876L59.6418 48.1068ZM36.9146 53.7169L42.4242 65.0773L27.135 53.7169H36.9146Z" fill="url(#paint0_linear)"/>
</g>
<defs>
<linearGradient id="paint0_linear" x1="49.9965" y1="130.968" x2="49.9965" y2="-7.56992" gradientUnits="userSpaceOnUse">
<stop stop-color="#BF0487"/>
<stop offset="1" stop-color="#04ADBF"/>
</linearGradient>
<clipPath id="clip0">
<rect width="100" height="100" fill="white"/>
</clipPath>
</defs>
</svg>
