<svg width="100" height="100" viewBox="0 0 100 100" fill="none" xmlns="http://www.w3.org/2000/svg">
<g clip-path="url(#clip0)">
<path d="M84.573 14.1657C74.6557 4.48829 61.708 -0.560803 48.0716 0.000207081C22.3141 1.26248 1.23968 22.7211 6.61798e-06 48.9483C-0.688699 71.2485 12.5344 91.4448 33.0579 99.0184C34.7108 99.5795 36.3636 100 38.0165 100C40.9091 100 43.6639 99.1587 46.1433 97.3354C50.2755 94.3901 52.7548 89.6215 52.7548 84.5724V74.895C58.4022 71.1082 77.2727 57.3635 75.4821 43.6187C75.3444 35.7646 69.0083 29.4532 61.2948 29.4532C56.6116 29.4532 52.4793 31.6973 49.8623 35.3438C47.2452 31.8375 43.113 29.4532 38.4298 29.4532C30.5785 29.4532 24.2424 35.9048 24.2424 43.8992C24.2424 57.5037 42.1488 71.3887 47.1074 75.0353V84.7127C47.1074 87.9385 45.5923 91.0241 42.8375 92.8473C40.3581 94.5304 37.4656 94.9511 34.7108 93.9694C16.6667 86.9567 4.82094 69.0044 5.50965 49.2288C6.61158 25.8067 25.3444 6.73233 48.3471 5.61031C60.4683 5.0493 72.0386 9.53738 80.7163 18.233C89.3939 26.7884 94.4904 38.7099 94.4904 50.9118C94.4904 69.8459 83.1956 86.536 65.7025 93.4083C64.3251 93.9694 63.6364 95.6524 64.1873 97.0549C64.7383 98.4574 66.3912 99.1587 67.7686 98.5977C87.3278 90.8838 100 72.09 100 50.9118C100 37.1671 94.3526 23.7029 84.573 14.1657ZM29.8898 43.759C29.8898 38.8501 33.7466 34.9231 38.5675 34.9231C43.3884 34.9231 47.2452 38.8501 47.2452 43.759C47.2452 45.3018 48.4849 46.564 50 46.564C51.5152 46.564 52.7548 45.3018 52.7548 43.759C52.7548 38.8501 56.6116 34.9231 61.4325 34.9231C66.2534 34.9231 70.1102 38.8501 70.1102 43.759C70.1102 43.8992 70.1102 44.0395 70.1102 44.1797C71.4876 53.4364 57.438 65.0773 50.1377 69.9862C43.2507 65.0773 29.8898 53.2961 29.8898 43.759Z" fill="url(#paint0_linear)"/>
</g>
<defs>
<linearGradient id="paint0_linear" x1="12.4365" y1="117.246" x2="74.2073" y2="12.462" gradientUnits="userSpaceOnUse">
<stop stop-color="#BF0487"/>
<stop offset="1" stop-color="#04ADBF"/>
</linearGradient>
<clipPath id="clip0">
<rect width="100" height="100" fill="white"/>
</clipPath>
</defs>
</svg>
