<svg width="100" height="100" viewBox="0 0 100 100" fill="none" xmlns="http://www.w3.org/2000/svg">
<g clip-path="url(#clip0)">
<path d="M62.3967 49.2292C62.3967 42.2165 56.887 36.6064 50 36.6064C43.1129 36.6064 37.6033 42.2165 37.6033 49.2292C37.6033 56.2418 43.1129 61.8519 50 61.8519C56.887 61.8519 62.3967 56.1015 62.3967 49.2292ZM43.1129 49.2292C43.1129 45.3021 46.1432 42.2165 50 42.2165C53.8567 42.2165 56.887 45.3021 56.887 49.2292C56.887 53.1562 53.8567 56.2418 50 56.2418C46.1432 56.2418 43.1129 53.016 43.1129 49.2292Z" fill="url(#paint0_linear)"/>
<path d="M84.573 14.1657C74.6557 4.48829 61.708 -0.560803 48.0716 0.000207078C22.3141 1.26248 1.23967 22.7211 -1.00955e-06 48.9483C-0.688706 71.2485 12.5344 91.4448 33.0579 99.0184C34.7107 99.5794 36.3636 100 38.0165 100C40.9091 100 43.6639 99.1587 46.1433 97.3354C50.2755 94.3901 52.7548 89.6215 52.7548 84.5724V76.578C65.8402 75.1755 76.1708 64.3761 76.9973 50.9118H79.8898C81.405 50.9118 82.6446 49.6496 82.6446 48.1068C82.6446 46.564 81.405 45.3017 79.8898 45.3017H76.8595C75.2066 32.8193 65.1515 22.8614 52.7548 21.5991V17.672C52.7548 16.1292 51.5152 14.867 50 14.867C48.4848 14.867 47.2452 16.1292 47.2452 17.672V21.5991C34.8485 22.8614 24.9311 32.8193 23.1405 45.3017H20.1102C18.595 45.3017 17.3554 46.564 17.3554 48.1068C17.3554 49.6496 18.595 50.9118 20.1102 50.9118H23.0028C23.8292 64.3761 34.1598 75.1755 47.2452 76.578V78.5416V78.6818V84.5724C47.2452 87.7982 45.73 90.8838 42.9752 92.7071C40.4959 94.3901 37.6033 94.8109 34.8485 93.8291C16.6667 86.9567 4.82094 69.0044 5.50964 49.2288C6.61157 25.8067 25.3444 6.73232 48.3471 5.6103C60.4683 5.04929 72.0386 9.53737 80.7163 18.233C89.3939 26.7884 94.4904 38.7099 94.4904 50.9118C94.4904 69.8459 83.1956 86.536 65.7025 93.4083C64.3251 93.9693 63.6364 95.6524 64.1873 97.0549C64.7383 98.4574 66.3912 99.1587 67.7686 98.5977C87.3278 90.8838 100 72.09 100 50.9118C100 37.1671 94.3526 23.7029 84.573 14.1657ZM47.2452 70.9679C37.1901 69.7057 29.3388 61.2905 28.5124 51.0521H31.1295C32.6446 51.0521 33.8843 49.7898 33.8843 48.247C33.8843 46.7043 32.6446 45.442 31.1295 45.442H28.7879C30.4408 36.0451 37.8788 28.6117 47.2452 27.4897V29.0325C47.2452 30.5752 48.4848 31.8375 50 31.8375C51.5152 31.8375 52.7548 30.5752 52.7548 29.0325V27.4897C62.1212 28.752 69.697 36.0451 71.2121 45.442H68.8705C67.3554 45.442 66.1157 46.7043 66.1157 48.247C66.1157 49.7898 67.3554 51.0521 68.8705 51.0521H71.4876C70.6612 61.4308 62.8099 69.7057 52.7548 70.9679V67.4616C52.7548 65.9189 51.5152 64.6566 50 64.6566C48.4848 64.6566 47.2452 65.9189 47.2452 67.4616V70.9679Z" fill="url(#paint1_linear)"/>
</g>
<defs>
<linearGradient id="paint0_linear" x1="8.99297" y1="110.705" x2="69.8192" y2="22.6714" gradientUnits="userSpaceOnUse">
<stop stop-color="#BF0487"/>
<stop offset="1" stop-color="#04ADBF"/>
</linearGradient>
<linearGradient id="paint1_linear" x1="9.90992" y1="111.338" x2="70.736" y2="23.3044" gradientUnits="userSpaceOnUse">
<stop stop-color="#BF0487"/>
<stop offset="1" stop-color="#04ADBF"/>
</linearGradient>
<clipPath id="clip0">
<rect width="100" height="100" fill="white"/>
</clipPath>
</defs>
</svg>
