<svg width="958" height="959" viewBox="0 0 958 959" fill="none" xmlns="http://www.w3.org/2000/svg">
<path d="M958 416.427L947.644 377.529L947.826 376.984L947.644 376.802L925.661 294.644V294.462L895.502 242.295V241.931L895.139 241.749L862.618 185.402V185.22L802.663 125.237V124.874L802.118 124.692L773.413 95.9727L664.041 32.718L613.534 19.0855L613.171 18.722L612.989 18.9037L542.134 0.363533H477.456L477.274 0L476.911 0.363533H416.048L337.017 21.6302L336.835 21.4484L336.472 21.812L294.322 33.0815H294.14L184.951 96.1545H184.769L154.247 126.691L153.883 126.873V127.055L95.9272 185.038L58.501 249.929L58.1377 250.111V250.474L32.7024 294.462V294.644L12.7176 369.168L12.5359 369.35V369.895L0 416.245V542.573L14.8978 598.012V598.557H15.0795L32.7024 664.357V664.538L62.1347 715.433V715.797L62.498 715.978L95.7455 773.78V773.962L159.515 837.762V838.125L159.879 837.944L184.769 862.846L294.14 926.1L338.834 938.097L339.197 938.46L339.379 938.279L415.684 958.818H474.549L474.912 959.182L475.276 958.818H541.952L620.438 937.733L620.801 937.915L621.165 937.552L663.678 926.1H663.86L773.049 863.027H773.231L802.482 833.763L803.027 833.581V833.218L862.255 773.962L895.865 715.797L896.229 715.615V715.251L925.298 664.902V664.72L947.281 582.38L947.644 582.198L947.463 581.653L957.818 542.755L958 416.427ZM956.183 478.046L925.298 478.591L946.736 381.346L956.183 416.791V478.046ZM580.287 302.459L681.846 478.591L475.639 478.046L580.287 302.459ZM474.004 477.137L375.533 301.732H578.652L474.004 477.137ZM374.08 302.641L472.369 478.046L272.339 478.591L374.08 302.641ZM472.369 479.864L373.898 656.359L272.339 480.409L472.369 479.864ZM375.533 657.268L474.004 480.772L578.652 657.268H375.533ZM580.287 656.359L475.639 479.864L682.028 480.409L580.287 656.359ZM581.922 301.732L753.791 316.819L683.299 477.319L581.922 301.732ZM375.715 299.733L470.915 158.864L578.47 299.733H375.715ZM270.885 477.501L188.039 316.819L372.445 301.732L270.885 477.501ZM372.263 657.086L190.038 636.91L270.885 481.318L372.263 657.086ZM578.47 659.085L472.914 794.683L375.715 659.085H578.47ZM683.299 481.499L755.79 636.91L581.922 657.086L683.299 481.499ZM755.245 318.273L832.096 478.591H684.935L755.245 318.273ZM581.74 299.915L654.231 173.587L753.246 315.001L581.74 299.915ZM580.287 299.006L472.914 158.319L652.777 172.496L580.287 299.006ZM374.08 299.006L295.412 176.677L469.098 158.5L374.08 299.006ZM372.445 299.915L188.584 315.001L293.595 177.586L372.445 299.915ZM269.432 478.591H115.912L186.767 318.273L269.432 478.591ZM269.432 480.409L188.766 635.638L115.912 480.409H269.432ZM372.445 658.904L291.597 782.323L190.583 638.727L372.445 658.904ZM374.08 659.812L471.097 795.228L293.232 783.05L374.08 659.812ZM580.287 659.812L652.777 781.051L474.912 795.228L580.287 659.812ZM581.74 658.904L755.245 638.727L654.231 780.142L581.74 658.904ZM684.935 480.409H832.096L757.425 635.456L684.935 480.409ZM756.698 317.364L875.517 343.539L833.186 476.955L756.698 317.364ZM656.411 173.405L789.582 207.214L754.881 314.274L656.411 173.405ZM472.732 156.683L549.219 68.1624L651.869 170.861L472.732 156.683ZM295.957 174.859L392.611 68.1624L469.098 156.683L295.957 174.859ZM186.949 314.274L150.795 207.577L291.597 177.404L186.949 314.274ZM114.64 476.955L70.3103 343.539L184.951 317.364L114.64 476.955ZM187.131 636.365L70.4919 614.189L114.822 481.863L187.131 636.365ZM289.417 782.505L150.795 746.152L188.947 639.455L289.417 782.505ZM471.097 797.046L394.61 889.747L293.959 785.05L471.097 797.046ZM651.869 783.05L549.219 887.748L474.73 797.046L651.869 783.05ZM756.88 639.636L793.034 748.333L656.229 780.505L756.88 639.636ZM833.186 481.863L873.519 610.554L758.878 636.183L833.186 481.863ZM876.789 345.72L922.936 478.591H834.821L876.789 345.72ZM756.335 315.365L791.036 208.123L795.578 213.394L874.79 341.358L756.335 315.365ZM655.684 171.224L697.652 99.2445L788.129 204.851L655.684 171.224ZM654.049 170.315L551.945 68.1624L696.017 98.1539L654.049 170.315ZM470.915 155.956L394.61 67.6171H547.221L470.915 155.956ZM293.959 174.314L251.809 96.1545L390.068 68.1624L293.959 174.314ZM250.355 97.2451L292.505 175.405L152.066 205.396L250.355 97.2451ZM185.496 315.365L71.037 341.539L149.341 209.031L185.496 315.365ZM113.187 478.591H27.252L69.2202 345.902L113.187 478.591ZM113.187 480.409L69.2202 612.008L27.252 480.409H113.187ZM187.494 638.364L149.341 744.879L71.037 616.188L187.494 638.364ZM290.325 784.504L248.357 858.665L152.248 748.514L290.325 784.504ZM291.779 785.413L391.884 889.565L249.81 859.574L291.779 785.413ZM472.914 797.773L547.221 888.293L396.608 890.292L472.914 797.773ZM654.049 783.414L692.02 857.574L551.945 887.566L654.049 783.414ZM693.655 856.666L655.684 782.687L791.763 750.696L693.655 856.666ZM758.333 638.364L873.155 612.735L871.702 616.734L794.488 746.879L758.333 638.364ZM834.639 480.409H922.754L874.79 608.554L834.639 480.409ZM878.242 344.629L945.464 377.893L923.844 476.046L878.242 344.629ZM797.031 212.485L793.579 208.486L893.14 243.204L876.062 340.63L797.031 212.485ZM700.014 99.2445L800.302 126.328L789.946 204.306L700.014 99.2445ZM551.4 66.3448L612.807 21.4484L694.564 96.1545L551.4 66.3448ZM395.155 65.7995L477.092 2.36296L546.858 65.7995H395.155ZM253.807 93.9733L336.654 23.6296L390.431 66.163L253.807 93.9733ZM150.613 204.306L155.518 128.145L247.449 97.4268L150.613 204.306ZM69.7652 340.085L59.7728 251.383L147.161 209.031L69.7652 340.085ZM26.3436 475.138L14.3527 370.258L67.5851 344.629L26.3436 475.138ZM67.7667 613.644L16.7146 597.285L26.3436 484.044L67.7667 613.644ZM147.343 745.061L63.7698 714.524L69.7652 618.006L147.343 745.061ZM245.813 858.665L161.15 836.49L150.795 749.605L245.813 858.665ZM392.611 891.565L339.197 935.916L251.627 861.755L392.611 891.565ZM546.858 889.929L474.912 956.455L397.153 891.928L546.858 889.929ZM690.748 859.574L620.62 935.37L551.4 889.383L690.748 859.574ZM793.579 751.059L801.028 832.127L696.199 856.666L793.579 751.059ZM873.519 617.279L874.427 614.553L894.23 713.979L796.305 747.06L873.519 617.279ZM923.844 482.59L945.464 580.926L876.244 609.645L923.844 482.59ZM923.662 295.189L945.282 375.711L877.879 342.448L894.957 245.203L923.662 295.189ZM892.232 240.841L791.763 205.76L802.118 127.418L860.801 186.129L892.232 240.841ZM798.303 123.783L698.742 97.0633L713.277 63.6183L771.959 97.6086L798.303 123.783ZM711.642 62.5277L697.107 95.9727L616.078 21.812L663.133 34.3539L711.642 62.5277ZM610.809 20.5396L549.219 65.4359L479.454 2.1812H541.771L610.809 20.5396ZM416.229 2.1812H474.549L392.793 65.6177L392.611 65.4359H392.429L338.652 22.7208L416.229 2.1812ZM294.867 34.7174L333.02 24.5385L250.719 94.3368L233.641 70.1619L294.867 34.7174ZM186.041 97.4268L231.824 70.8889L248.902 95.0639L158.062 125.419L186.041 97.4268ZM97.1989 186.311L153.701 129.781L148.796 206.305L61.2262 248.657L97.1989 186.311ZM34.3376 295.189L58.3194 253.746L68.3118 342.448L14.7161 368.077L34.3376 295.189ZM13.081 374.621L24.8902 478.591L1.8168 478.046V416.609L13.081 374.621ZM1.8168 542.391V479.864L24.8902 480.409L15.2611 592.559L1.8168 542.391ZM34.3376 663.811L17.0779 599.284L68.3118 615.643L62.3163 712.161L34.3376 663.811ZM65.0415 716.887L148.433 747.424L148.796 747.606L159.152 834.672L97.1989 772.689L65.0415 716.887ZM294.867 924.283L186.041 861.573L163.331 838.852L247.994 861.028L335.563 935.189L294.867 924.283ZM416.229 956.819L341.196 936.643L394.61 892.11L472.369 956.637H416.229V956.819ZM541.771 956.819H477.274L549.038 890.292L549.219 890.111L618.44 936.098L541.771 956.819ZM663.133 924.283L623.527 934.825L693.11 859.574L711.46 896.291L663.133 924.283ZM771.959 861.573L713.095 895.564L694.564 858.847L798.848 834.49L771.959 861.573ZM860.801 772.689L802.663 830.855L795.215 749.605L893.14 716.524L860.801 772.689ZM923.662 663.811L895.684 712.161L875.699 612.008H875.881V611.826L945.282 582.925L923.662 663.811ZM946.736 577.654L925.298 480.409L956.183 479.864V542.391L946.736 577.654Z" fill="url(#paint0_radial)"/>
<defs>
<radialGradient id="paint0_radial" cx="0" cy="0" r="1" gradientUnits="userSpaceOnUse" gradientTransform="translate(478.976 479.491) scale(479.12 479.347)">
<stop stop-color="#BF0487"/>
<stop offset="0.9748" stop-color="#04ADBF"/>
</radialGradient>
</defs>
</svg>
