<svg width="48" height="38" viewBox="0 0 48 38" fill="none" xmlns="http://www.w3.org/2000/svg">
<mask id="mask0" mask-type="alpha" maskUnits="userSpaceOnUse" x="0" y="0" width="48" height="38">
<path d="M30.6366 0C31.2056 0 31.7477 0.242401 32.1271 0.666401L47.3376 17.6664C48.0169 18.4257 48.0169 19.5743 47.3376 20.3336L32.1271 37.3336C31.7477 37.7576 31.2056 38 30.6366 38H2.00396C0.275162 38 -0.639338 35.9548 0.513462 34.6664L14.5308 19L0.513462 3.3336C-0.639338 2.0452 0.275162 0 2.00396 0H30.6366Z" fill="white"/>
</mask>
<g mask="url(#mask0)">
<path d="M31.5308 0L14.5308 19L-2.46924 0H31.5308Z" fill="url(#paint0_linear)"/>
<g filter="url(#filter0_f)">
<path d="M31.5308 0.199219L-2.46924 38.1992H31.5308L48.5308 19.1992L31.5308 0.199219Z" fill="black" fill-opacity="0.24"/>
</g>
<g filter="url(#filter1_f)">
<path d="M31.5308 1L-2.46924 39H31.5308L48.5308 20L31.5308 1Z" fill="black" fill-opacity="0.32"/>
</g>
<path d="M-2.46924 38L31.5308 0L48.5308 19L31.5308 38H-2.46924Z" fill="url(#paint1_linear)"/>
<path d="M-2.46924 38L31.5308 0L40.0308 9.5L14.5308 38H-2.46924Z" fill="url(#paint2_linear)"/>
</g>
<defs>
<filter id="filter0_f" x="-2.86924" y="-0.200781" width="51.8" height="38.8" filterUnits="userSpaceOnUse" color-interpolation-filters="sRGB">
<feFlood flood-opacity="0" result="BackgroundImageFix"/>
<feBlend mode="normal" in="SourceGraphic" in2="BackgroundImageFix" result="shape"/>
<feGaussianBlur stdDeviation="0.2" result="effect1_foregroundBlur"/>
</filter>
<filter id="filter1_f" x="-6.46924" y="-3" width="59" height="46" filterUnits="userSpaceOnUse" color-interpolation-filters="sRGB">
<feFlood flood-opacity="0" result="BackgroundImageFix"/>
<feBlend mode="normal" in="SourceGraphic" in2="BackgroundImageFix" result="shape"/>
<feGaussianBlur stdDeviation="2" result="effect1_foregroundBlur"/>
</filter>
<linearGradient id="paint0_linear" x1="21.5308" y1="22.5" x2="14.5308" y2="1.16439e-06" gradientUnits="userSpaceOnUse">
<stop stop-color="#0D36A5"/>
<stop offset="1" stop-color="#1152D4"/>
</linearGradient>
<linearGradient id="paint1_linear" x1="23.0308" y1="0" x2="23.0308" y2="38" gradientUnits="userSpaceOnUse">
<stop stop-color="#84CAFF"/>
<stop offset="1" stop-color="#61B1FB"/>
</linearGradient>
<linearGradient id="paint2_linear" x1="18.7808" y1="0" x2="18.7808" y2="38" gradientUnits="userSpaceOnUse">
<stop stop-color="#3B90F5"/>
<stop offset="1" stop-color="#2A78EE"/>
</linearGradient>
</defs>
</svg>
