<svg width="49" height="46" viewBox="0 0 49 46" fill="none" xmlns="http://www.w3.org/2000/svg">
<mask id="mask0" mask-type="alpha" maskUnits="userSpaceOnUse" x="0" y="0" width="49" height="46">
<path d="M36.0004 26C36.0004 24.8954 36.8958 24 38.0004 24H46.0322C47.1358 24 48.0308 23.1061 48.0322 22.0024L48.0566 2.0024C48.0579 0.896899 47.1621 0 46.0566 0H14.0004C12.8958 0 12.0004 0.8954 12.0004 2V12H2C0.8954 12 -9.99916e-05 12.8955 8.3744e-09 14L0.000400552 34C0.000400552 35.1046 0.895801 36 2.0004 36H10.0004C11.105 36 12.0004 36.8954 12.0004 38V44.3787C12.0004 45.715 13.6161 46.3843 14.5611 45.4393L23.4146 36.5858C23.7897 36.2107 24.2984 36 24.8288 36H34.0004C35.105 36 36.0004 35.1046 36.0004 34V26Z" fill="white"/>
</mask>
<g mask="url(#mask0)">
<path fill-rule="evenodd" clip-rule="evenodd" d="M-0.00012207 12L0.000377655 36H10.0004C11.105 36 12.0004 36.8954 12.0004 38V48L23.4146 36.5858C23.7897 36.2107 24.2984 36 24.8288 36H36.0004L36.0002 14C36.0002 12.8954 35.1047 12 34.0002 12H-0.00012207Z" fill="url(#paint0_linear)"/>
<g filter="url(#filter0_f)">
<path fill-rule="evenodd" clip-rule="evenodd" d="M48.059 1L48.0005 25H38.0007C36.8962 25 36.0007 25.8954 36.0007 27L36.0006 33.3788C36.0006 34.7151 34.3849 35.3843 33.44 34.4394L24.5864 25.5858C24.2113 25.2107 23.7026 25 23.1722 25H14.0004C12.8958 25 12.0004 24.1046 12.0004 23V1H48.059Z" fill="black" fill-opacity="0.32"/>
</g>
<g filter="url(#filter1_f)">
<path fill-rule="evenodd" clip-rule="evenodd" d="M48.059 0.189453L48.0005 24.1895H38.0007C36.8962 24.1895 36.0007 25.0849 36.0007 26.1895L36.0006 32.5683C36.0006 33.9046 34.3849 34.5738 33.44 33.6289L24.5864 24.7753C24.2113 24.4002 23.7026 24.1895 23.1722 24.1895H14.0004C12.8958 24.1895 12.0004 23.2941 12.0004 22.1895V0.189453H48.059Z" fill="black" fill-opacity="0.24"/>
</g>
<path fill-rule="evenodd" clip-rule="evenodd" d="M48.059 0L48.0005 24H38.0007C36.8962 24 36.0007 24.8954 36.0007 26L36.0006 32.3788C36.0006 33.7151 34.3849 34.3843 33.44 33.4394L24.5864 24.5858C24.2113 24.2107 23.7026 24 23.1722 24H14.0004C12.8958 24 12.0004 23.1046 12.0004 22V0H48.059Z" fill="url(#paint1_linear)"/>
<path d="M48.0004 0H12.0004V8H48.0004V0Z" fill="#4CCBED"/>
<path d="M48.0004 8H12.0004V16H48.0004V8Z" fill="#17AAD2"/>
</g>
<defs>
<filter id="filter0_f" x="8.00037" y="-3" width="44.0586" height="41.8817" filterUnits="userSpaceOnUse" color-interpolation-filters="sRGB">
<feFlood flood-opacity="0" result="BackgroundImageFix"/>
<feBlend mode="normal" in="SourceGraphic" in2="BackgroundImageFix" result="shape"/>
<feGaussianBlur stdDeviation="2" result="effect1_foregroundBlur"/>
</filter>
<filter id="filter1_f" x="11.6204" y="-0.190547" width="36.8186" height="34.6417" filterUnits="userSpaceOnUse" color-interpolation-filters="sRGB">
<feFlood flood-opacity="0" result="BackgroundImageFix"/>
<feBlend mode="normal" in="SourceGraphic" in2="BackgroundImageFix" result="shape"/>
<feGaussianBlur stdDeviation="0.19" result="effect1_foregroundBlur"/>
</filter>
<linearGradient id="paint0_linear" x1="5.50038" y1="12" x2="28.0004" y2="55.5" gradientUnits="userSpaceOnUse">
<stop stop-color="#117B97"/>
<stop offset="1" stop-color="#0A4A5C"/>
</linearGradient>
<linearGradient id="paint1_linear" x1="26.0004" y1="1.75" x2="40.0004" y2="35.75" gradientUnits="userSpaceOnUse">
<stop stop-color="#1392B4"/>
<stop offset="1" stop-color="#117B97"/>
</linearGradient>
</defs>
</svg>
