<svg width="26" height="7" viewBox="0 0 26 7" fill="none" xmlns="http://www.w3.org/2000/svg">
<g clip-path="url(#clip0)">
<path d="M23.208 6.08776L25.846 3.4875C25.8949 3.43983 25.9338 3.38273 25.9604 3.3196C25.9869 3.25646 26.0006 3.18858 26.0006 3.12C26.0006 3.05142 25.9869 2.98354 25.9604 2.9204C25.9338 2.85727 25.8949 2.80016 25.846 2.7525L23.208 0.152244C23.108 0.0545516 22.9742 -7.62939e-05 22.835 -7.62939e-05C22.6958 -7.62939e-05 22.562 0.0545516 22.462 0.152244C22.4131 0.199913 22.3742 0.257015 22.3476 0.320152C22.3211 0.383288 22.3074 0.451167 22.3074 0.519748C22.3074 0.588328 22.3211 0.656207 22.3476 0.719344C22.3742 0.78248 22.4131 0.839583 22.462 0.887251L24.2 2.60126H0.528C0.459449 2.60046 0.391413 2.61328 0.327778 2.639C0.264142 2.66471 0.206154 2.70281 0.157124 2.75112C0.108093 2.79943 0.068982 2.85701 0.0420227 2.92056C0.0150634 2.98411 0.000783417 3.0524 0 3.12151C0.000783417 3.19063 0.0150634 3.25891 0.0420227 3.32246C0.068982 3.38602 0.108093 3.44359 0.157124 3.4919C0.206154 3.54021 0.264142 3.57831 0.327778 3.60403C0.391413 3.62974 0.459449 3.64256 0.528 3.64176H24.198L22.46 5.35577C22.411 5.4035 22.372 5.46068 22.3454 5.5239C22.3188 5.58712 22.305 5.6551 22.305 5.72378C22.305 5.79247 22.3188 5.86044 22.3454 5.92366C22.372 5.98688 22.411 6.04406 22.46 6.09179C22.5606 6.18954 22.6951 6.24383 22.8348 6.24308C22.9745 6.24232 23.1084 6.18659 23.208 6.08776Z" fill="white"/>
</g>
<defs>
<clipPath id="clip0">
<rect width="26" height="6.24" fill="white"/>
</clipPath>
</defs>
</svg>
