<svg width="743" height="111" viewBox="0 0 743 111" fill="none" xmlns="http://www.w3.org/2000/svg">
<path d="M19.4715 8.20711C19.862 7.81658 19.862 7.18342 19.4715 6.79289L13.1075 0.428931C12.717 0.0384069 12.0838 0.0384069 11.6933 0.428931C11.3028 0.819456 11.3028 1.45262 11.6933 1.84314L17.3501 7.5L11.6933 13.1569C11.3028 13.5474 11.3028 14.1805 11.6933 14.5711C12.0838 14.9616 12.717 14.9616 13.1075 14.5711L19.4715 8.20711ZM1 8.5L18.7644 8.5L18.7644 6.5L1 6.5L1 8.5Z" fill="white"/>
<path d="M1.8374 7.5V21C1.8374 43.0914 19.746 61 41.8374 61H702C724.091 61 742 78.9086 742 101V110.5" stroke="white" stroke-width="2"/>
</svg>
