<svg width="250" height="74" viewBox="0 0 250 74" fill="none" xmlns="http://www.w3.org/2000/svg">
<path d="M13.854 61.4706C5.28024 53.482 4.81205 40.0653 12.8006 31.4915C20.7892 22.9177 34.2059 22.4495 42.7797 30.4381H51.69C51.6022 30.2918 51.4998 30.1601 51.412 30.0284C49.3929 27.029 46.8178 24.454 43.8185 22.4349C35.947 17.1092 25.91 16.1435 17.1607 19.8452C12.1422 21.9667 7.85531 25.5074 4.79741 30.0284C-0.513665 37.8999 -1.47932 47.9222 2.22235 56.6716C4.34385 61.69 7.88457 65.9916 12.4056 69.0348C17.0436 72.1659 22.5156 73.8484 28.1193 73.8338C31.8795 73.8484 35.5958 73.0876 39.0634 71.6245C44.0818 69.503 48.3834 65.9623 51.4266 61.4413C51.5876 61.1926 51.7631 60.9438 51.9241 60.6805H43.5844C35.5373 69.0056 22.3254 69.3567 13.854 61.4706Z" fill="#FF4013"/>
<path d="M248.273 43.445C246.62 39.5385 243.869 36.1879 240.343 33.8177C236.729 31.3743 232.472 30.0722 228.111 30.0868C225.185 30.0868 222.288 30.672 219.596 31.8133C215.69 33.4666 212.339 36.2172 209.969 39.7433C205.828 45.8737 205.068 53.6721 207.95 60.4902C209.603 64.3967 212.354 67.7472 215.88 70.1174C222.01 74.258 229.809 75.0188 236.627 72.1365C240.533 70.4832 243.869 67.7325 246.254 64.2064C250.395 58.0614 251.155 50.2484 248.273 43.445ZM228.068 67.1619C219.655 67.1473 212.822 60.3292 212.822 51.9163C212.822 43.4889 219.655 36.6708 228.068 36.6708C236.495 36.6708 243.313 43.5035 243.313 51.9163C243.313 60.3292 236.495 67.1619 228.068 67.1619Z" fill="#FF4013"/>
<path d="M96.8268 30.0871C85.1951 29.7945 75.5386 38.9974 75.246 50.6145C75.2314 51.0681 75.2314 51.5216 75.2606 51.9752C75.2606 64.792 84.5075 73.9511 98.3777 73.9511C104.786 74.2583 110.99 71.6979 115.321 66.972L111.034 61.9389C107.859 65.4065 103.323 67.2939 98.6264 67.133C90.1112 67.133 84.0246 62.0999 83.059 54.5649H117.925C118.013 53.8333 118.086 52.8677 118.086 52.2093C118.086 39.0121 109.249 30.0871 96.8268 30.0871ZM83.0444 48.9905C83.615 41.8651 89.6869 36.437 96.8268 36.6711C103.967 36.4516 110.039 41.8651 110.609 48.9905H83.0444Z" fill="#FF4013"/>
<path d="M76.3872 30.0869C68.8522 30.0869 63.4973 32.6766 60.732 37.7097V30.4966H53.2701V73.4827H61.0539V52.0628C61.0539 42.655 66.2479 37.5488 74.6022 37.5488C75.2021 37.5341 75.7874 37.5634 76.3872 37.6365V30.0869Z" fill="#FF4013"/>
<path d="M185.228 67.3963C180.941 67.3963 179.566 64.8066 179.566 60.1832V36.9052H191.885V30.4967H179.551V17.8848H171.767V30.4967H169.09V36.9052H171.767V60.5051C171.767 69.1813 175.644 73.9656 184.321 73.9656C187.379 74.0827 190.378 73 192.66 70.9663L190.232 65.3772C188.915 66.694 187.115 67.4109 185.228 67.3963Z" fill="#FF4013"/>
<path d="M203.326 30.4968H195.543V73.4683H203.326V30.4968Z" fill="#FF4013"/>
<path d="M157.838 36.4806C156.858 35.5003 155.79 34.5932 154.62 33.8177C151.006 31.3743 146.748 30.0722 142.388 30.0868C139.462 30.0868 136.565 30.672 133.873 31.8133C129.966 33.4666 126.616 36.2172 124.245 39.7433C120.105 45.8737 119.344 53.6721 122.226 60.4902C123.88 64.3967 126.63 67.7472 130.156 70.1174C136.287 74.258 144.085 75.0188 150.903 72.1365C153.508 71.0392 155.849 69.4297 157.838 67.4545V73.4972H164.554V30.4965H157.838V36.4806ZM142.359 67.1619C133.946 67.1473 127.113 60.3292 127.113 51.9163C127.113 43.4889 133.946 36.6708 142.359 36.6708C150.786 36.6708 157.604 43.5035 157.604 51.9163C157.604 60.3292 150.772 67.1619 142.359 67.1619Z" fill="#FF4013"/>
<path d="M217.006 17.5775L186.881 24.5711L195.85 17.5775L159.097 0.151855L217.006 17.5775Z" fill="#0D2E4E"/>
<path d="M217.006 17.5775H195.85L159.097 0.151855L217.006 17.5775Z" fill="#1A4580"/>
</svg>
