<svg width="212" height="85" viewBox="0 0 212 85" fill="none" xmlns="http://www.w3.org/2000/svg">
<path d="M0.154114 0.375732V6.16539H41.3596V0.375732H0.154114ZM47.198 0.375732V6.16539H105.917C105.917 6.16539 99.92 0.375732 91.9759 0.375732H47.198ZM117.437 0.375732V6.16539H152.962L150.852 0.375732H117.437ZM178.431 0.375732L176.321 6.16539H211.524V0.375732H178.431ZM0.154114 11.6354V17.4245H41.3596V11.6354H0.154114ZM47.198 11.6429V17.4245H112.732C112.732 17.4245 111.967 12.9683 110.631 11.6429H47.198ZM117.437 11.6429V17.4245H156.856L154.905 11.6429H117.437ZM174.214 11.6429L172.262 17.4245H211.525V11.6429H174.214ZM11.9961 22.8945V28.6929H29.8411V22.8945H11.9961ZM59.0394 22.8945V28.6929H76.8843V22.8945H59.0394ZM94.2418 22.8945V28.6929H112.087C112.087 28.6929 113.22 25.6302 113.22 22.8945H94.2418ZM129.279 22.8945V28.6929H160.917L158.808 22.8945H129.279ZM170.326 22.8945L168.209 28.6929H200.005V22.8945H170.326ZM11.9961 34.1629V39.9532H29.8411V34.1629H11.9961ZM59.0394 34.1629V39.9532H104.62C104.62 39.9532 108.432 36.9814 109.648 34.1629H59.0394ZM129.279 34.1629V39.9532H147.124V36.7291L148.257 39.9532H180.945L182.161 36.7291V39.9532H200.006V34.1629H166.508L164.73 39.0679L162.944 34.1629H129.279ZM11.9961 45.422V51.2135H29.8411V45.422H11.9961ZM59.0394 45.422V51.2135H109.648C108.431 48.4031 104.62 45.422 104.62 45.422H59.0394ZM129.279 45.422V51.2135H147.124V45.422H129.279ZM150.366 45.422L152.523 51.2135H177.032L179.083 45.422H150.366ZM182.16 45.422V51.2135H200.006V45.422H182.16ZM11.9961 56.6829V62.4732H29.8411V56.6829H11.9961ZM59.0394 56.6829V62.4732H76.8843V56.6829H59.0394ZM94.2418 56.6829V62.4732H113.219C113.219 59.7407 112.087 56.6829 112.087 56.6829H94.2418ZM129.279 56.6829V62.4732H147.124V56.6829H129.279ZM154.416 56.6829L156.509 62.4732H172.941L175.049 56.6829H154.416ZM182.16 56.6829V62.4732H200.006V56.6829H182.16ZM0.476408 67.9426V73.7397H41.6825V67.9426H0.476408ZM47.198 67.9426V73.7397H110.632C111.967 72.413 112.733 67.9426 112.733 67.9426H47.198ZM117.76 67.9426V73.7397H147.124V67.9426H117.76ZM158.477 67.9426L160.628 73.7397H168.988L171.007 67.9426H158.477ZM182.16 67.9426V73.7397H211.846V67.9426H182.16ZM0.476408 79.2098V85H41.6825V79.2098H0.476408ZM47.198 79.2098V84.9908H91.9759C99.92 84.9908 105.917 79.2098 105.917 79.2098H47.198ZM117.76 79.2098V85H147.124V79.2098H117.76ZM162.554 79.2098L164.622 84.9821L164.977 84.9908L167.078 79.2098H162.554ZM182.16 79.2098V85H211.846V79.2098H182.16Z" fill="#1F70C1"/>
</svg>
