<svg width="244" height="171" viewBox="0 0 244 171" fill="none" xmlns="http://www.w3.org/2000/svg">
<path d="M101.483 18.5702C105.434 14.3893 110.188 11.0595 115.455 8.78237C120.723 6.50528 126.395 5.32843 132.128 5.32312C139.751 5.35457 147.227 7.43376 153.784 11.3459C160.341 15.258 165.742 20.8612 169.427 27.5766C176.06 24.5953 183.244 23.0583 190.508 23.0664C197.85 23.0615 205.111 24.6044 211.824 27.5956C218.538 30.5868 224.554 34.9601 229.486 40.4337C234.418 45.9073 238.156 52.3599 240.459 59.3758C242.762 66.3918 243.58 73.8155 242.86 81.1688C242.139 88.5221 239.896 95.642 236.275 102.07C232.654 108.498 227.736 114.091 221.836 118.489C215.937 122.888 209.188 125.994 202.023 127.607C194.859 129.221 187.438 129.306 180.238 127.858C175.492 136.404 167.677 142.799 158.396 145.732C149.115 148.665 139.071 147.915 130.323 143.635C126.919 151.707 121.183 158.563 113.86 163.314C106.537 168.065 97.9637 170.491 89.2534 170.277C80.5432 170.063 72.0978 167.22 65.0132 162.116C57.9286 157.011 52.5318 149.882 49.5232 141.652C46.7966 142.234 44.0164 142.524 41.2292 142.518C32.305 142.406 23.6629 139.355 16.6238 133.833C9.58476 128.311 4.53615 120.621 2.24978 111.939C-0.0366023 103.256 0.565069 94.0588 3.96278 85.7529C7.3605 77.447 13.3673 70.4895 21.065 65.9439C16.5312 55.356 16.0007 43.4651 19.5733 32.5109C23.146 21.5567 30.5753 12.2953 40.4617 6.47131C50.3482 0.647287 62.0094 -1.33741 73.2489 0.891078C84.4883 3.11956 94.5303 9.40741 101.483 18.5702Z" fill="#00A1F1"/>
<path d="M35.8972 88.3067C35.7489 88.7021 35.9506 88.7873 36.0039 88.8631C36.4456 89.1707 36.9067 89.4492 37.3841 89.697C39.6111 90.8758 42.1011 91.4609 44.6166 91.3964C49.5765 91.3964 52.6567 88.7453 52.6567 84.4696V84.3844C52.6567 80.4294 49.1801 78.9972 45.9237 77.9603L45.4984 77.8215C43.0347 77.0203 40.9209 76.3251 40.9209 74.7004V74.6153C40.9209 73.2262 42.1632 72.1999 44.0858 72.1999C46.2816 72.2458 48.4371 72.8018 50.3842 73.8245C50.3842 73.8245 50.8616 74.1348 51.0424 73.6648C51.1375 73.4187 51.9695 71.1746 52.0518 70.9286C52.0868 70.8203 52.0812 70.7029 52.0362 70.5985C51.9911 70.4941 51.9097 70.4099 51.8073 70.3617C49.6514 69.0952 47.1986 68.4308 44.7023 68.4373H44.2028C39.6682 68.4373 36.4929 71.1945 36.4929 75.1495V75.2346C36.4929 79.4031 39.9869 80.7606 43.2584 81.7007L43.7891 81.8605C46.1787 82.5976 48.2287 83.2286 48.2287 84.9279V85.0131C48.2287 86.5631 46.8902 87.7061 44.7347 87.7061C42.4745 87.7205 40.2582 87.0782 38.3517 85.8563C38.0041 85.6534 37.799 85.5064 37.5336 85.3431C37.4815 85.2964 37.418 85.2645 37.3497 85.2507C37.2813 85.2369 37.2105 85.2416 37.1446 85.2644C37.0786 85.2872 37.0199 85.3272 36.9744 85.3804C36.9289 85.4336 36.8983 85.498 36.8858 85.5671L35.8984 88.3033L35.8972 88.3067Z" fill="white"/>
<path d="M108.487 88.3067C108.339 88.7021 108.541 88.7873 108.594 88.8631C109.036 89.1707 109.497 89.4492 109.974 89.697C112.201 90.8758 114.691 91.4609 117.207 91.3964C122.167 91.3964 125.247 88.7453 125.247 84.4696V84.3844C125.247 80.4294 121.77 78.9972 118.514 77.9603L118.089 77.8215C115.625 77.0203 113.511 76.3251 113.511 74.7004V74.6153C113.511 73.2262 114.753 72.1999 116.676 72.1999C118.872 72.2458 121.027 72.8018 122.974 73.8245C122.974 73.8245 123.452 74.1348 123.633 73.6648C123.728 73.4187 124.56 71.1746 124.642 70.9286C124.677 70.8203 124.671 70.7029 124.626 70.5985C124.581 70.4941 124.5 70.4099 124.397 70.3617C122.241 69.0952 119.789 68.4308 117.292 68.4373H116.793C112.258 68.4373 109.083 71.1945 109.083 75.1495V75.2346C109.083 79.4031 112.577 80.7606 115.848 81.7007L116.379 81.8605C118.769 82.5976 120.829 83.2286 120.829 84.9279V85.0131C120.829 86.5631 119.491 87.7061 117.335 87.7061C115.075 87.7205 112.859 87.0782 110.952 85.8563C110.605 85.6534 110.399 85.5146 110.134 85.3431C110.079 85.3022 110.015 85.2753 109.948 85.2646C109.88 85.254 109.811 85.2599 109.747 85.2819C109.682 85.3039 109.624 85.3413 109.576 85.391C109.529 85.4406 109.495 85.501 109.476 85.5671L108.489 88.3033L108.487 88.3067Z" fill="white"/>
<path d="M158.041 79.9342C158.15 81.9118 157.689 83.879 156.713 85.599C156.237 86.2139 155.627 86.7113 154.93 87.0534C154.234 87.3955 153.469 87.5733 152.694 87.5733C151.919 87.5733 151.154 87.3955 150.458 87.0534C149.761 86.7113 149.151 86.2139 148.674 85.599C147.814 83.839 147.367 81.9038 147.367 79.9424C147.367 77.981 147.814 76.0457 148.674 74.2857C149.111 73.6308 149.713 73.1045 150.418 72.7608C151.124 72.4171 151.907 72.2683 152.689 72.3298C153.473 72.272 154.258 72.4222 154.966 72.7655C155.674 73.1087 156.28 73.6329 156.724 74.2857C157.692 76.0007 158.149 77.9601 158.04 79.9296L158.041 79.9342ZM162.182 75.4509C161.807 74.1267 161.168 72.8935 160.302 71.8271C159.435 70.7895 158.351 69.9572 157.127 69.3895C155.729 68.7701 154.215 68.4637 152.688 68.4914C151.16 68.4584 149.644 68.7651 148.248 69.3895C147.021 69.9562 145.933 70.7885 145.062 71.8271C144.195 72.8921 143.555 74.1257 143.183 75.4509C142.375 78.3814 142.375 81.4777 143.183 84.4082C143.563 85.7321 144.206 86.9647 145.073 88.032C145.935 89.069 147.021 89.895 148.248 90.4475C151.093 91.6159 154.28 91.6159 157.126 90.4475C158.355 89.8987 159.441 89.0721 160.301 88.032C161.169 86.967 161.809 85.7334 162.181 84.4082C162.988 81.4777 162.988 78.3814 162.181 75.4509" fill="white"/>
<path d="M196.169 86.9353C196.153 86.8819 196.126 86.8325 196.09 86.7901C196.054 86.7477 196.01 86.7134 195.96 86.6892C195.91 86.6651 195.856 86.6517 195.8 86.6499C195.745 86.6481 195.69 86.6579 195.638 86.6787C195.019 86.9329 194.375 87.1194 193.716 87.2351C192.963 87.346 192.204 87.3994 191.443 87.3949C190.574 87.4432 189.705 87.3095 188.889 87.0024C188.074 86.6952 187.331 86.2213 186.707 85.6104C185.4 84.0167 184.764 81.9721 184.934 79.9129C184.847 77.9602 185.403 76.0332 186.516 74.4312C187.062 73.7435 187.766 73.1995 188.567 72.8458C189.367 72.4921 190.242 72.3394 191.114 72.4006C192.597 72.3703 194.075 72.5834 195.49 73.0316C195.49 73.0316 195.819 73.1704 195.968 72.7435C196.329 71.7277 196.595 71.0115 196.987 69.8895C197.004 69.8404 197.011 69.7883 197.008 69.7364C197.004 69.6845 196.99 69.6339 196.966 69.5878C196.942 69.5417 196.909 69.501 196.869 69.4682C196.829 69.4354 196.782 69.4113 196.732 69.3974C195.835 69.0794 194.911 68.8451 193.971 68.6976C192.944 68.548 191.907 68.4766 190.87 68.4841C189.288 68.451 187.716 68.7571 186.261 69.3822C184.987 69.9366 183.849 70.7646 182.926 71.8081C182.015 72.8653 181.329 74.0984 180.908 75.4319C180.448 76.8829 180.218 78.398 180.228 79.9211C180.076 82.9359 181.058 85.8977 182.979 88.216C184.805 90.2687 187.567 91.316 191.146 91.316C193.147 91.3169 195.132 90.9586 197.008 90.2582C197.093 90.213 197.158 90.1371 197.19 90.0458C197.221 89.9545 197.217 89.8545 197.179 89.766L196.169 86.933V86.9353Z" fill="white"/>
<path d="M203.413 77.6249C203.544 76.446 203.932 75.3108 204.55 74.3009C204.978 73.6341 205.574 73.0938 206.278 72.7351C206.981 72.3765 207.767 72.2125 208.554 72.2598C209.33 72.2162 210.104 72.3825 210.795 72.7414C211.486 73.1003 212.069 73.6387 212.484 74.3009C213.063 75.3142 213.384 76.4563 213.418 77.6249H203.413ZM217.358 74.6753C217.005 73.4562 216.392 72.3291 215.563 71.3723C214.823 70.5197 213.92 69.8255 212.908 69.3312C211.638 68.7884 210.273 68.5084 208.894 68.5078C207.306 68.4681 205.729 68.7782 204.273 69.4163C203.026 69.9892 201.923 70.8366 201.045 71.8959C200.174 72.9741 199.528 74.2171 199.144 75.5512C198.723 77.013 198.515 78.5288 198.528 80.0509C198.512 81.5746 198.727 83.0919 199.165 84.5505C199.564 85.8827 200.257 87.1068 201.193 88.1311C202.174 89.1765 203.38 89.981 204.719 90.4824C206.35 91.0704 208.075 91.3497 209.807 91.3059C212.238 91.4381 214.663 90.9528 216.858 89.8946C217.017 89.8095 217.167 89.6614 216.974 89.2217L216.061 86.6348C216.043 86.5832 216.014 86.5358 215.978 86.4954C215.941 86.455 215.897 86.4224 215.847 86.3995C215.798 86.3766 215.744 86.3638 215.69 86.3619C215.635 86.3601 215.581 86.3692 215.53 86.3887C213.713 87.1527 211.752 87.5066 209.785 87.4255C208.925 87.5354 208.052 87.4479 207.231 87.1695C206.409 86.8911 205.661 86.429 205.043 85.8179C204.425 85.2069 203.952 84.4628 203.66 83.6415C203.368 82.8203 203.265 81.9431 203.359 81.0761L217.367 81.0866C217.467 81.0851 217.562 81.0474 217.636 80.9806C217.711 80.9137 217.758 80.8221 217.77 80.7227C218.038 78.6986 217.898 76.641 217.357 74.673L217.358 74.6753Z" fill="white"/>
<path d="M91.1981 77.6247C91.3334 76.4469 91.7213 75.3128 92.335 74.3007C92.7628 73.6339 93.359 73.0936 94.0625 72.7349C94.7661 72.3763 95.5516 72.2123 96.3388 72.2596C97.1152 72.216 97.8891 72.3823 98.5801 72.7412C99.2711 73.1001 99.8541 73.6385 100.269 74.3007C100.85 75.3126 101.169 76.4559 101.196 77.6247H91.1981ZM105.132 74.6751C104.779 73.456 104.167 72.3289 103.337 71.3721C102.597 70.5195 101.694 69.8253 100.682 69.331C99.4126 68.7882 98.0474 68.5082 96.668 68.5076C95.0805 68.4691 93.5039 68.7792 92.0476 69.4161C90.8005 69.989 89.6972 70.8364 88.819 71.8957C87.9489 72.9739 87.3026 74.2169 86.9184 75.551C86.5022 77.0139 86.2946 78.5289 86.302 80.0507C86.2862 81.5744 86.5011 83.0917 86.9393 84.5503C87.3383 85.8825 88.0316 87.1066 88.9673 88.1309C89.9483 89.1763 91.1548 89.9808 92.4937 90.4822C94.1246 91.0702 95.8494 91.3495 97.5812 91.3057C100.012 91.4379 102.437 90.9526 104.633 89.8944C104.792 89.8093 104.941 89.6612 104.749 89.2215L103.836 86.6346C103.817 86.583 103.789 86.5356 103.752 86.4952C103.715 86.4548 103.671 86.4222 103.622 86.3993C103.572 86.3764 103.519 86.3636 103.464 86.3617C103.41 86.3599 103.356 86.369 103.305 86.3885C101.485 87.1546 99.5197 87.5086 97.5487 87.4253C96.689 87.5352 95.8158 87.4477 94.9945 87.1693C94.1733 86.8909 93.4254 86.4288 92.807 85.8177C92.1886 85.2067 91.7158 84.4626 91.4241 83.6413C91.1324 82.8201 91.0294 81.9429 91.1228 81.0758L105.131 81.0863C105.231 81.0849 105.326 81.0472 105.4 80.9804C105.475 80.9135 105.522 80.8219 105.534 80.7225C105.828 78.6999 105.69 76.6377 105.131 74.6728L105.132 74.6751Z" fill="white"/>
<path d="M60.9183 86.8593C60.5918 86.6428 60.3152 86.3585 60.107 86.0254C59.8007 85.4638 59.6574 84.8269 59.6933 84.1873C59.6521 83.6629 59.7457 83.1368 59.9651 82.6594C60.1845 82.182 60.5223 81.7695 60.9461 81.4616C62.1444 80.6597 63.5819 80.3007 65.0137 80.4457C66.2865 80.4719 67.5565 80.579 68.8159 80.7665V87.1812C67.5682 87.4344 66.3048 87.6023 65.0345 87.6839C63.6079 87.8847 62.1558 87.5945 60.9136 86.8605L60.9183 86.8593ZM66.4889 76.9468C65.9152 76.9036 65.1828 76.8826 64.3009 76.8826C63.1359 76.8776 61.9754 77.0286 60.8499 77.3316C59.8002 77.6096 58.8079 78.0728 57.9191 78.6997C57.035 79.3269 56.3191 80.1648 55.8354 81.1385C55.3517 82.1122 55.1152 83.1913 55.1471 84.2794C55.117 85.3866 55.3348 86.4864 55.7845 87.4973C56.1987 88.3747 56.8271 89.1323 57.6109 89.6993C58.4658 90.3102 59.4392 90.7327 60.4674 90.9391C61.6851 91.208 62.9292 91.3371 64.1758 91.324C65.6026 91.3261 67.0271 91.2091 68.4346 90.9741C69.8044 90.7408 71.4929 90.3968 71.9611 90.2895C72.4292 90.1822 72.938 90.0329 72.938 90.0329C73.0364 90.0064 73.1223 89.9457 73.1806 89.8617C73.2389 89.7776 73.2659 89.6755 73.2567 89.5733L73.2462 76.6832C73.2462 73.8502 72.4918 71.7554 71.0154 70.462C69.1773 69.0447 66.8894 68.3495 64.5791 68.5061C63.3221 68.5199 62.0683 68.6369 60.8302 68.856C59.3095 69.1349 57.8476 69.6737 56.5076 70.4492C56.4225 70.5126 56.3628 70.6048 56.3394 70.7088C56.316 70.8128 56.3305 70.9218 56.3801 71.016L57.3675 73.6985C57.3822 73.7439 57.4058 73.7858 57.4369 73.8217C57.468 73.8577 57.506 73.887 57.5486 73.9079C57.5912 73.9288 57.6376 73.9408 57.6849 73.9433C57.7322 73.9458 57.7795 73.9388 57.8241 73.9225C57.9038 73.8888 57.9812 73.8498 58.0559 73.8058C59.9607 72.8781 62.0469 72.3888 64.1631 72.3736C65.3844 72.2929 66.599 72.6116 67.6257 73.2822C68.3906 73.8653 68.7846 74.7576 68.7846 76.6388V77.2372C67.5956 77.0447 66.49 76.9491 66.49 76.9491" fill="white"/>
<path d="M179.506 69.683C179.527 69.6362 179.538 69.5856 179.538 69.5343C179.539 69.483 179.529 69.4322 179.509 69.385C179.489 69.3378 179.46 69.2952 179.423 69.26C179.386 69.2248 179.342 69.1976 179.294 69.1803C178.526 68.9693 177.741 68.8334 176.947 68.7744C175.713 68.641 174.467 68.8424 173.336 69.3576C172.424 69.7499 171.613 70.3485 170.967 71.1071V69.3972C170.97 69.3422 170.961 69.2874 170.942 69.2358C170.923 69.1843 170.893 69.1372 170.856 69.0972C170.818 69.0573 170.773 69.0254 170.723 69.0034C170.673 68.9814 170.619 68.9698 170.564 68.9692H166.972C166.917 68.9698 166.863 68.9814 166.813 69.0034C166.763 69.0254 166.718 69.0573 166.68 69.0972C166.642 69.1372 166.613 69.1843 166.594 69.2358C166.575 69.2874 166.566 69.3422 166.568 69.3972V90.433C166.569 90.5464 166.614 90.6551 166.693 90.7354C166.773 90.8156 166.881 90.8608 166.994 90.8611H170.679C170.792 90.8608 170.9 90.8156 170.979 90.7354C171.059 90.6551 171.104 90.5464 171.104 90.433V79.9256C171.071 78.6763 171.228 77.4292 171.568 76.2272C171.813 75.4514 172.23 74.7421 172.789 74.1535C173.275 73.6702 173.869 73.3104 174.52 73.1038C175.131 72.9249 175.764 72.835 176.4 72.8367C176.919 72.8493 177.435 72.9137 177.94 73.0291C178.058 73.0405 178.175 73.0074 178.269 72.9362C178.364 72.865 178.428 72.7609 178.45 72.6443C178.682 71.9818 179.363 70.0574 179.501 69.6725" fill="white"/>
<path d="M144.947 59.9349C143.885 59.6035 142.778 59.4414 141.666 59.4544C140.584 59.3887 139.5 59.5442 138.48 59.9117C137.459 60.2791 136.523 60.8508 135.729 61.5922C134.163 63.3872 133.18 65.6217 132.914 67.9953L132.743 68.947H129.558C129.445 68.9487 129.337 68.9904 129.252 69.0647C129.167 69.139 129.111 69.2411 129.094 69.3529L128.574 72.2921C128.531 72.5696 128.658 72.7411 129.03 72.7411H132.121L128.977 90.3887C128.79 91.5672 128.509 92.7286 128.138 93.862C127.919 94.5792 127.589 95.2574 127.161 95.8716C126.852 96.3347 126.4 96.6836 125.876 96.8653C125.343 97.0302 124.788 97.1089 124.23 97.0986C123.852 97.0928 123.475 97.0498 123.105 96.9703C122.844 96.9206 122.591 96.8379 122.351 96.7242C122.303 96.705 122.251 96.6955 122.2 96.6964C122.148 96.6972 122.097 96.7084 122.049 96.7292C122.002 96.75 121.959 96.7801 121.923 96.8177C121.888 96.8552 121.86 96.8996 121.841 96.9481C121.725 97.2478 120.895 99.535 120.798 99.8126C120.752 99.9162 120.749 100.034 120.788 100.14C120.828 100.246 120.908 100.332 121.01 100.379C121.429 100.534 121.859 100.659 122.295 100.754C122.968 100.901 123.657 100.965 124.345 100.946C125.514 100.966 126.677 100.785 127.786 100.412C128.786 100.031 129.676 99.4071 130.377 98.595C131.182 97.6758 131.799 96.6056 132.193 95.4459C132.748 93.9093 133.161 92.324 133.425 90.7106L136.579 72.7318H141.188C141.302 72.7307 141.412 72.6878 141.498 72.6112C141.583 72.5347 141.638 72.4295 141.652 72.3154L142.172 69.3868C142.203 69.1092 142.087 68.9377 141.715 68.9377H137.234C137.389 67.8562 137.638 66.7904 137.978 65.7525C138.195 65.187 138.528 64.6737 138.955 64.2456C139.286 63.9122 139.69 63.66 140.134 63.5085C140.621 63.3564 141.13 63.2843 141.64 63.295C142.025 63.296 142.41 63.335 142.787 63.4117C143.028 63.456 143.266 63.5168 143.499 63.5936C143.955 63.7324 144.019 63.5936 144.104 63.3802L145.177 60.4189C145.199 60.3726 145.21 60.3219 145.21 60.2706C145.21 60.2193 145.198 60.1687 145.176 60.1225C145.154 60.0763 145.121 60.0358 145.081 60.0039C145.041 59.9721 144.995 59.9497 144.945 59.9384" fill="white"/>
<path d="M82.3503 90.4307C82.3526 90.4856 82.3439 90.5405 82.3248 90.592C82.3056 90.6436 82.2763 90.6907 82.2387 90.7306C82.2011 90.7706 82.1559 90.8025 82.1058 90.8245C82.0557 90.8465 82.0017 90.8581 81.947 90.8587H78.2293C78.1747 90.8581 78.1207 90.8465 78.0705 90.8245C78.0204 90.8025 77.9752 90.7706 77.9376 90.7306C77.9 90.6907 77.8707 90.6436 77.8516 90.592C77.8324 90.5405 77.8237 90.4856 77.8261 90.4307V60.3314C77.8237 60.2764 77.8324 60.2215 77.8516 60.17C77.8707 60.1184 77.9 60.0713 77.9376 60.0314C77.9752 59.9914 78.0204 59.9595 78.0705 59.9375C78.1207 59.9155 78.1747 59.9039 78.2293 59.9033H81.9516C82.0063 59.9039 82.0603 59.9155 82.1104 59.9375C82.1605 59.9595 82.2057 59.9914 82.2433 60.0314C82.281 60.0713 82.3102 60.1184 82.3294 60.17C82.3486 60.2215 82.3572 60.2764 82.3549 60.3314V90.4307H82.3503Z" fill="white"/>
</svg>
