<svg width="318" height="68" viewBox="0 0 318 68" fill="none" xmlns="http://www.w3.org/2000/svg">
<path d="M33.4239 3.11414V6.24099H27.8312V8.27471H33.4239V14.503H35.6102V8.27471H41.3427V6.24099H35.6102V0H33.4239V3.11414Z" fill="#7099A6"/>
<path d="M15.1459 11.0458V15.5836H6.68048V18.4308H15.1459V27.6461H18.2854V18.4308H26.8779V15.5836H18.2854V6.50806H15.1459V11.0458Z" fill="#EB912C"/>
<path d="M50.6216 11.0458V15.5836H42.1562V18.5706H50.6216V27.6461H53.8882V18.5706H62.3536V15.5836H53.8882V6.50806H50.6216V11.0458Z" fill="#59879B"/>
<path fill-rule="evenodd" clip-rule="evenodd" d="M205.07 13.5498H209.43V52.1906H205.07V13.5498ZM168.972 17.6173H173.408V22.9812C173.408 28.0147 173.433 28.3197 173.649 28.2562C173.789 28.2053 174.45 28.0274 175.124 27.8367C175.924 27.6206 176.89 27.4808 177.92 27.4173C179.089 27.3664 179.776 27.4046 180.64 27.5698C181.377 27.7096 182.254 28.0147 183.03 28.396C183.703 28.7265 184.593 29.2857 185.013 29.6544C185.419 30.0103 186.068 30.7602 186.436 31.3195C186.818 31.8787 187.288 32.7685 187.491 33.3151C187.707 33.8489 187.974 34.8531 188.101 35.5522C188.254 36.4673 188.292 37.2554 188.241 38.5011C188.203 39.4289 188.063 40.5856 187.936 41.0686C187.822 41.5516 187.517 42.3778 187.275 42.899C187.034 43.4201 186.551 44.2209 186.207 44.6658C185.877 45.1107 185.203 45.7716 184.72 46.1402C184.25 46.5088 183.386 47.0173 182.826 47.2715C182.267 47.5384 181.339 47.8689 180.78 48.0214C179.903 48.2629 179.344 48.3011 176.827 48.3138C174.45 48.3265 173.675 48.2756 172.734 48.0723C172.099 47.9324 171.044 47.6655 170.408 47.4876C169.772 47.3096 169.213 47.1063 169.162 47.0554C169.111 47.0046 169.048 40.3695 169.022 32.2982L168.972 17.6173ZM174.501 32.0821L173.484 32.438V43.7125C175.619 44.2717 176.077 44.3099 177.501 44.2718C178.899 44.2336 179.356 44.1701 180.03 43.9158C180.475 43.7379 181.098 43.4074 181.39 43.1659C181.695 42.9371 182.127 42.5049 182.356 42.2126C182.585 41.9203 182.915 41.3101 183.081 40.8653C183.259 40.4204 183.462 39.5688 183.538 38.9714C183.653 38.1579 183.653 37.5986 183.525 36.7343C183.424 35.9589 183.208 35.2598 182.89 34.5988C182.636 34.0523 182.191 33.3786 181.911 33.099C181.632 32.8193 181.123 32.4253 180.78 32.2346C180.449 32.0313 179.801 31.7771 179.344 31.6627C178.899 31.5356 178.098 31.4466 177.577 31.4593C177.056 31.472 176.369 31.5356 176.077 31.5991C175.772 31.6627 175.073 31.8787 174.501 32.0821ZM96.7363 18.9773H101.096V31.3068H112.828V35.3742H101.096V48.657H96.7363V35.3742H85.0043V31.3068H96.7363V18.9773Z" fill="#1F447E"/>
<path d="M32.6104 26.502V31.5863H23.1917V35.3742H32.6104V45.5428H36.4236V35.3742H45.8423V31.5863H36.4236V21.4177H32.6104V26.502Z" fill="#E8762C"/>
<path d="M60.3072 29.0698V32.2602H54.5746V34.8405H60.3072V41.2086H63.1671V34.8405H68.8997V32.2602H63.1671V25.8921H60.3072V29.0698Z" fill="#5B6591"/>
<path d="M5.72714 29.3492V32.3998H0.134399V34.5606H5.72714V40.6618H7.91339V34.5606L13.646 34.3572V32.3998H7.91339V26.2986H5.72714V29.3492Z" fill="#7099A6"/>
<path fill-rule="evenodd" clip-rule="evenodd" d="M143.537 27.2393H147.897V35.2725C147.897 39.6958 147.846 44.1827 147.694 47.1825L146.601 47.5129C146.003 47.6909 144.745 47.9705 143.804 48.1358C142.368 48.3773 141.72 48.4027 139.648 48.3519C137.729 48.301 136.953 48.2247 136.102 48.0087C135.491 47.8434 134.449 47.4494 133.775 47.1189C133.064 46.763 132.212 46.2037 131.729 45.7843C131.284 45.3775 130.649 44.653 130.344 44.1827C130.026 43.6997 129.606 42.9371 129.428 42.4922C129.25 42.0473 128.983 41.1576 128.856 40.5347C128.678 39.6196 128.64 38.9459 128.691 37.3443C128.755 35.8063 128.844 35.0564 129.06 34.2937C129.225 33.7345 129.606 32.8193 129.899 32.26C130.191 31.7007 130.776 30.8491 131.208 30.3788C131.653 29.8958 132.377 29.2603 132.822 28.9552C133.267 28.6629 134.004 28.2688 134.462 28.0909C134.907 27.9129 135.72 27.6714 136.267 27.5697C136.813 27.4681 137.83 27.3791 138.517 27.3791C139.216 27.3791 140.207 27.4808 140.741 27.5824C141.262 27.6968 142.088 27.9765 142.584 28.2053C143.067 28.4214 143.486 28.612 143.499 28.5993C143.512 28.5993 143.537 28.2943 143.537 27.9256V27.2393ZM136.114 32.2346C135.746 32.438 135.212 32.8574 134.919 33.1752C134.627 33.493 134.233 34.0522 134.055 34.4336C133.864 34.8022 133.623 35.4886 133.509 35.9588C133.394 36.4164 133.305 37.2553 133.305 37.8146C133.305 38.3739 133.369 39.2001 133.445 39.645C133.534 40.0899 133.763 40.8271 133.979 41.272C134.233 41.8058 134.64 42.3524 135.161 42.8354C135.669 43.3057 136.267 43.6997 136.788 43.9031C137.423 44.1573 137.932 44.2336 139.241 44.2971C140.169 44.3352 141.338 44.2844 141.961 44.1954C142.559 44.1065 143.118 43.9921 143.207 43.9412C143.309 43.8777 143.385 42.1109 143.448 38.3231L143.537 32.8066C142.419 32.1965 141.796 31.9168 141.415 31.7897C141.046 31.6499 140.182 31.5228 139.508 31.4974C138.669 31.4592 138.046 31.5101 137.525 31.6626C137.118 31.777 136.483 32.0312 136.114 32.2346ZM278.475 27.2393H282.835V34.0522C282.835 37.8019 282.797 42.2888 282.631 47.1825L281.538 47.5129C280.941 47.6909 279.733 47.9705 278.844 48.1103C277.712 48.3137 276.632 48.39 275.17 48.39C274.013 48.39 272.679 48.3264 272.196 48.2502C271.713 48.1612 270.759 47.9197 270.086 47.7036C269.361 47.4748 268.421 47.0299 267.836 46.6486C267.264 46.28 266.476 45.6317 266.069 45.1869C265.675 44.7547 265.116 43.9921 264.849 43.509C264.582 43.026 264.213 42.1363 264.035 41.5516C263.769 40.7 263.692 40.039 263.629 38.501C263.591 37.2681 263.629 36.1749 263.73 35.5775C263.819 35.0564 264.048 34.1793 264.239 33.6201C264.417 33.0608 264.836 32.171 265.167 31.6499C265.484 31.1288 266.171 30.3026 266.692 29.8195C267.277 29.2857 268.039 28.7391 268.662 28.4341C269.221 28.1671 270.035 27.8367 270.493 27.7096C270.937 27.5952 272.043 27.4553 272.946 27.4172C274.153 27.3664 274.852 27.4172 275.602 27.5697C276.174 27.6968 277.026 27.9765 277.522 28.2053C278.005 28.4214 278.424 28.612 278.437 28.5993C278.462 28.5993 278.475 28.2943 278.475 27.9256V27.2393ZM271.052 32.2346C270.683 32.438 270.149 32.8574 269.857 33.1752C269.565 33.493 269.183 34.0522 268.993 34.4336C268.802 34.8022 268.561 35.4886 268.446 35.9588C268.332 36.4164 268.243 37.3189 268.243 37.9544C268.243 38.59 268.332 39.4924 268.446 39.95C268.561 40.4203 268.777 41.0559 268.942 41.3736C269.107 41.6914 269.527 42.2507 269.87 42.6066C270.213 42.9752 270.772 43.4074 271.103 43.5726C271.446 43.7506 272.056 43.9921 272.475 44.1065C272.946 44.2463 273.721 44.3225 274.624 44.3225C275.386 44.3225 276.467 44.259 277 44.1827C277.547 44.1065 278.068 43.9921 278.144 43.9412C278.259 43.8777 278.322 42.238 278.361 38.3103L278.399 32.7557C277.026 32.0566 276.263 31.7643 275.806 31.6499C275.361 31.5355 274.598 31.4465 274.102 31.4592C273.619 31.4592 272.882 31.5609 272.475 31.6626C272.056 31.777 271.42 32.0312 271.052 32.2346ZM237.546 27.4426C238.334 27.4808 239.338 27.6079 239.796 27.7223C240.241 27.8367 240.978 28.1036 241.423 28.3197C241.881 28.523 242.618 28.9679 243.063 29.3111C243.52 29.6543 244.156 30.2898 244.486 30.722C244.817 31.1542 245.287 31.9422 245.541 32.4634C245.796 32.9845 246.126 33.8997 246.279 34.4971C246.431 35.0945 246.609 36.302 246.749 38.7679H231.674L231.763 39.2764C231.801 39.556 231.966 40.1534 232.093 40.5983C232.233 41.0432 232.589 41.7423 232.869 42.1363C233.148 42.5303 233.568 43.0006 233.784 43.1659C234.013 43.3311 234.47 43.6107 234.813 43.7887C235.144 43.9539 235.729 44.17 236.11 44.2717C236.491 44.3734 237.508 44.4624 238.423 44.4624C239.326 44.4624 240.622 44.3734 241.296 44.259C241.97 44.1446 242.923 43.9158 243.406 43.7633C243.889 43.6107 244.524 43.3692 244.804 43.2294C245.084 43.0896 245.376 42.9625 245.452 42.9625C245.541 42.9625 245.592 43.7378 245.592 47.0299L244.842 47.3731C244.423 47.5638 243.558 47.8688 242.897 48.0595C242.236 48.2375 241.029 48.4663 240.203 48.5552C239.072 48.6696 238.309 48.6696 237.127 48.5552C236.262 48.4663 235.004 48.2375 234.33 48.0468C233.657 47.8561 232.678 47.4748 232.17 47.1952C231.648 46.9155 230.771 46.2673 230.212 45.7461C229.64 45.225 228.928 44.3734 228.598 43.8522C228.267 43.3311 227.861 42.4413 227.67 41.8821C227.479 41.3228 227.25 40.3441 227.162 39.7212C227.06 39.0221 227.034 38.0434 227.085 37.2808C227.123 36.569 227.289 35.5013 227.441 34.9039C227.594 34.3064 227.962 33.3277 228.255 32.7303C228.547 32.1329 229.094 31.2813 229.449 30.8364C229.818 30.3915 230.543 29.7051 231.064 29.3111C231.585 28.9171 232.462 28.4214 233.008 28.1926C233.542 27.9638 234.47 27.6968 235.055 27.5824C235.754 27.4553 236.593 27.4045 237.546 27.4426ZM234.559 32.2981C234.152 32.5396 233.58 33.0099 233.275 33.3404C232.983 33.6836 232.589 34.2429 232.411 34.5988C232.233 34.9547 232.081 35.2979 232.081 35.3742C232.081 35.4631 233.797 35.514 236.962 35.514H241.842C241.703 34.5098 241.576 34.0141 241.474 33.7472C241.359 33.493 241.029 33.0099 240.737 32.6922C240.381 32.2981 239.949 32.0185 239.453 31.8278C239.033 31.688 238.271 31.5355 237.75 31.4974C237.139 31.4719 236.517 31.5228 236.034 31.6499C235.627 31.7643 234.966 32.0566 234.559 32.2981ZM299.74 27.7858H304.265L304.252 34.5988C304.252 41.0177 304.265 41.4626 304.519 42.2888C304.685 42.7972 304.99 43.3947 305.244 43.6997C305.485 43.9793 305.994 44.3607 306.375 44.5386C306.744 44.7166 307.455 44.9199 307.938 44.9835C308.46 45.0598 309.197 45.0598 309.718 44.9835C310.201 44.9199 310.913 44.7166 311.281 44.5386C311.663 44.3607 312.171 43.9793 312.413 43.6997C312.667 43.3947 312.985 42.7972 313.137 42.2888C313.391 41.4626 313.404 41.0177 313.404 27.7858H317.866L317.84 35.1454C317.827 42.1109 317.815 42.5303 317.561 43.3057C317.408 43.7506 317.09 44.4242 316.849 44.7928C316.607 45.1742 316.188 45.6953 315.895 45.9749C315.616 46.2546 315.006 46.6995 314.561 46.9664C314.116 47.2333 313.252 47.6019 312.654 47.7926C311.968 48.0087 311.053 48.1739 310.201 48.2375C309.438 48.2756 308.218 48.2756 307.468 48.2247C306.617 48.1739 305.689 48.0087 305.015 47.7926C304.405 47.6019 303.553 47.2333 303.096 46.9664C302.651 46.6995 302.053 46.2546 301.761 45.9749C301.481 45.6953 301.049 45.1742 300.808 44.7928C300.579 44.4242 300.261 43.7506 300.109 43.3057C299.842 42.543 299.829 42.0727 299.791 35.1454L299.74 27.7858Z" fill="#1F447E"/>
<path d="M15.1459 43.7121V48.2498H6.68048V51.2368H15.1459V60.3123H18.4125V51.2368H26.8779V48.2498H18.4125V39.1743H15.1459V43.7121Z" fill="#C72035"/>
<path d="M50.6216 43.7121V48.2498H42.1562V51.097H50.6216V60.3123H53.8882V51.097H62.3536V48.2498H53.8882V39.1743H50.6216V43.7121Z" fill="#1F447E"/>
<path d="M33.1569 55.2412V58.4189H27.4244V60.9992H33.1569V67.3673H36.0169V60.9992H41.7494V58.4189H36.0169V52.0508H33.1569V55.2412Z" fill="#5B6591"/>
</svg>
