<svg width="256" height="74" viewBox="0 0 256 74" fill="none" xmlns="http://www.w3.org/2000/svg">
<path fill-rule="evenodd" clip-rule="evenodd" d="M177.184 38.6147V44.4221H150.973C151.372 51.8272 154.441 55.4837 162.329 55.4837C167.669 55.4837 173.409 53.763 176.723 51.5507V60.4307C173.654 62.5201 168.436 64.0564 161.469 64.0564C147.566 64.0564 139.678 56.3747 139.678 40.6119C139.678 26.7849 146.032 16.7065 159.29 16.7065C170.155 16.7065 177.184 22.6983 177.184 38.6147ZM159.045 25.3408C153.827 25.3408 151.188 29.1509 150.942 36.3717H166.073V35.4498C166.073 29.7347 164.447 25.3408 159.014 25.3408H159.045ZM77.0365 35.7571V17.5362H87.9935V63.5955H77.0365V44.3299H62.458V63.5955H51.5931V17.5054H62.458V35.7571H77.0365ZM223.835 63.5955H211.497L195.384 40.9807V63.5955H184.519V17.5054H195.384V38.7991L210.73 17.5362H221.748L206.402 38.7991L223.835 63.5955ZM256 61.291C253.33 63.2268 249.8 64.1486 244.736 64.1486C230.25 64.1486 223.191 55.7295 223.16 40.6427C223.16 26.7235 230.372 16.8294 244.276 16.8294C249.677 16.8294 253.698 17.7513 256 19.0418V28.2598C252.807 26.418 249.189 25.4435 245.503 25.4329C238.352 25.4329 234.454 30.4721 234.454 40.3661C234.454 49.7071 237.616 55.5451 245.411 55.5451C249.984 55.5451 253.238 54.3161 256 52.411V61.3218V61.291ZM132.159 54.9613H137.008V73.7046H126.941V63.5034H102.541V73.7046H92.4745V54.9306H95.8506C99.687 47.2489 100.454 32.6844 100.454 21.4385V17.5054H132.159V54.9613ZM105.948 54.9613H121.294V26.1397H109.785V27.4916C109.785 35.4498 108.987 48.0171 105.948 54.9613Z" fill="black"/>
<path d="M42.2572 63.3858V0H26.1768C9.97356 0 1.50371 8.26771 1.50371 20.5162C1.50371 30.2231 6.13757 36.0411 14.454 41.951L0 63.3858H11.9683L28.0794 39.3482L22.4942 35.643C15.7429 31.0499 12.3979 27.5284 12.3979 19.8425C12.3979 13.1059 17.1545 8.5433 26.2074 8.5433H31.1482V63.3552H42.2572V63.3858Z" fill="#FC3F1D"/>
</svg>
