<svg width="280" height="61" viewBox="0 0 280 61" fill="none" xmlns="http://www.w3.org/2000/svg">
<path fill-rule="evenodd" clip-rule="evenodd" d="M0 0.722412H28.718L28.7157 29.4404H0V0.722412Z" fill="#F65314"/>
<path fill-rule="evenodd" clip-rule="evenodd" d="M31.5901 0.722412H59.5893C59.5893 10.2951 59.5909 19.8677 59.5877 29.4404C50.2563 29.4387 40.9232 29.4404 31.5918 29.4404C31.5885 19.8677 31.5901 10.2951 31.5901 0.722412Z" fill="#7FBB41"/>
<path fill-rule="evenodd" clip-rule="evenodd" d="M256.489 11.5964C259.113 9.87451 262.503 9.71363 265.46 10.5342C265.485 12.3067 265.463 14.0803 265.471 15.8534C264.066 15.2299 262.413 14.823 260.935 15.4348C259.762 15.9041 259.065 17.1177 258.882 18.3307C258.662 19.8699 258.805 21.4298 258.768 22.978C261.769 22.9847 264.771 22.9796 267.772 22.9813C267.795 21.0162 267.748 19.0494 267.798 17.0843C269.839 16.4992 271.857 15.8417 273.888 15.2249C273.905 17.8135 273.864 20.4044 273.91 22.9952C275.939 22.9657 277.97 22.9885 280 22.9813V28.0222C277.963 27.937 275.923 27.9988 273.886 27.9921C273.895 30.8903 273.888 33.7878 273.889 36.6866C273.922 38.2915 273.804 39.9048 273.99 41.5047C274.103 42.4478 274.443 43.4927 275.32 43.9803C276.788 44.8093 278.651 44.4474 280 43.5372V48.6271C278.241 49.3975 276.276 49.6325 274.373 49.4961C272.568 49.3614 270.699 48.7 269.521 47.2515C268.16 45.6159 267.81 43.4008 267.782 41.3288C267.767 36.8819 267.784 32.4345 267.776 27.9854C264.772 27.9832 261.769 27.9821 258.768 27.9871C258.764 34.9664 258.766 41.9462 258.766 48.926H252.611C252.611 41.9473 252.602 34.9719 252.614 27.9943C251.187 27.9665 249.758 28.001 248.331 27.9715C248.336 26.3153 248.343 24.657 248.327 22.9986C249.748 22.9657 251.17 22.9796 252.594 22.9902C252.698 20.7868 252.365 18.5205 253.018 16.3745C253.57 14.4372 254.797 12.6892 256.489 11.5964ZM124.711 11.9582C125.952 11.7684 127.295 12.1959 128.117 13.1751C129.081 14.2473 129.259 15.9536 128.544 17.2073C127.754 18.6202 125.987 19.2771 124.447 18.938C122.849 18.6486 121.518 17.1499 121.589 15.4799C121.543 13.7218 123.001 12.1547 124.711 11.9577V11.9582ZM77.5404 12.727H86.4917C89.2777 19.8622 92.0841 26.9889 94.874 34.1235C95.5866 35.9083 96.2535 37.7125 97.0003 39.4828C100.585 30.5679 104.22 21.6753 107.777 12.7476C110.647 12.7008 113.518 12.737 116.39 12.7304C116.383 24.795 116.386 36.8591 116.389 48.9238C114.317 48.9188 112.247 48.9416 110.177 48.9115C110.199 40.0089 110.175 31.1057 110.187 22.2008C110.191 21.8006 110.177 21.4003 110.149 21.0011C110.028 21.1871 109.921 21.3803 109.827 21.5807C106.269 30.6932 102.644 39.7807 99.1079 48.9026C97.6346 48.9566 96.1596 48.9065 94.6841 48.9299C91.0149 39.8174 87.391 30.6832 83.74 21.5629C83.6439 21.373 83.5418 21.1888 83.4303 21.0117C83.3552 24.9119 83.4187 28.816 83.3983 32.7173C83.3994 38.1195 83.395 43.5216 83.3994 48.9238C81.4464 48.9288 79.4928 48.9238 77.5404 48.926C77.5387 36.8591 77.5371 24.7928 77.5404 12.727ZM141.65 22.9574C144.619 22.104 147.823 22.1385 150.792 22.9846C151.404 23.1572 151.996 23.3966 152.548 23.7228C152.513 25.6996 152.548 27.6787 152.529 29.6577C150.543 28.1285 148.026 27.1599 145.504 27.4805C143.5 27.6631 141.589 28.7114 140.392 30.3436C138.851 32.3672 138.495 35.0543 138.761 37.5299C138.959 39.4672 139.753 41.4034 141.248 42.6877C142.799 44.0783 144.975 44.571 147.006 44.4162C149.013 44.1835 150.907 43.3262 152.529 42.1299C152.546 44.0037 152.52 45.8776 152.542 47.7514C150.026 49.2617 147.01 49.6508 144.129 49.5089C141.183 49.3513 138.244 48.2257 136.111 46.1364C133.793 43.8835 132.535 40.6702 132.386 37.4526C132.236 34.1063 132.911 30.6158 134.821 27.8218C136.42 25.4374 138.923 23.7501 141.65 22.9574ZM208.882 22.5627C211.728 22.0572 214.707 22.428 217.401 23.4573C217.404 25.3606 217.401 27.2612 217.402 29.1628C215.52 27.8579 213.221 27.156 210.938 27.2372C209.788 27.2823 208.523 27.7739 207.998 28.8767C207.581 29.9678 207.87 31.3985 208.891 32.0521C210.635 33.2295 212.717 33.7294 214.526 34.7838C215.949 35.591 217.33 36.6453 218.052 38.1662C219.408 41.0137 218.834 44.777 216.45 46.9008C214.176 49.0446 210.899 49.6375 207.886 49.5239C205.745 49.3842 203.595 48.9583 201.628 48.0754C201.637 46.0746 201.616 44.075 201.638 42.0753C203.293 43.2873 205.202 44.154 207.222 44.5059C208.629 44.7363 210.159 44.7475 211.47 44.1128C212.724 43.4838 212.95 41.6857 212.205 40.5856C211.507 39.7378 210.483 39.2713 209.518 38.8126C207.705 37.9903 205.798 37.3022 204.206 36.0703C203.086 35.189 202.238 33.9482 201.907 32.5481C201.414 30.485 201.568 28.1597 202.757 26.3565C204.116 24.255 206.477 22.9952 208.882 22.5627ZM166.31 23.3799C168.008 22.3506 170.167 22.2643 172.022 22.8939C172.014 24.9643 172.022 27.0335 172.017 29.1038C170.803 28.3117 169.289 27.9715 167.857 28.1185C166.11 28.3183 164.725 29.6711 164.008 31.2232C163.228 32.8654 163.081 34.7231 163.13 36.5195C163.13 40.6547 163.133 44.7903 163.13 48.926H157.063C157.058 40.2828 157.07 31.6384 157.058 22.9952C159.083 22.9691 161.109 22.9796 163.134 22.9897C163.126 24.4744 163.134 25.9579 163.129 27.4443C163.787 25.8294 164.767 24.2606 166.31 23.3793V23.3799ZM122.148 22.9897C124.189 22.9813 126.232 22.9613 128.272 23.0002C128.248 31.6423 128.271 40.2845 128.262 48.926H122.151C122.147 40.2811 122.154 31.6362 122.148 22.9902V22.9897ZM183.349 22.5109C186.303 22.1318 189.419 22.301 192.161 23.5592C194.54 24.6414 196.468 26.6427 197.536 29.0393C198.675 31.5889 198.953 34.4548 198.76 37.2215C198.57 39.9221 197.729 42.6287 196.054 44.7747C194.34 47.0539 191.756 48.5981 188.988 49.1721C186.622 49.6686 184.148 49.6664 181.782 49.1654C178.951 48.5547 176.331 46.8985 174.671 44.4886C172.723 41.6962 172.17 38.1456 172.417 34.7994C172.584 31.9602 173.46 29.0988 175.258 26.872C177.227 24.3775 180.248 22.9056 183.349 22.5109ZM185.185 27.4376C183.714 27.52 182.227 28.0222 181.136 29.0487C179.632 30.4232 178.944 32.4707 178.758 34.4614C178.553 36.6509 178.701 38.959 179.693 40.9547C180.464 42.5046 181.881 43.722 183.551 44.1646C185.192 44.5938 186.978 44.5576 188.567 43.9419C189.926 43.4081 191.003 42.2802 191.591 40.9464C192.48 38.9673 192.567 36.7422 192.458 34.6067C192.306 32.6544 191.756 30.6091 190.333 29.199C189.004 27.8424 187.035 27.3152 185.185 27.4376ZM232.406 22.502C235.478 22.1184 238.739 22.3261 241.542 23.754C243.987 24.9865 245.882 27.2138 246.828 29.7886C247.569 31.7587 247.829 33.8858 247.785 35.9834C247.791 39.1171 246.952 42.3336 245.002 44.8193C243.176 47.2259 240.383 48.7896 237.435 49.2806C234.551 49.751 231.505 49.6291 228.765 48.5413C225.99 47.4402 223.682 45.1917 222.513 42.4233C221.294 39.602 221.166 36.4266 221.546 33.4121C221.944 30.3965 223.298 27.4493 225.605 25.4447C227.496 23.7713 229.929 22.8232 232.406 22.502ZM234.068 27.4426C232.365 27.539 230.676 28.2788 229.576 29.616C228.369 31.0489 227.851 32.9394 227.71 34.7821C227.566 36.6849 227.71 38.6556 228.44 40.4342C229.047 41.9273 230.2 43.2249 231.686 43.8595C233.064 44.458 234.617 44.5643 236.089 44.3422C237.462 44.1385 238.792 43.4771 239.686 42.391C240.573 41.3104 241.041 39.9482 241.277 38.5832C241.575 36.7506 241.578 34.8634 241.226 33.0396C240.913 31.4848 240.231 29.9405 238.998 28.9095C237.663 27.7255 235.806 27.3207 234.068 27.4426Z" fill="#787878"/>
<path fill-rule="evenodd" clip-rule="evenodd" d="M0 32.3123C9.5724 32.3155 19.1448 32.3112 28.7172 32.3155C28.7189 41.6483 28.7172 50.9795 28.7172 60.3123H0V32.3123Z" fill="#00A1F1"/>
<path fill-rule="evenodd" clip-rule="evenodd" d="M31.5914 32.3143C40.9231 32.311 50.2564 32.3127 59.5897 32.3127V60.3123H31.5897C31.5914 50.9791 31.5881 41.6459 31.5914 32.3143Z" fill="#FFBB00"/>
</svg>
