<svg width="964" height="400" viewBox="0 0 964 400" fill="none" xmlns="http://www.w3.org/2000/svg">
<path d="M0 199C58.4376 199 191.917 199 258.333 199C499.885 199 401.409 2 964 2" stroke="url(#paint0_linear)" stroke-width="4"/>
<path d="M0 199C58.4376 199 191.917 199 258.333 199C499.885 199 401.409 134 964 134" stroke="url(#paint1_linear)" stroke-width="4"/>
<path d="M0 199C58.4376 199 191.917 199 258.333 199C499.885 199 401.409 266 964 266" stroke="url(#paint2_linear)" stroke-width="4"/>
<path d="M0 199C58.4376 199 191.917 199 258.333 199C499.885 199 401.409 398 964 398" stroke="url(#paint3_linear)" stroke-width="4"/>
<defs>
<linearGradient id="paint0_linear" x1="482" y1="-348.5" x2="482" y2="199" gradientUnits="userSpaceOnUse">
<stop stop-color="#CD40FF"/>
<stop offset="0.682932" stop-color="#04ADBF"/>
</linearGradient>
<linearGradient id="paint1_linear" x1="482" y1="-41.5" x2="482" y2="199" gradientUnits="userSpaceOnUse">
<stop stop-color="#CD40FF"/>
<stop offset="1" stop-color="#04ADBF"/>
</linearGradient>
<linearGradient id="paint2_linear" x1="482" y1="422" x2="482" y2="122" gradientUnits="userSpaceOnUse">
<stop stop-color="#CD40FF"/>
<stop offset="1" stop-color="#04ADBF"/>
</linearGradient>
<linearGradient id="paint3_linear" x1="764.491" y1="514.5" x2="569.144" y2="175.744" gradientUnits="userSpaceOnUse">
<stop stop-color="#CD40FF"/>
<stop offset="1" stop-color="#04ADBF"/>
</linearGradient>
</defs>
</svg>
