<svg width="70" height="70" viewBox="0 0 70 70" fill="none" xmlns="http://www.w3.org/2000/svg">
<g clip-path="url(#clip0)">
<path d="M59.2004 9.91414C52.2583 3.13994 43.1949 -0.394417 33.6495 -0.00171051C15.6192 0.88188 0.8671 15.9029 -0.00066828 34.262C-0.482762 49.8721 8.77344 64.0095 23.1398 69.3111C24.2969 69.7038 25.4539 69.9983 26.6109 69.9983C28.6357 69.9983 30.5641 69.4092 32.2996 68.1329C35.1922 66.0712 36.9277 62.7332 36.9277 59.1988V51.1484V51.0502V45.5523L39.7239 43.4906C40.1095 43.196 40.3988 42.7052 40.4952 42.2143C40.4952 41.9197 40.4952 41.7234 40.4952 41.4289L53.6081 38.6799C54.2831 38.5817 54.7652 38.0909 55.0544 37.5018C55.2473 36.9127 55.2473 36.2255 54.8616 35.6364L41.4594 16.6883C41.0737 16.0993 40.4952 15.8047 39.8203 15.9029C39.1453 15.9029 38.5668 16.2956 38.2776 16.8847L31.5283 28.4695L31.3354 28.175C30.7569 27.2914 29.5035 27.0951 28.6357 27.6841L21.9828 32.4948C21.5971 32.7893 21.3079 33.2802 21.2115 33.7711C21.115 34.262 21.2115 34.851 21.5007 35.2437L21.9828 35.931C20.4401 37.0109 19.3795 38.6799 19.0902 40.6434C18.801 42.5088 19.1867 44.4723 20.3437 46.0432C21.4043 47.614 23.0434 48.6939 24.9718 48.9885C25.3575 49.0866 25.7431 49.0866 26.1288 49.0866C27.5751 49.0866 29.0214 48.5958 30.2748 47.7122L30.4677 47.9085C30.8533 48.3994 31.4318 48.6939 32.0104 48.6939C32.396 48.6939 32.7817 48.5958 33.1674 48.3012V57.9225V58.0207V59.1988C33.1674 61.4569 32.1068 63.6168 30.1784 64.8931C28.4429 66.0712 26.4181 66.3658 24.4897 65.6785C11.666 60.8679 3.37399 48.3012 3.85608 34.4583C4.62743 18.0628 17.7404 4.71077 33.8423 3.92536C42.3272 3.53265 50.4263 6.67431 56.5007 12.7613C62.5751 18.75 66.1426 27.0951 66.1426 35.6364C66.1426 48.8903 58.2362 60.5733 45.9911 65.384C45.0269 65.7767 44.5448 66.9548 44.9305 67.9366C45.3161 68.9183 46.4732 69.4092 47.4374 69.0165C61.1288 63.6168 69.9993 50.4611 69.9993 35.6364C69.9993 26.0151 66.0462 16.5902 59.2004 9.91414ZM40.0131 21.4008L49.8478 35.5383L38.1811 37.9927L33.9387 31.9057L40.0131 21.4008ZM25.5503 45.0614C24.6825 44.9632 23.9112 44.4723 23.4291 43.6869C22.947 42.9997 22.7542 42.1161 22.8506 41.2325C22.947 40.3489 23.4291 39.5635 24.2004 39.0726L27.9608 44.4723C27.2858 45.0614 26.4181 45.2578 25.5503 45.0614ZM32.396 44.0796L28.4429 38.4836L26.2252 35.3419L25.7431 34.6547L29.3106 32.1021L30.082 33.182L35.7707 41.3307L35.9635 41.527L32.396 44.0796Z" fill="#3A8FD1"/>
</g>
<defs>
<clipPath id="clip0">
<rect width="70" height="70" fill="white"/>
</clipPath>
</defs>
</svg>
