<svg width="70" height="70" viewBox="0 0 70 70" fill="none" xmlns="http://www.w3.org/2000/svg">
<g clip-path="url(#clip0)">
<path d="M59.2004 9.91414C52.2583 3.13994 43.1949 -0.394417 33.6495 -0.00171051C15.6192 0.88188 0.8671 15.9029 -0.00066828 34.262C-0.482762 49.8721 8.77344 64.0095 23.1398 69.3111C24.2969 69.7038 25.4539 69.9983 26.6109 69.9983C28.6357 69.9983 30.5641 69.4092 32.2996 68.1329C35.1922 66.0712 36.9277 62.7332 36.9277 59.1988V53.4064C36.9277 53.4064 36.9277 53.4064 36.9277 53.3082V53.2101V53.0137C36.9277 52.8174 36.9277 52.7192 36.9277 52.5228C37.4098 50.2648 40.0131 48.8903 44.0627 47.1231C49.1729 44.865 55.4401 42.1161 56.2115 34.6547C58.5255 33.8693 60.261 31.6112 60.261 28.9604C60.261 25.6224 57.6577 22.9716 54.3795 22.9716C51.1013 22.9716 48.498 25.6224 48.498 28.9604C48.498 31.513 50.1371 33.7711 52.3547 34.5565C51.5834 39.4653 47.1481 41.4289 42.52 43.4906C42.0379 43.6869 41.5558 43.8833 40.9773 44.1778C42.2307 42.2143 43.2913 39.3671 43.4842 34.6547C45.7982 33.8693 47.5338 31.6112 47.5338 28.9604C47.5338 25.6224 44.9305 22.9716 41.6522 22.9716C38.374 22.9716 35.7707 25.6224 35.7707 28.9604C35.7707 31.6112 37.4098 33.7711 39.7239 34.6547C39.4346 40.1526 37.9883 42.1161 36.3492 44.0796C35.8671 44.6687 35.385 45.2578 34.9029 45.945C34.4208 45.2578 33.9387 44.6687 33.4566 44.0796C31.8175 42.0179 30.2748 40.0544 30.082 34.6547C32.396 33.8693 34.0351 31.6112 34.0351 28.9604C34.0351 25.6224 31.4318 22.9716 28.1536 22.9716C24.8754 22.9716 22.2721 25.6224 22.2721 28.9604C22.2721 31.6112 23.9112 33.8693 26.3216 34.6547C26.5145 39.3671 27.5751 42.2143 28.8285 44.1778C28.3464 43.9815 27.8643 43.6869 27.2858 43.4906C22.6577 41.4289 18.2225 39.4653 17.4511 34.5565C19.6688 33.6729 21.3079 31.513 21.3079 28.9604C21.3079 25.6224 18.7046 22.9716 15.4263 22.9716C12.1481 22.9716 9.54479 25.6224 9.54479 28.9604C9.54479 31.6112 11.2803 33.8693 13.5944 34.6547C14.4621 42.1161 20.7294 44.865 25.8396 47.1231C29.8891 48.8903 32.5889 50.1666 33.071 52.5228C33.071 52.8174 33.071 53.0137 33.071 53.3082C33.071 53.5046 33.071 53.7991 33.1674 53.9955V59.1988C33.1674 61.4569 32.1068 63.6168 30.1784 64.8931C28.4429 66.0712 26.4181 66.3658 24.4897 65.6785C11.666 60.8679 3.37399 48.3012 3.85608 34.4583C4.62743 18.0628 17.7404 4.71077 33.8423 3.92536C42.3272 3.53265 50.4263 6.67431 56.5007 12.7613C62.5751 18.75 66.1426 27.0951 66.1426 35.6364C66.1426 48.8903 58.2362 60.5733 45.9911 65.384C45.0269 65.7767 44.5448 66.9548 44.9305 67.9366C45.3161 68.9183 46.4732 69.4092 47.4374 69.0165C61.1288 63.6168 69.9993 50.4611 69.9993 35.6364C69.9993 26.0151 66.0462 16.5902 59.2004 9.91414ZM54.4759 26.8987C55.6329 26.8987 56.5007 27.8805 56.5007 28.9604C56.5007 30.1385 55.5365 31.0221 54.4759 31.0221C53.4153 31.0221 52.4511 30.0404 52.4511 28.9604C52.3547 27.7823 53.3189 26.8987 54.4759 26.8987ZM39.6274 28.9604C39.6274 27.7823 40.5916 26.8987 41.6522 26.8987C42.7128 26.8987 43.677 27.8805 43.677 28.9604C43.677 30.1385 42.7128 31.0221 41.6522 31.0221C40.5916 31.0221 39.6274 30.1385 39.6274 28.9604ZM15.4263 31.0221C14.2693 31.0221 13.4015 30.0404 13.4015 28.9604C13.4015 27.7823 14.3657 26.8987 15.4263 26.8987C16.4869 26.8987 17.4511 27.8805 17.4511 28.9604C17.5475 30.1385 16.5834 31.0221 15.4263 31.0221ZM28.1536 31.0221C26.9966 31.0221 26.1288 30.0404 26.1288 28.9604C26.1288 27.7823 27.093 26.8987 28.1536 26.8987C29.3106 26.8987 30.1784 27.8805 30.1784 28.9604C30.2748 30.1385 29.3106 31.0221 28.1536 31.0221Z" fill="#C25FF9"/>
</g>
<defs>
<clipPath id="clip0">
<rect width="70" height="70" fill="white"/>
</clipPath>
</defs>
</svg>
