<svg width="70" height="70" viewBox="0 0 70 70" fill="none" xmlns="http://www.w3.org/2000/svg">
<g clip-path="url(#clip0)">
<path d="M59.2004 9.91414C52.2583 3.13994 43.1949 -0.394417 33.6495 -0.00171051C15.6192 0.88188 0.8671 15.9029 -0.00066828 34.262C-0.482762 49.8721 8.77344 64.0095 23.1398 69.3111C24.2969 69.7038 25.4539 69.9983 26.6109 69.9983C28.6357 69.9983 30.5641 69.4092 32.2996 68.1329C35.1922 66.0712 36.9277 62.7332 36.9277 59.1988V51.1484C36.9277 50.7556 36.8313 50.3629 36.6385 50.0684C38.6632 49.4794 40.3988 48.2031 41.4594 46.4359C42.6164 44.4723 43.0021 42.2143 42.52 40.0544C42.1343 38.4836 41.363 37.1091 40.3024 36.0291L50.1371 19.83C50.7156 18.9464 50.4263 17.6701 49.5586 17.081L43.0985 12.9576C42.52 12.5649 41.8451 12.5649 41.2665 12.8594C40.688 13.154 40.3024 13.743 40.2059 14.3321L39.7239 18.0628L36.8313 19.83C36.2528 20.2227 35.9635 20.8118 35.8671 21.499C35.8671 22.1862 36.2528 22.7753 36.7349 23.168L41.5558 26.2115L36.9277 33.7711C33.3602 32.593 29.3106 33.9674 27.2858 37.3054C26.1288 39.269 25.7431 41.527 26.2252 43.6869C26.7073 45.8468 28.0572 47.7122 29.8891 48.9885C30.8533 49.5775 32.0103 49.9702 33.071 50.1666C32.9745 50.3629 32.8781 50.6575 32.8781 50.952V59.0025C32.8781 61.2606 31.8175 63.4204 29.8891 64.6967C28.1536 65.8749 26.1288 66.1694 24.2004 65.4822C11.666 60.8679 3.37399 48.3012 3.85608 34.4583C4.62743 18.0628 17.7404 4.71077 33.8423 3.92536C42.3272 3.53265 50.4263 6.67431 56.5007 12.7613C62.5751 18.75 66.1426 27.0951 66.1426 35.6364C66.1426 48.8903 58.2362 60.5733 45.9911 65.384C45.0269 65.7767 44.5448 66.9548 44.9305 67.9366C45.3161 68.9183 46.4732 69.4092 47.4374 69.0165C61.1288 63.6168 69.9993 50.4611 69.9993 35.6364C69.9993 26.0151 66.0462 16.5902 59.2004 9.91414ZM41.4594 21.6953L42.4236 21.1063C42.9057 20.8118 43.2913 20.3209 43.2913 19.7318L43.4842 18.0628L45.7982 19.5355L43.5806 23.168L41.4594 21.6953ZM30.082 42.9997C29.7927 41.8216 29.9856 40.6434 30.6605 39.5635C31.5283 38.189 32.9745 37.4036 34.4208 37.4036C35.1922 37.4036 36.0599 37.6 36.7349 38.0909C37.6991 38.6799 38.4704 39.7599 38.7597 40.938C39.0489 42.1161 38.8561 43.2942 38.1811 44.3742C36.9277 46.534 34.1316 47.1231 32.0104 45.8468C31.0462 45.2578 30.3712 44.1778 30.082 42.9997Z" fill="#04ADBF"/>
</g>
<defs>
<clipPath id="clip0">
<rect width="70" height="70" fill="white"/>
</clipPath>
</defs>
</svg>
