<svg width="70" height="70" viewBox="0 0 70 70" fill="none" xmlns="http://www.w3.org/2000/svg">
<g clip-path="url(#clip0)">
<path d="M59.2004 9.91414C52.2583 3.13994 43.1949 -0.394417 33.6495 -0.00171051C15.6192 0.88188 0.8671 15.9029 -0.00066828 34.262C-0.482762 49.8721 8.77344 64.0095 23.1398 69.3111C24.2969 69.7038 25.4539 69.9983 26.6109 69.9983C28.6357 69.9983 30.5641 69.4092 32.2996 68.1329C35.1922 66.0712 36.9277 62.7332 36.9277 59.1988V46.9268C43.2913 46.3377 47.823 42.9997 48.0159 42.9015C48.498 42.5088 48.7872 41.9197 48.7872 41.3307V33.9674C48.7872 33.8693 48.7872 33.6729 48.7872 33.5747L52.644 32.0039V41.8216L49.4621 45.6505C48.98 46.2395 48.8836 47.0249 49.1729 47.7122C49.4621 48.3994 50.1371 48.8903 50.9084 48.8903H56.8864C57.5613 48.8903 58.2362 48.4976 58.5255 47.9085C58.9112 47.3195 58.9112 46.534 58.5255 45.945L56.3079 42.0179V29.844C56.4043 29.5495 56.5007 29.3531 56.5007 28.9604C56.5007 28.175 55.9222 27.3896 55.2473 27.1932L35.1922 20.1245C34.8065 20.0263 34.4208 20.0263 34.0351 20.1245L11.1839 27.1932C10.4126 27.4878 9.83404 28.175 9.83404 29.0586C9.83404 29.9422 10.3161 30.6294 11.1839 30.924L20.7294 34.1638V41.2325C20.7294 41.9197 21.0186 42.5088 21.5971 42.9015C21.79 43.0979 26.7073 46.3377 32.9745 46.9268V59.1988C32.9745 61.4569 31.9139 63.6168 29.9856 64.8931C28.25 66.0712 26.2252 66.3658 24.2969 65.6785C11.666 60.8679 3.37399 48.3012 3.85608 34.4583C4.62743 18.0628 17.7404 4.71077 33.8423 3.92536C42.3272 3.53265 50.4263 6.67431 56.5007 12.7613C62.5751 18.75 66.1426 27.0951 66.1426 35.6364C66.1426 48.8903 58.2362 60.5733 45.9911 65.384C45.0269 65.7767 44.5448 66.9548 44.9305 67.9366C45.3161 68.9183 46.4732 69.4092 47.4374 69.0165C61.1288 63.6168 69.9993 50.4611 69.9993 35.6364C69.9993 26.0151 66.0462 16.5902 59.2004 9.91414ZM34.7101 24.0516L49.2693 29.2549L35.1922 34.9492L18.2225 29.1568L34.7101 24.0516ZM24.7789 35.4401L34.7101 38.7781C34.9029 38.8763 35.0957 38.8763 35.2886 38.8763C35.5778 38.8763 35.7707 38.8763 35.9635 38.7781L45.0269 35.1455V40.2507C43.3878 41.2325 39.531 43.196 34.9029 43.0979C30.4677 43.0979 26.5145 41.1343 24.7789 40.1526V35.4401Z" fill="#6478DD"/>
</g>
<defs>
<clipPath id="clip0">
<rect width="70" height="70" fill="white"/>
</clipPath>
</defs>
</svg>
