<svg width="625" height="584" viewBox="0 0 625 584" fill="none" xmlns="http://www.w3.org/2000/svg">
<mask id="mask0" mask-type="alpha" maskUnits="userSpaceOnUse" x="0" y="0" width="625" height="584">
<rect width="625" height="584" fill="#C4C4C4"/>
</mask>
<g mask="url(#mask0)">
<g filter="url(#filter0_d)">
<path d="M28.3785 119.646L585.023 30.7681L279.966 546.281L28.3785 119.646Z" stroke="url(#paint0_linear)" stroke-width="5"/>
<path d="M283.214 283.841L29.0287 119.628L278.945 544.696L283.214 283.841ZM283.214 283.841L586.269 28.797" stroke="url(#paint1_linear)" stroke-opacity="0.3" stroke-width="5"/>
<path d="M572.499 42.588C577.962 47.7091 586.562 47.458 591.709 42.0554C596.855 36.6527 596.621 28.1209 591.158 22.9997C585.695 17.8786 577.095 18.1297 571.948 23.5323C566.802 28.935 567.036 37.4668 572.499 42.588Z" fill="#CD40FF" stroke="#4A2A71" stroke-width="6"/>
<path d="M20.0332 129.735C25.4963 134.856 34.0964 134.605 39.2429 129.203C44.3893 123.8 44.1556 115.268 38.6925 110.147C33.2293 105.026 24.6292 105.277 19.4828 110.68C14.3363 116.082 14.57 124.614 20.0332 129.735Z" fill="#04ADBF" stroke="black" stroke-width="6"/>
<path d="M270.842 551.874C276.305 556.995 284.905 556.744 290.052 551.342C295.198 545.939 294.964 537.407 289.501 532.286C284.038 527.165 275.438 527.416 270.292 532.819C265.145 538.221 265.379 546.753 270.842 551.874Z" fill="#04ADBF" stroke="black" stroke-width="6"/>
<path d="M272.584 293.672C278.047 298.793 286.647 298.542 291.794 293.139C296.94 287.737 296.707 279.205 291.244 274.084C285.78 268.963 277.18 269.214 272.034 274.616C266.887 280.019 267.121 288.551 272.584 293.672Z" fill="#04ADBF" stroke="black" stroke-width="6"/>
</g>
</g>
<defs>
<filter id="filter0_d" x="-7.23828" y="-3.67358" width="625.668" height="582.221" filterUnits="userSpaceOnUse" color-interpolation-filters="sRGB">
<feFlood flood-opacity="0" result="BackgroundImageFix"/>
<feColorMatrix in="SourceAlpha" type="matrix" values="0 0 0 0 0 0 0 0 0 0 0 0 0 0 0 0 0 0 127 0"/>
<feOffset/>
<feGaussianBlur stdDeviation="10"/>
<feColorMatrix type="matrix" values="0 0 0 0 0.0156863 0 0 0 0 0.678431 0 0 0 0 0.74902 0 0 0 0.8 0"/>
<feBlend mode="normal" in2="BackgroundImageFix" result="effect1_dropShadow"/>
<feBlend mode="normal" in="SourceGraphic" in2="effect1_dropShadow" result="shape"/>
</filter>
<linearGradient id="paint0_linear" x1="509.487" y1="-40.0396" x2="109.586" y2="386.567" gradientUnits="userSpaceOnUse">
<stop stop-color="#CD40FF"/>
<stop offset="1" stop-color="#04ADBF"/>
</linearGradient>
<linearGradient id="paint1_linear" x1="509.302" y1="-40.8412" x2="109.401" y2="385.766" gradientUnits="userSpaceOnUse">
<stop stop-color="#CD40FF"/>
<stop offset="1" stop-color="#04ADBF"/>
</linearGradient>
</defs>
</svg>
