<svg width="1105" height="629" viewBox="0 0 1105 629" fill="none" xmlns="http://www.w3.org/2000/svg">
<path d="M552 0V628.5" stroke="#6B6C6C" stroke-opacity="0.4" stroke-dasharray="20 10"/>
<circle cx="803.38" cy="318.845" r="261" transform="rotate(-8.95704 803.38 318.845)" stroke="url(#paint0_linear)" stroke-width="4"/>
<circle cx="295.601" cy="313.399" r="261" transform="rotate(-172.368 295.601 313.399)" stroke="url(#paint1_linear)" stroke-width="4"/>
<circle cx="551.111" cy="307.786" r="112" transform="rotate(9.8844 551.111 307.786)" fill="url(#paint2_linear)"/>
<g opacity="0.6" clip-path="url(#clip0)">
<path d="M659 293.794L656.676 285.033L656.717 284.91L656.676 284.869L651.742 266.364V266.323L644.974 254.573V254.491L644.892 254.45L637.594 241.759V241.718L624.138 228.208V228.126L624.016 228.085L617.574 221.616L593.028 207.369L581.693 204.299L581.611 204.217L581.571 204.258L565.669 200.082H551.153L551.113 200L551.031 200.082H537.372L519.635 204.872L519.595 204.831L519.513 204.913L510.053 207.451H510.013L485.508 221.657H485.467L478.617 228.535L478.535 228.576V228.617L465.529 241.677L457.129 256.293L457.048 256.334V256.415L451.339 266.323V266.364L446.854 283.149L446.813 283.19V283.313L444 293.753V322.206L447.343 334.693V334.816H447.384L451.339 349.636V349.677L457.945 361.14V361.222L458.026 361.263L465.488 374.282V374.323L479.799 388.693V388.775L479.881 388.734L485.467 394.343L510.013 408.59L520.043 411.292L520.125 411.374L520.165 411.333L537.29 415.959H550.501L550.583 416.041L550.664 415.959H565.628L583.242 411.21L583.324 411.251L583.405 411.169L592.947 408.59H592.987L617.492 394.384H617.533L624.098 387.792L624.22 387.751V387.669L637.512 374.323L645.055 361.222L645.137 361.181V361.099L651.661 349.759V349.718L656.594 331.172L656.676 331.131L656.635 331.008L658.959 322.247L659 293.794ZM658.592 307.672L651.661 307.795L656.472 285.892L658.592 293.876V307.672ZM574.231 268.124L597.024 307.795L550.746 307.672L574.231 268.124ZM550.379 307.468L528.279 267.961H573.864L550.379 307.468ZM527.953 268.165L550.012 307.672L505.12 307.795L527.953 268.165ZM550.012 308.082L527.912 347.835L505.12 308.205L550.012 308.082ZM528.279 348.039L550.379 308.287L573.864 348.039H528.279ZM574.231 347.835L550.746 308.082L597.065 308.205L574.231 347.835ZM574.598 267.961L613.17 271.359L597.35 307.509L574.598 267.961ZM528.32 267.51L549.686 235.782L573.824 267.51H528.32ZM504.794 307.55L486.201 271.359L527.586 267.961L504.794 307.55ZM527.545 347.999L486.649 343.454L504.794 308.409L527.545 347.999ZM573.824 348.449L550.134 378.99L528.32 348.449H573.824ZM597.35 308.45L613.619 343.454L574.598 347.999L597.35 308.45ZM613.497 271.686L630.744 307.795H597.717L613.497 271.686ZM574.558 267.551L590.826 239.098L613.048 270.949L574.558 267.551ZM574.231 267.346L550.134 235.659L590.5 238.852L574.231 267.346ZM527.953 267.346L510.298 239.794L549.278 235.7L527.953 267.346ZM527.586 267.551L486.323 270.949L509.89 239.998L527.586 267.551ZM504.467 307.795H470.014L485.915 271.686L504.467 307.795ZM504.467 308.205L486.364 343.168L470.014 308.205H504.467ZM527.586 348.408L509.442 376.206L486.772 343.864L527.586 348.408ZM527.953 348.613L549.726 379.113L509.809 376.37L527.953 348.613ZM574.231 348.613L590.5 375.92L550.583 379.113L574.231 348.613ZM574.558 348.408L613.497 343.864L590.826 375.715L574.558 348.408ZM597.717 308.205H630.744L613.986 343.127L597.717 308.205ZM613.823 271.481L640.489 277.377L630.988 307.427L613.823 271.481ZM591.316 239.057L621.203 246.672L613.415 270.785L591.316 239.057ZM550.093 235.29L567.259 215.353L590.296 238.484L550.093 235.29ZM510.42 239.384L532.112 215.353L549.278 235.29L510.42 239.384ZM485.956 270.785L477.842 246.754L509.442 239.958L485.956 270.785ZM469.728 307.427L459.779 277.377L485.508 271.481L469.728 307.427ZM485.997 343.331L459.82 338.337L469.769 308.532L485.997 343.331ZM508.953 376.247L477.842 368.059L486.405 344.027L508.953 376.247ZM549.726 379.522L532.561 400.402L509.972 376.82L549.726 379.522ZM590.296 376.37L567.259 399.952L550.542 379.522L590.296 376.37ZM613.863 344.068L621.977 368.55L591.275 375.797L613.863 344.068ZM630.988 308.532L640.04 337.518L614.312 343.29L630.988 308.532ZM640.774 277.868L651.131 307.795H631.355L640.774 277.868ZM613.741 271.031L621.529 246.876L622.548 248.064L640.326 276.886L613.741 271.031ZM591.152 238.566L600.571 222.353L620.877 246.14L591.152 238.566ZM590.786 238.361L567.871 215.353L600.204 222.108L590.786 238.361ZM549.686 235.127L532.561 215.23H566.811L549.686 235.127ZM509.972 239.262L500.512 221.657L531.541 215.353L509.972 239.262ZM500.186 221.903L509.646 239.507L478.128 246.262L500.186 221.903ZM485.63 271.031L459.943 276.926L477.516 247.081L485.63 271.031ZM469.402 307.795H450.116L459.535 277.909L469.402 307.795ZM469.402 308.205L459.535 337.845L450.116 308.205H469.402ZM486.079 343.782L477.516 367.773L459.943 338.787L486.079 343.782ZM509.156 376.698L499.738 393.401L478.168 368.591L509.156 376.698ZM509.483 376.902L531.949 400.361L500.064 393.606L509.483 376.902ZM550.134 379.686L566.811 400.074L533.009 400.525L550.134 379.686ZM590.786 376.452L599.307 393.155L567.871 399.911L590.786 376.452ZM599.674 392.951L591.152 376.288L621.692 369.083L599.674 392.951ZM614.19 343.782L639.959 338.009L639.632 338.91L622.304 368.223L614.19 343.782ZM631.315 308.205H651.09L640.326 337.067L631.315 308.205ZM641.1 277.622L656.187 285.114L651.335 307.222L641.1 277.622ZM622.874 247.859L622.1 246.958L644.444 254.778L640.611 276.722L622.874 247.859ZM601.101 222.353L623.608 228.453L621.284 246.017L601.101 222.353ZM567.748 214.943L581.53 204.831L599.878 221.657L567.748 214.943ZM532.683 214.82L551.072 200.532L566.729 214.82H532.683ZM500.961 221.166L519.554 205.322L531.623 214.902L500.961 221.166ZM477.801 246.017L478.902 228.863L499.534 221.944L477.801 246.017ZM459.657 276.599L457.415 256.62L477.027 247.081L459.657 276.599ZM449.912 307.017L447.221 283.395L459.168 277.622L449.912 307.017ZM459.209 338.214L447.751 334.529L449.912 309.024L459.209 338.214ZM477.068 367.814L458.312 360.936L459.657 339.196L477.068 367.814ZM499.167 393.401L480.166 388.406L477.842 368.837L499.167 393.401ZM532.112 400.811L520.125 410.801L500.472 394.097L532.112 400.811ZM566.729 400.443L550.583 415.427L533.131 400.893L566.729 400.443ZM599.022 393.606L583.283 410.678L567.748 400.32L599.022 393.606ZM622.1 369.165L623.771 387.424L600.245 392.951L622.1 369.165ZM640.04 339.033L640.244 338.419L644.688 360.813L622.711 368.264L640.04 339.033ZM651.335 308.696L656.187 330.845L640.652 337.313L651.335 308.696ZM651.294 266.487L656.146 284.623L641.019 277.131L644.852 255.228L651.294 266.487ZM644.24 254.246L621.692 246.344L624.016 228.699L637.186 241.923L644.24 254.246ZM623.16 227.88L600.816 221.862L604.078 214.329L617.248 221.985L623.16 227.88ZM603.711 214.083L600.449 221.616L582.264 204.913L592.824 207.738L603.711 214.083ZM581.081 204.626L567.259 214.738L551.602 200.491H565.587L581.081 204.626ZM537.413 200.491H550.501L532.153 214.779L532.112 214.738H532.071L520.002 205.118L537.413 200.491ZM510.176 207.82L518.738 205.527L500.268 221.248L496.435 215.803L510.176 207.82ZM485.752 221.944L496.027 215.967L499.86 221.412L479.473 228.249L485.752 221.944ZM465.814 241.964L478.495 229.231L477.394 246.467L457.741 256.006L465.814 241.964ZM451.706 266.487L457.088 257.152L459.331 277.131L447.303 282.904L451.706 266.487ZM446.936 284.378L449.586 307.795L444.408 307.672V293.835L446.936 284.378ZM444.408 322.165V308.082L449.586 308.205L447.425 333.465L444.408 322.165ZM451.706 349.513L447.833 334.98L459.331 338.664L457.985 360.403L451.706 349.513ZM458.597 361.468L477.312 368.346L477.394 368.387L479.718 387.997L465.814 374.036L458.597 361.468ZM510.176 408.18L485.752 394.056L480.656 388.939L499.656 393.933L519.309 410.637L510.176 408.18ZM537.413 415.509L520.573 410.964L532.561 400.934L550.012 415.468H537.413V415.509ZM565.587 415.509H551.113L567.218 400.525L567.259 400.484L582.794 410.842L565.587 415.509ZM592.824 408.18L583.936 410.555L599.552 393.606L603.67 401.876L592.824 408.18ZM617.248 394.056L604.037 401.712L599.878 393.442L623.282 387.956L617.248 394.056ZM637.186 374.036L624.138 387.137L622.467 368.837L644.444 361.386L637.186 374.036ZM651.294 349.513L645.015 360.403L640.529 337.845H640.57V337.804L656.146 331.295L651.294 349.513ZM656.472 330.108L651.661 308.205L658.592 308.082V322.165L656.472 330.108Z" fill="url(#paint3_radial)"/>
</g>
<defs>
<linearGradient id="paint0_linear" x1="513.88" y1="279.845" x2="1086.38" y2="279.845" gradientUnits="userSpaceOnUse">
<stop stop-color="#04ADBF"/>
<stop offset="0.635417" stop-color="#CD40FF" stop-opacity="0"/>
</linearGradient>
<linearGradient id="paint1_linear" x1="6.10116" y1="274.399" x2="578.601" y2="274.399" gradientUnits="userSpaceOnUse">
<stop offset="0.0732187" stop-color="#04ADBF"/>
<stop offset="0.666667" stop-color="#CD40FF" stop-opacity="0"/>
</linearGradient>
<linearGradient id="paint2_linear" x1="581.111" y1="195.786" x2="322.611" y2="500.786" gradientUnits="userSpaceOnUse">
<stop stop-color="#04ADBF"/>
<stop offset="1" stop-color="#CD40FF"/>
</linearGradient>
<radialGradient id="paint3_radial" cx="0" cy="0" r="1" gradientUnits="userSpaceOnUse" gradientTransform="translate(551.495 307.998) scale(107.527 107.966)">
<stop stop-color="#BF0487"/>
<stop offset="0.9748" stop-color="#04ADBF"/>
</radialGradient>
<clipPath id="clip0">
<rect width="215" height="216" fill="white" transform="translate(444 200)"/>
</clipPath>
</defs>
</svg>
