<svg xmlns="http://www.w3.org/2000/svg" width="144.422" height="100"><defs><filter id="a" x="0" y="0" width="144.422" height="100" filterUnits="userSpaceOnUse"><feOffset/><feGaussianBlur stdDeviation="10" result="blur"/><feFlood flood-color="#04adbf" flood-opacity="0"/><feComposite operator="in" in2="blur"/><feComposite in="SourceGraphic"/></filter></defs><g filter="url(#a)"><path data-name="Path 114" d="M111.42 30h-.8c-2.614 0-4.773.114-6.023 2.386L92.67 54.432c-1.136 2.045-2.955 2.273-4.318.909l-.114-.114c-.114-.227-.341-.341-.455-.568 0 0-11.023-16.136-11.591-17.045a17.3 17.3 0 00-4.091-4.545C69.716 31.364 66.306 30 60.85 30c-9.091 0-13.182 3.75-15.8 8.636C44.829 39.2 30.511 65.8 30.511 65.8c-1.25 2.273-.114 4.091 2.5 4.091h.8c2.614 0 4.773-.114 6.023-2.386l11.927-22.05c1.136-2.045 2.955-2.273 4.318-.909l.114.114c.114.227.341.341.455.568 0 0 11.023 16.136 11.591 17.045a17.3 17.3 0 004.091 4.545C74.83 68.75 78.13 70 83.58 70c9.091 0 13.182-3.75 15.8-8.636.227-.455 14.659-27.045 14.659-27.045 1.017-2.387-.005-4.319-2.619-4.319zm-74.2 36.136c-.341.568-.682.909-3.523.909h-.682l.114-.114c5.455-10 8.864-16.7 9.659-18.068 1.818-3.068 4.2-5.114 6.023-5.114h.455zm46.25.909c-6.136 0-8.977-1.7-11.25-4.2-.568-.682-1.136-1.477-1.7-2.273s-1.25-1.818-2.273-3.182l-2.736-4.09-.341-.568-6.25-9.091a4.943 4.943 0 00-.682-.8c-3.636-4.659-8.068-3.977-11.477-2.273.8-2.5 6.136-7.614 14.091-7.614 6.136 0 8.977 1.7 11.25 4.2.568.682 1.136 1.477 1.7 2.273s1.25 1.818 2.273 3.182l2.731 4.091.341.568 6.25 9.091a4.942 4.942 0 00.682.8c3.636 4.659 8.068 3.977 11.477 2.273-.795 2.5-6.136 7.613-14.091 7.613zm27.723-33.977c-5.455 10-8.864 16.7-9.659 18.068-1.818 3.068-4.2 5.114-6.023 5.114h-.455l12.159-22.386c.341-.568.682-.909 3.523-.909h.682z" fill="#fff"/></g></svg>