<svg xmlns="http://www.w3.org/2000/svg" width="161.5" height="94.8"><filter filterUnits="userSpaceOnUse" height="94.76" id="a" width="133.364" x="14.04" y="0"><feOffset/><feGaussianBlur result="blur" stdDeviation="10"/><feFlood flood-color="#04adbf" flood-opacity="0"/><feComposite in2="blur" operator="in"/><feComposite in="SourceGraphic"/></filter><path d="M69.661 64c-.4 0-.8.2-1.1.5l-7.3 9c-.1.2-.3.3-.5.5-.2.3-.7.4-1 .1-.1 0-.1-.1-.1-.1l-.5-.5-7.8-9c-.2-.4-.6-.6-1.1-.6-.7 0-1.3.6-1.4 1.3v.1c0 .2 0 .3.1.5s.2.3.3.5l8 9.3c.4.4.8.8 1.3 1.1.5.3 1.1.4 1.7.4.6 0 1.2-.1 1.8-.4.5-.3.9-.6 1.3-1.1l7.5-9.3c.2-.2.3-.6.3-.9 0-.4-.1-.7-.4-1-.4-.2-.8-.4-1.1-.4zm17.9 4.5c.2-.4.6-.7 1-.9.5-.3 1.1-.4 1.7-.4h14.1c.8 0 1.4-.6 1.4-1.4 0-.8-.6-1.4-1.4-1.4h-14.7c-.8 0-1.6.2-2.2.6-.6.4-1.2.9-1.7 1.5s-.8 1.3-1.1 2c-.2.7-.4 1.5-.4 2.2 0 .7.1 1.5.4 2.1.2.7.5 1.4 1 2 .4.6.9 1.1 1.6 1.5.6.4 1.4.6 2.1.6h15c.8 0 1.4-.6 1.4-1.4 0-.8-.6-1.4-1.4-1.4h-14.1c-.6 0-1.2-.1-1.7-.4-.4-.2-.8-.5-1-.9-.2-.4-.4-.8-.5-1.2-.1-.4-.1-.8-.1-1.2 0-.4 0-.8.1-1.2.1 0 .3-.3.5-.7zm45.5-1.8c-.4-.6-.9-1.1-1.6-1.5-.6-.4-1.4-.6-2.1-.7h-13.1c-.8 0-1.6.2-2.2.6-.6.4-1.2.9-1.7 1.5s-.8 1.3-1.1 2c-.2.7-.4 1.5-.4 2.2 0 .7.1 1.5.4 2.1.2.7.6 1.3 1 1.9.4.6.9 1.1 1.6 1.5.6.4 1.4.6 2.1.7h13c.8 0 1.6-.2 2.2-.6.6-.4 1.2-.9 1.7-1.5s.8-1.3 1.1-2c.2-.7.4-1.5.4-2.2 0-.7-.1-1.5-.4-2.1-.1-.7-.4-1.3-.9-1.9zm-1.4 5.2c-.1.4-.3.8-.5 1.2-.2.4-.6.7-1 .9-.5.3-1.1.4-1.7.4h-11.6c-.6 0-1.2-.1-1.7-.4-.4-.2-.8-.5-1-.9-.2-.4-.4-.8-.5-1.2-.1-.4-.1-.8-.1-1.2 0-.4 0-.8.1-1.2.1-.4.3-.8.5-1.2.2-.4.6-.7 1-.9.5-.3 1.1-.4 1.7-.4h11.6c.6 0 1.2.1 1.7.4.4.2.8.5 1 .9.2.4.4.8.5 1.2.1.9.1 1.7 0 2.4zm-111.2-7.4c-.7 0-1.3.6-1.4 1.3v7.6l-16.8-8.8c-.3-.2-.6-.3-1-.3s-.7.2-1 .5c-.2.3-.3.6-.3 1v9.8c0 .4.1.7.4 1 .3.3.6.4 1 .4s.7-.1 1-.4c.3-.3.4-.6.4-1v-7.7l16.7 8.8c.3.2.6.3.9.3.4 0 .7-.1 1-.4.2-.1.3-.4.3-.6V65.9c0-.4-.1-.7-.4-1-.2-.2-.5-.4-.8-.4zm140.8.5c-.5-.5-1.4-.5-1.9 0-.3.3-.4.6-.4 1v7.5l-16.8-8.8c-.3-.2-.6-.3-1-.3s-.7.2-1 .5c-.2.3-.3.6-.3 1v9.8c0 .8.6 1.4 1.4 1.4.8 0 1.4-.6 1.4-1.4V68l16.8 8.8c.3.2.6.3.9.3.4 0 .7-.1 1-.4.2-.1.3-.4.3-.6V66c-.1-.3-.2-.7-.4-1zm-83.7-.5c-.7 0-1.3.6-1.4 1.3v9.9c0 .8.6 1.4 1.4 1.4.8 0 1.4-.6 1.4-1.4v-9.8c0-.4-.1-.7-.4-1-.3-.2-.6-.3-1-.4zm-30.3 10.3l-7-9.3c-.3-.4-.8-.8-1.3-1.1-.5-.3-1.1-.4-1.7-.4-.6 0-1.2.1-1.8.4-.5.3-.9.6-1.3 1.1l-6.9 9.3c-.2.2-.3.6-.3.9 0 .7.6 1.3 1.3 1.4h.1c.4 0 .8-.2 1.1-.5l1.9-2.6h11.8l1.9 2.5c.2.4.6.6 1.1.6.7 0 1.3-.6 1.4-1.3v-.1c0-.2 0-.3-.1-.5 0-.2-.1-.3-.2-.4zm-14.1-3.2l3-4c.1-.2.3-.3.5-.5.2-.3.7-.4 1-.1.1 0 .1.1.1.1l.5.5 3 4h-8.1z" opacity=".81" fill="#fff" enable-background="new"/><g transform="translate(.001)" filter="url(#a)"><path d="M114.8 17.7h-.7c-2.3 0-4.1.1-5.2 2.1L98.5 38.9c-1 1.8-2.6 2-3.8.8l-.1-.1c-.1-.2-.3-.3-.4-.5 0 0-9.6-14-10.1-14.8-.9-1.5-2.1-2.9-3.6-3.9-2.1-1.5-5-2.7-9.8-2.7-7.9 0-11.5 3.3-13.7 7.5-.2.5-12.6 23.6-12.6 23.6-1.1 2-.1 3.6 2.2 3.6h.7c2.3 0 4.1-.1 5.2-2.1L63 31.1c1-1.8 2.6-2 3.8-.8l.1.1c.1.2.3.3.4.5 0 0 9.6 14 10.1 14.8.9 1.5 2.1 2.9 3.6 3.9 2.2 1.7 5 2.8 9.8 2.8 7.9 0 11.5-3.3 13.7-7.5.2-.4 12.7-23.5 12.7-23.5.8-2.1-.1-3.7-2.4-3.7zM50.3 49.1c-.3.5-.6.8-3.1.8h-.6l.1-.1c4.7-8.7 7.7-14.5 8.4-15.7 1.6-2.7 3.7-4.4 5.2-4.4h.4L50.3 49.1zm40.2.8c-5.3 0-7.8-1.5-9.8-3.7-.5-.6-1-1.3-1.5-2s-1.1-1.6-2-2.8l-2.4-3.6-.3-.5-5.4-7.9c-.2-.3-.4-.5-.6-.7-3.2-4-7-3.5-10-2 .7-2.2 5.3-6.6 12.2-6.6 5.3 0 7.8 1.5 9.8 3.7.5.6 1 1.3 1.5 2s1.1 1.6 2 2.8l2.4 3.6.3.5 5.4 7.9c.2.3.4.5.6.7 3.2 4 7 3.5 10 2-.6 2.1-5.3 6.6-12.2 6.6zm24.1-29.6c-4.7 8.7-7.7 14.5-8.4 15.7-1.6 2.7-3.7 4.4-5.2 4.4h-.4L111.1 21c.3-.5.6-.8 3.1-.8h.6l-.2.1z" fill="#fff"/></g></svg>