<svg width="171.3" height="96.9" xmlns="http://www.w3.org/2000/svg"><filter filterUnits="userSpaceOnUse" height="96.873" id="a" width="137.822" x="16.716" y="0"><feOffset/><feGaussianBlur result="blur" stdDeviation="10"/><feFlood flood-color="#04adbf" flood-opacity="0"/><feComposite in2="blur" operator="in"/><feComposite in="SourceGraphic"/></filter><path d="M73.461 66.1c-.4 0-.8.2-1.1.5l-7.7 9.5c-.1.2-.3.3-.5.5-.3.3-.7.4-1.1.2-.1 0-.1-.1-.2-.2l-.5-.5-8.3-9.5c-.3-.4-.7-.6-1.1-.6-.8 0-1.4.6-1.4 1.4v.1c0 .2 0 .4.1.5.1.2.2.3.3.5l8.5 9.9c.4.4.8.8 1.3 1.1.5.3 1.1.4 1.8.4.6 0 1.3-.1 1.9-.4.5-.3 1-.7 1.3-1.1l8-9.9c.2-.3.3-.6.3-.9 0-.4-.1-.8-.4-1-.5-.3-.8-.5-1.2-.5zm19 4.8c.2-.4.6-.7 1-.9.5-.3 1.1-.4 1.8-.4h15c.8 0 1.4-.6 1.4-1.4 0-.8-.6-1.4-1.4-1.4h-15.6c-.8 0-1.7.2-2.4.6-.7.4-1.3.9-1.8 1.5-.5.7-.9 1.4-1.1 2.2-.2.8-.4 1.6-.4 2.4 0 .8.1 1.5.4 2.3.2.8.6 1.5 1 2.2.4.6 1 1.1 1.7 1.6.7.4 1.5.7 2.3.6h15.9c.8 0 1.4-.6 1.4-1.4 0-.8-.6-1.4-1.4-1.4h-15c-.6 0-1.2-.1-1.8-.4-.4-.2-.8-.5-1-.9-.2-.4-.4-.8-.5-1.2-.1-.4-.1-.8-.1-1.2 0-.4 0-.8.1-1.2.1-.9.3-1.3.5-1.6zm48.3-2c-.4-.6-1-1.1-1.7-1.5-.7-.4-1.5-.7-2.3-.7h-13.9c-.8 0-1.7.2-2.4.6-.7.4-1.3.9-1.8 1.5-.5.7-.9 1.4-1.1 2.2-.2.8-.4 1.6-.4 2.4 0 .8.1 1.5.4 2.3.2.7.6 1.4 1 2.1.4.6 1 1.1 1.7 1.5.7.4 1.5.7 2.3.7h13.8c.8 0 1.7-.2 2.4-.6.7-.4 1.3-.9 1.8-1.5.5-.7.9-1.4 1.1-2.2.2-.8.4-1.6.4-2.4 0-.8-.1-1.5-.4-2.3-.1-.8-.4-1.5-.9-2.1zm-1.5 5.6c-.1.4-.3.8-.5 1.2-.2.4-.6.7-1 .9-.5.3-1.1.4-1.8.4h-12.3c-.6 0-1.2-.1-1.8-.4-.4-.2-.8-.5-1-.9-.2-.4-.4-.8-.5-1.2-.1-.4-.1-.8-.1-1.2 0-.4 0-.8.1-1.2.1-.4.3-.8.5-1.2.2-.4.6-.7 1-.9.5-.3 1.1-.4 1.8-.4h12.3c.6 0 1.2.1 1.8.4.4.2.8.5 1 .9.2.4.4.8.5 1.2.1.7.1 1.6 0 2.4zm-118-7.9c-.8 0-1.4.6-1.4 1.4v8.1l-17.9-9.3c-.3-.2-.7-.4-1-.3-.4 0-.8.2-1 .5-.2.3-.3.7-.3 1v10.4c0 .4.1.8.4 1 .3.3.6.4 1 .4s.8-.1 1-.4c.3-.3.4-.6.4-1v-8.2l17.8 9.3c.3.2.6.3.9.3.4 0 .8-.1 1-.4.2-.2.3-.4.3-.6V68.1c0-.4-.1-.8-.4-1-.1-.3-.4-.5-.8-.5zm149.4.5c-.6-.6-1.5-.6-2 0-.3.3-.4.7-.4 1.1v8l-17.9-9.3c-.3-.2-.7-.4-1-.3-.4 0-.8.2-1 .5-.2.3-.3.7-.3 1v10.4c0 .8.6 1.4 1.4 1.4.8 0 1.4-.6 1.4-1.4v-8.2l17.8 9.3c.3.2.6.3.9.3.4 0 .8-.1 1-.4.2-.2.3-.4.3-.6V68.2c.1-.4.1-.8-.2-1.1zm-88.7-.5c-.8 0-1.4.6-1.4 1.4v10.5c0 .8.6 1.4 1.4 1.4.8 0 1.4-.6 1.4-1.4V68.1c0-.4-.1-.8-.4-1-.3-.3-.7-.4-1-.5zm-32.3 10.9l-7.4-9.9c-.4-.5-.8-.8-1.3-1.1-.5-.3-1.1-.4-1.8-.4-.6 0-1.3.1-1.9.4-.5.3-1 .7-1.3 1.1l-7.3 9.9c-.2.3-.3.6-.3.9 0 .8.6 1.4 1.4 1.4h.1c.4 0 .8-.2 1.1-.5l2.1-2.8h12.5l2.1 2.7c.2.4.7.6 1.1.6.8 0 1.4-.6 1.4-1.4v-.1c0-.2 0-.4-.1-.5-.2 0-.3-.2-.4-.3zm-14.8-3.3l3.2-4.2c.1-.2.3-.3.5-.5.3-.3.7-.4 1.1-.2.1 0 .1.1.2.2l.5.5 3.2 4.2h-8.7z" opacity=".81" fill="#fff" enable-background="new"/><g transform="translate(.001)" filter="url(#a)"><path d="M121.4 16.9h-.7c-2.4 0-4.4.1-5.6 2.2l-11 20.3c-1 1.9-2.7 2.1-4 .8l-.1-.1c-.1-.2-.3-.3-.4-.5 0 0-10.2-14.9-10.7-15.7-1-1.6-2.3-3-3.8-4.2-2.2-1.6-5.3-2.8-10.4-2.8-8.4 0-12.2 3.5-14.6 8-.2.5-13.4 25-13.4 25-1.2 2.1-.1 3.8 2.3 3.8h.7c2.4 0 4.4-.1 5.6-2.2l11-20.3c1-1.9 2.7-2.1 4-.8l.1.1c.1.2.3.3.4.5 0 0 10.2 14.9 10.7 15.7 1 1.6 2.3 3 3.8 4.2 2.3 1.8 5.3 2.9 10.4 2.9 8.4 0 12.2-3.5 14.6-8 .2-.4 13.5-24.9 13.5-24.9.9-2.2 0-4-2.4-4zM53 50.2c-.3.5-.6.8-3.2.8h-.6l.1-.1c5-9.2 8.2-15.4 8.9-16.7 1.7-2.8 3.9-4.7 5.6-4.7h.2L53 50.2zm42.6.9c-5.7 0-8.3-1.6-10.4-3.9-.5-.6-1-1.4-1.6-2.1-.5-.7-1.2-1.7-2.1-2.9L79 38.4l-.3-.5-5.7-8.4c-.2-.3-.4-.5-.6-.7-3.4-4.3-7.4-3.7-10.6-2.1.7-2.3 5.7-7 13-7 5.7 0 8.3 1.6 10.4 3.9.5.6 1 1.4 1.6 2.1s1.2 1.7 2.1 2.9l2.5 3.8.3.5 5.8 8.4c.2.3.4.5.6.7 3.4 4.3 7.4 3.7 10.6 2.1-.9 2.2-5.8 7-13.1 7zm25.6-31.4c-5 9.2-8.2 15.4-8.9 16.7-1.7 2.8-3.9 4.7-5.6 4.7h-.4l11.2-20.6c.3-.5.6-.8 3.2-.8h.6-.1z" fill="#04adbf"/></g></svg>