<svg xmlns="http://www.w3.org/2000/svg" width="64.188" height="47.351"><path data-name="Path 698" d="M0 42.546a53.651 53.651 0 0012.72-18.8q-5.936-1.272-8.056-4.876a13.786 13.786 0 01-2.12-7 11.182 11.182 0 013.745-8.55A11.7 11.7 0 0114.84.004a11.748 11.748 0 018.76 3.818 13.468 13.468 0 013.816 9.328q.424 8.762-6.713 18.514A55.6 55.6 0 013.533 47.21zm36.746.141a53.991 53.991 0 0012.578-18.655q-5.512-1.272-7.914-4.947a12.969 12.969 0 01-2.4-7.067 11.471 11.471 0 013.745-8.55A11.346 11.346 0 0151.588.147a11.9 11.9 0 018.621 3.816 13.2 13.2 0 013.957 9.328q.424 8.338-6.572 18.09a57.813 57.813 0 01-17.313 15.97z" fill="#bf0487"/></svg>